ply
format ascii 1.0
comment Created in Blender version 4.1.1
comment TextureFile WrappedPallet.png
element vertex 1000
property float x
property float y
property float z
property float nx
property float ny
property float nz
property float s
property float t
element face 516
property list uchar uint vertex_indices
end_header
-41.295647 10.275667 17.566534 0.5773285 0.57736135 0.577361 0.985437 0.985437
-44.291954 10.275667 14.57023 -0.5773285 0.5773611 -0.5773612 0.014563 0.014563
-44.291954 10.275667 17.566534 -0.5773721 0.57733953 0.57733923 0.985437 0.014563
-41.295647 7.279363 14.5702305 0.5773285 -0.57736135 -0.577361 0.985437 0.985437
-44.291954 7.279363 14.5702305 -0.5773721 -0.57733953 -0.5773393 0.014563 0.985437
-41.295647 10.275667 14.57023 0.5773721 0.5773393 -0.5773395 0.014563 0.014563
-41.295647 7.2793636 17.566534 0.5773721 -0.5773393 0.57733953 0.985437 0.985437
-41.295647 7.279363 14.5702305 0.5773285 -0.57736135 -0.577361 0.014563 0.985437
-44.291954 7.2793636 17.566534 -0.5773285 -0.5773611 0.5773612 0.014563 0.985437
-41.295647 7.279363 14.5702305 0.5773285 -0.57736135 -0.577361 0.985437 0.014563
-44.291954 10.275667 17.566534 -0.5773721 0.57733953 0.57733923 0.014563 0.014563
-44.291954 7.279363 14.5702305 -0.5773721 -0.57733953 -0.5773393 0.985437 0.985437
-41.295647 10.275667 17.566534 0.5773285 0.57736135 0.577361 0.014563 0.014563
-44.291954 7.2793636 17.566534 -0.5773285 -0.5773611 0.5773612 0.985437 0.985437
-41.295647 7.2793636 17.566534 0.5773721 -0.5773393 0.57733953 0.014563 0.985437
-37.233177 10.275667 17.566534 0.5773285 0.5773612 0.5773611 0.985437 0.985437
-40.229485 10.275667 14.57023 -0.5773285 0.577361 -0.57736135 0.014563 0.014563
-40.229485 10.275667 17.566534 -0.5773721 0.57733953 0.57733923 0.985437 0.014563
-37.233177 7.279363 14.5702305 0.5773285 -0.5773612 -0.5773611 0.985437 0.985437
-40.229485 7.279363 14.5702305 -0.5773721 -0.57733953 -0.5773393 0.014563 0.985437
-37.233177 10.275667 14.57023 0.5773721 0.57733923 -0.5773395 0.014563 0.014563
-37.233177 7.2793636 17.566534 0.5773721 -0.57733923 0.57733953 0.985437 0.985437
-37.233177 7.279363 14.5702305 0.5773285 -0.5773612 -0.5773611 0.014563 0.985437
-40.229485 7.2793636 17.566534 -0.5773285 -0.577361 0.57736135 0.014563 0.985437
-37.233177 7.279363 14.5702305 0.5773285 -0.5773612 -0.5773611 0.985437 0.014563
-40.229485 10.275667 17.566534 -0.5773721 0.57733953 0.57733923 0.014563 0.014563
-40.229485 7.279363 14.5702305 -0.5773721 -0.57733953 -0.5773393 0.985437 0.985437
-37.233177 10.275667 17.566534 0.5773285 0.5773612 0.5773611 0.014563 0.014563
-40.229485 7.2793636 17.566534 -0.5773285 -0.577361 0.57736135 0.985437 0.985437
-37.233177 7.2793636 17.566534 0.5773721 -0.57733923 0.57733953 0.014563 0.985437
-37.233177 10.275667 25.795185 0.57732844 0.57736135 0.5773611 0.985437 0.985437
-40.229485 10.275667 22.798883 -0.57732844 0.5773611 -0.57736135 0.014563 0.014563
-40.229485 10.275667 25.795185 -0.57737213 0.5773395 0.5773393 0.985437 0.014563
-37.233177 7.279363 22.798883 0.57732844 -0.57736135 -0.5773611 0.985437 0.985437
-40.229485 7.279363 22.798883 -0.57737213 -0.5773395 -0.57733923 0.014563 0.985437
-37.233177 10.275667 22.798883 0.57737213 0.57733923 -0.57733953 0.014563 0.014563
-37.233177 7.2793636 25.795187 0.57737213 -0.57733923 0.5773395 0.985437 0.985437
-37.233177 7.279363 22.798883 0.57732844 -0.57736135 -0.5773611 0.014563 0.985437
-40.229485 7.2793636 25.795187 -0.57732844 -0.5773611 0.57736135 0.014563 0.985437
-37.233177 7.279363 22.798883 0.57732844 -0.57736135 -0.5773611 0.985437 0.014563
-40.229485 10.275667 25.795185 -0.57737213 0.5773395 0.5773393 0.014563 0.014563
-40.229485 7.279363 22.798883 -0.57737213 -0.5773395 -0.57733923 0.985437 0.985437
-37.233177 10.275667 25.795185 0.57732844 0.57736135 0.5773611 0.014563 0.014563
-40.229485 7.2793636 25.795187 -0.57732844 -0.5773611 0.57736135 0.985437 0.985437
-37.233177 7.2793636 25.795187 0.57737213 -0.57733923 0.5773395 0.014563 0.985437
-43.79683 10.275667 25.795185 0.5773285 0.57736135 0.57736105 0.985437 0.985437
-46.793137 10.275667 22.798883 -0.5773285 0.5773611 -0.5773613 0.014563 0.014563
-46.793137 10.275667 25.795185 -0.5773721 0.5773395 0.57733923 0.985437 0.014563
-43.79683 7.279363 22.798883 0.5773285 -0.57736135 -0.57736105 0.985437 0.985437
-46.793137 7.279363 22.798883 -0.57737213 -0.57733953 -0.57733923 0.014563 0.985437
-43.79683 10.275667 22.798883 0.57737213 0.57733923 -0.57733953 0.014563 0.014563
-43.79683 7.2793636 25.795187 0.57737213 -0.57733923 0.5773395 0.985437 0.985437
-43.79683 7.279363 22.798883 0.5773285 -0.57736135 -0.57736105 0.014563 0.985437
-46.793137 7.2793636 25.795187 -0.5773285 -0.5773611 0.5773613 0.014563 0.985437
-43.79683 7.279363 22.798883 0.5773285 -0.57736135 -0.57736105 0.985437 0.014563
-46.793137 10.275667 25.795185 -0.5773721 0.5773395 0.57733923 0.014563 0.014563
-46.793137 7.279363 22.798883 -0.57737213 -0.57733953 -0.57733923 0.985437 0.985437
-43.79683 10.275667 25.795185 0.5773285 0.57736135 0.57736105 0.014563 0.014563
-46.793137 7.2793636 25.795187 -0.5773285 -0.5773611 0.5773613 0.985437 0.985437
-43.79683 7.2793636 25.795187 0.57737213 -0.57733923 0.5773395 0.014563 0.985437
-34.460068 2.150846 -5.9390106 0.5773285 0.5773612 0.57736105 0.403573 0.589067
-36.143974 2.150846 -7.622917 -0.5773285 0.577361 -0.5773613 0.006583 0.016402
-36.143974 2.150846 -5.9390106 -0.5773721 0.57733953 0.5773393 0.403573 0.016402
-36.143974 2.150846 -7.622917 -0.5773285 0.577361 -0.5773613 0.665543 0.585119
-34.460068 0.46694136 -7.6229153 0.5773285 -0.5773612 -0.57736105 0.998519 0.996912
-36.143974 0.46694136 -7.6229153 -0.5773721 -0.57733953 -0.5773393 0.665543 0.996912
-34.460068 2.150846 -7.622917 0.5773721 0.5773393 -0.57733953 0.349794 1
-34.460068 0.46694136 -5.9390087 0.5773721 -0.5773393 0.57733953 0.002223 0.598594
-34.460068 0.46694136 -7.6229153 0.5773285 -0.5773612 -0.57736105 0.349795 0.598594
-36.143974 0.46694136 -5.9390087 -0.5773285 -0.577361 0.5773613 0.393437 0.584454
-34.460068 0.46694136 -7.6229153 0.5773285 -0.5773612 -0.57736105 0.012813 0.021014
-34.460068 0.46694136 -5.9390087 0.5773721 -0.5773393 0.57733953 0.393437 0.021014
-36.143974 2.150846 -5.9390106 -0.5773721 0.57733953 0.5773393 0.356496 0.999145
-36.143974 0.46694136 -7.6229153 -0.5773721 -0.57733953 -0.5773393 -0.000477 0.590699
-36.143974 0.46694136 -5.9390087 -0.5773285 -0.577361 0.5773613 0.356496 0.590699
-34.460068 2.150846 -5.9390106 0.5773285 0.5773612 0.57736105 0.674191 0.582262
-36.143974 0.46694136 -5.9390087 -0.5773285 -0.577361 0.5773613 0.993778 1.014589
-34.460068 0.46694136 -5.9390087 0.5773721 -0.5773393 0.57733953 0.674191 1.014589
-55.210133 2.150846 -5.9390106 0.57732844 0.5773613 0.577361 0.403573 0.589067
-56.89404 2.150846 -7.622917 -0.57732844 0.57736105 -0.5773612 0.006583 0.016402
-56.89404 2.150846 -5.9390106 -0.5773721 0.57733953 0.5773393 0.403573 0.016402
-56.89404 2.150846 -7.622917 -0.57732844 0.57736105 -0.5773612 0.665543 0.585119
-55.210133 0.46694136 -7.6229153 0.57732844 -0.5773613 -0.577361 0.998519 0.996912
-56.89404 0.46694136 -7.6229153 -0.5773721 -0.57733953 -0.5773393 0.665543 0.996912
-55.210133 2.150846 -7.622917 0.5773721 0.5773393 -0.57733953 0.349794 1
-55.210133 0.46694136 -5.9390087 0.5773721 -0.5773393 0.57733953 0.002223 0.598594
-55.210133 0.46694136 -7.6229153 0.57732844 -0.5773613 -0.577361 0.349795 0.598594
-56.89404 0.46694136 -5.9390087 -0.57732844 -0.57736105 0.5773612 0.393437 0.584454
-55.210133 0.46694136 -7.6229153 0.57732844 -0.5773613 -0.577361 0.012813 0.021014
-55.210133 0.46694136 -5.9390087 0.5773721 -0.5773393 0.57733953 0.393437 0.021014
-56.89404 2.150846 -5.9390106 -0.5773721 0.57733953 0.5773393 0.356496 0.999145
-56.89404 0.46694136 -7.6229153 -0.5773721 -0.57733953 -0.5773393 -0.000477 0.590699
-56.89404 0.46694136 -5.9390087 -0.57732844 -0.57736105 0.5773612 0.356496 0.590699
-55.210133 2.150846 -5.9390106 0.57732844 0.5773613 0.577361 0.674191 0.582262
-56.89404 0.46694136 -5.9390087 -0.57732844 -0.57736105 0.5773612 0.993778 1.014589
-55.210133 0.46694136 -5.9390087 0.5773721 -0.5773393 0.57733953 0.674191 1.014589
-47.586205 8.386903 16.027473 0.5773285 0.5773612 0.5773611 0.403573 0.589067
-48.706284 8.386903 14.907396 -0.5773285 0.57736105 -0.57736135 0.006583 0.016402
-48.706284 8.386903 16.027473 -0.5773721 0.57733953 0.5773393 0.403573 0.016402
-48.706284 8.386903 14.907396 -0.5773285 0.57736105 -0.57736135 0.665543 0.585119
-47.586205 7.266826 14.907396 0.5773285 -0.5773613 -0.5773611 0.998519 0.996912
-48.706284 7.266826 14.907396 -0.5773721 -0.57733953 -0.5773393 0.665543 0.996912
-47.586205 8.386903 14.907396 0.5773721 0.5773393 -0.57733953 0.349794 1
-47.586205 7.266826 16.027473 0.5773721 -0.5773393 0.57733953 0.002223 0.598594
-47.586205 7.266826 14.907396 0.5773285 -0.5773613 -0.5773611 0.349795 0.598594
-48.706284 7.266826 16.027473 -0.5773285 -0.577361 0.57736135 0.393437 0.584454
-47.586205 7.266826 14.907396 0.5773285 -0.5773613 -0.5773611 0.012813 0.021014
-47.586205 7.266826 16.027473 0.5773721 -0.5773393 0.57733953 0.393437 0.021014
-48.706284 8.386903 16.027473 -0.5773721 0.57733953 0.5773393 0.356496 0.999145
-48.706284 7.266826 14.907396 -0.5773721 -0.57733953 -0.5773393 -0.000477 0.590699
-48.706284 7.266826 16.027473 -0.5773285 -0.577361 0.57736135 0.356496 0.590699
-47.586205 8.386903 16.027473 0.5773285 0.5773612 0.5773611 0.674191 0.582262
-48.706284 7.266826 16.027473 -0.5773285 -0.577361 0.57736135 0.993778 1.014589
-47.586205 7.266826 16.027473 0.5773721 -0.5773393 0.57733953 0.674191 1.014589
-27.723412 5.505979 23.84413 0.57732844 0.57736135 0.5773611 0.985437 0.985437
-32.76737 5.505978 18.800175 -0.57732844 0.57736105 -0.5773613 0.014563 0.014563
-32.76737 5.505979 23.84413 -0.5773721 0.5773395 0.57733923 0.985437 0.014563
-27.723412 0.46202374 18.800175 0.57732844 -0.5773613 -0.57736105 0.985437 0.985437
-32.76737 0.46202374 18.800175 -0.5773721 -0.5773395 -0.57733923 0.014563 0.985437
-27.723412 5.505978 18.800175 0.5773721 0.57733923 -0.5773395 0.014563 0.014563
-27.723412 0.4620247 23.84413 0.5773721 -0.57733923 0.5773395 0.985437 0.985437
-27.723412 0.46202374 18.800175 0.57732844 -0.5773613 -0.57736105 0.014563 0.985437
-32.76737 0.4620247 23.84413 -0.57732844 -0.5773611 0.57736135 0.014563 0.985437
-27.723412 0.46202374 18.800175 0.57732844 -0.5773613 -0.57736105 0.985437 0.014563
-32.76737 5.505979 23.84413 -0.5773721 0.5773395 0.57733923 0.014563 0.014563
-32.76737 0.46202374 18.800175 -0.5773721 -0.5773395 -0.57733923 0.985437 0.985437
-27.723412 5.505979 23.84413 0.57732844 0.57736135 0.5773611 0.014563 0.014563
-32.76737 0.4620247 23.84413 -0.57732844 -0.5773611 0.57736135 0.985437 0.985437
-27.723412 0.4620247 23.84413 0.5773721 -0.57733923 0.5773395 0.014563 0.985437
-68.13872 5.6051803 -20.940598 0.5773285 0.57736135 0.577361 0.985437 0.985437
-73.18266 5.60518 -25.98455 -0.5773285 0.5773611 -0.5773612 0.014563 0.014563
-73.18266 5.6051803 -20.940598 -0.5773721 0.57733953 0.57733923 0.985437 0.014563
-68.13872 0.5612254 -25.98455 0.5773285 -0.57736135 -0.577361 0.985437 0.985437
-73.18266 0.5612254 -25.98455 -0.5773721 -0.57733953 -0.5773393 0.014563 0.985437
-68.13872 5.60518 -25.98455 0.5773721 0.5773393 -0.5773395 0.014563 0.014563
-68.13872 0.5612259 -20.940598 0.5773721 -0.5773393 0.57733953 0.985437 0.985437
-68.13872 0.5612254 -25.98455 0.5773285 -0.57736135 -0.577361 0.014563 0.985437
-73.18266 0.5612259 -20.940598 -0.5773285 -0.5773611 0.5773612 0.014563 0.985437
-68.13872 0.5612254 -25.98455 0.5773285 -0.57736135 -0.577361 0.985437 0.014563
-73.18266 5.6051803 -20.940598 -0.5773721 0.57733953 0.57733923 0.014563 0.014563
-73.18266 0.5612254 -25.98455 -0.5773721 -0.57733953 -0.5773393 0.985437 0.985437
-68.13872 5.6051803 -20.940598 0.5773285 0.57736135 0.577361 0.014563 0.014563
-73.18266 0.5612259 -20.940598 -0.5773285 -0.5773611 0.5773612 0.985437 0.985437
-68.13872 0.5612259 -20.940598 0.5773721 -0.5773393 0.57733953 0.014563 0.985437
-58.01706 12.3048 -14.546059 0.57732844 0.5773613 0.57736105 0.985437 0.985437
-63.061012 12.3048 -19.590012 -0.57732844 0.57736105 -0.5773613 0.014563 0.014563
-63.061012 12.3048 -14.546059 -0.5773721 0.57733953 0.5773393 0.985437 0.014563
-58.01706 7.2608447 -19.590012 0.57732844 -0.5773613 -0.57736105 0.985437 0.985437
-63.061012 7.2608447 -19.590012 -0.5773721 -0.57733953 -0.5773393 0.014563 0.985437
-58.01706 12.3048 -19.590012 0.5773721 0.5773393 -0.57733953 0.014563 0.014563
-58.01706 7.2608457 -14.546059 0.5773721 -0.5773393 0.57733953 0.985437 0.985437
-58.01706 7.2608447 -19.590012 0.57732844 -0.5773613 -0.57736105 0.014563 0.985437
-63.061012 7.2608457 -14.546059 -0.57732844 -0.57736105 0.5773613 0.014563 0.985437
-58.01706 7.2608447 -19.590012 0.57732844 -0.5773613 -0.57736105 0.985437 0.014563
-63.061012 12.3048 -14.546059 -0.5773721 0.57733953 0.5773393 0.014563 0.014563
-63.061012 7.2608447 -19.590012 -0.5773721 -0.57733953 -0.5773393 0.985437 0.985437
-58.01706 12.3048 -14.546059 0.57732844 0.5773613 0.57736105 0.014563 0.014563
-63.061012 7.2608457 -14.546059 -0.57732844 -0.57736105 0.5773613 0.985437 0.985437
-58.01706 7.2608457 -14.546059 0.5773721 -0.5773393 0.57733953 0.014563 0.985437
-53.6002 2.150846 -12.302639 0.57732844 0.5773613 0.577361 0.403573 0.589067
-55.284107 2.150846 -13.986546 -0.57732844 0.57736105 -0.5773612 0.006583 0.016402
-55.284107 2.150846 -12.302639 -0.5773721 0.57733953 0.5773393 0.403573 0.016402
-55.284107 2.150846 -13.986546 -0.57732844 0.57736105 -0.5773612 0.665543 0.585119
-53.6002 0.46694136 -13.986544 0.57732844 -0.5773613 -0.577361 0.998519 0.996912
-55.284107 0.46694136 -13.986544 -0.5773721 -0.57733953 -0.5773393 0.665543 0.996912
-53.6002 2.150846 -13.986546 0.5773721 0.5773393 -0.57733953 0.349794 1
-53.6002 0.46694136 -12.302637 0.5773721 -0.5773393 0.57733953 0.002223 0.598594
-53.6002 0.46694136 -13.986544 0.57732844 -0.5773613 -0.577361 0.349795 0.598594
-55.284107 0.46694136 -12.302637 -0.57732844 -0.57736105 0.5773612 0.393437 0.584454
-53.6002 0.46694136 -13.986544 0.57732844 -0.5773613 -0.577361 0.012813 0.021014
-53.6002 0.46694136 -12.302637 0.5773721 -0.5773393 0.57733953 0.393437 0.021014
-55.284107 2.150846 -12.302639 -0.5773721 0.57733953 0.5773393 0.356496 0.999145
-55.284107 0.46694136 -13.986544 -0.5773721 -0.57733953 -0.5773393 -0.000477 0.590699
-55.284107 0.46694136 -12.302637 -0.57732844 -0.57736105 0.5773612 0.356496 0.590699
-53.6002 2.150846 -12.302639 0.57732844 0.5773613 0.577361 0.674191 0.582262
-55.284107 0.46694136 -12.302637 -0.57732844 -0.57736105 0.5773612 0.993778 1.014589
-53.6002 0.46694136 -12.302637 0.5773721 -0.5773393 0.57733953 0.674191 1.014589
-49.546394 2.150846 -12.302639 0.5773285 0.5773612 0.57736105 0.403573 0.589067
-51.2303 2.150846 -13.986546 -0.5773285 0.577361 -0.5773613 0.006583 0.016402
-51.2303 2.150846 -12.302639 -0.5773721 0.57733953 0.5773393 0.403573 0.016402
-51.2303 2.150846 -13.986546 -0.5773285 0.577361 -0.5773613 0.665543 0.585119
-49.546394 0.46694136 -13.986544 0.5773285 -0.5773612 -0.57736105 0.998519 0.996912
-51.2303 0.46694136 -13.986544 -0.5773721 -0.57733953 -0.5773393 0.665543 0.996912
-49.546394 2.150846 -13.986546 0.5773721 0.5773393 -0.57733953 0.349794 1
-49.546394 0.46694136 -12.302637 0.5773721 -0.5773393 0.57733953 0.002223 0.598594
-49.546394 0.46694136 -13.986544 0.5773285 -0.5773612 -0.57736105 0.349795 0.598594
-51.2303 0.46694136 -12.302637 -0.5773285 -0.577361 0.5773613 0.393437 0.584454
-49.546394 0.46694136 -13.986544 0.5773285 -0.5773612 -0.57736105 0.012813 0.021014
-49.546394 0.46694136 -12.302637 0.5773721 -0.5773393 0.57733953 0.393437 0.021014
-51.2303 2.150846 -12.302639 -0.5773721 0.57733953 0.5773393 0.356496 0.999145
-51.2303 0.46694136 -13.986544 -0.5773721 -0.57733953 -0.5773393 -0.000477 0.590699
-51.2303 0.46694136 -12.302637 -0.5773285 -0.577361 0.5773613 0.356496 0.590699
-49.546394 2.150846 -12.302639 0.5773285 0.5773612 0.57736105 0.674191 0.582262
-51.2303 0.46694136 -12.302637 -0.5773285 -0.577361 0.5773613 0.993778 1.014589
-49.546394 0.46694136 -12.302637 0.5773721 -0.5773393 0.57733953 0.674191 1.014589
-41.90897 2.150846 -12.302639 0.5773285 0.5773612 0.57736105 0.403573 0.589067
-43.592876 2.150846 -13.986546 -0.5773285 0.577361 -0.5773613 0.006583 0.016402
-43.592876 2.150846 -12.302639 -0.5773721 0.57733953 0.5773393 0.403573 0.016402
-43.592876 2.150846 -13.986546 -0.5773285 0.577361 -0.5773613 0.665543 0.585119
-41.90897 0.46694136 -13.986544 0.5773285 -0.5773612 -0.57736105 0.998519 0.996912
-43.592876 0.46694136 -13.986544 -0.5773721 -0.57733953 -0.5773393 0.665543 0.996912
-41.90897 2.150846 -13.986546 0.5773721 0.5773393 -0.57733953 0.349794 1
-41.90897 0.46694136 -12.302637 0.5773721 -0.5773393 0.57733953 0.002223 0.598594
-41.90897 0.46694136 -13.986544 0.5773285 -0.5773612 -0.57736105 0.349795 0.598594
-43.592876 0.46694136 -12.302637 -0.5773285 -0.577361 0.5773613 0.393437 0.584454
-41.90897 0.46694136 -13.986544 0.5773285 -0.5773612 -0.57736105 0.012813 0.021014
-41.90897 0.46694136 -12.302637 0.5773721 -0.5773393 0.57733953 0.393437 0.021014
-43.592876 2.150846 -12.302639 -0.5773721 0.57733953 0.5773393 0.356496 0.999145
-43.592876 0.46694136 -13.986544 -0.5773721 -0.57733953 -0.5773393 -0.000477 0.590699
-43.592876 0.46694136 -12.302637 -0.5773285 -0.577361 0.5773613 0.356496 0.590699
-41.90897 2.150846 -12.302639 0.5773285 0.5773612 0.57736105 0.674191 0.582262
-43.592876 0.46694136 -12.302637 -0.5773285 -0.577361 0.5773613 0.993778 1.014589
-41.90897 0.46694136 -12.302637 0.5773721 -0.5773393 0.57733953 0.674191 1.014589
-37.98904 2.150846 -12.302639 0.5773285 0.5773612 0.5773611 0.403573 0.589067
-39.672947 2.150846 -13.986546 -0.5773285 0.577361 -0.57736135 0.006583 0.016402
-39.672947 2.150846 -12.302639 -0.5773721 0.57733953 0.5773393 0.403573 0.016402
-39.672947 2.150846 -13.986546 -0.5773285 0.577361 -0.57736135 0.665543 0.585119
-37.98904 0.46694136 -13.986544 0.5773285 -0.5773612 -0.5773611 0.998519 0.996912
-39.672947 0.46694136 -13.986544 -0.5773721 -0.57733953 -0.5773393 0.665543 0.996912
-37.98904 2.150846 -13.986546 0.5773721 0.5773393 -0.57733953 0.349794 1
-37.98904 0.46694136 -12.302637 0.5773721 -0.5773393 0.57733953 0.002223 0.598594
-37.98904 0.46694136 -13.986544 0.5773285 -0.5773612 -0.5773611 0.349795 0.598594
-39.672947 0.46694136 -12.302637 -0.5773285 -0.577361 0.57736135 0.393437 0.584454
-37.98904 0.46694136 -13.986544 0.5773285 -0.5773612 -0.5773611 0.012813 0.021014
-37.98904 0.46694136 -12.302637 0.5773721 -0.5773393 0.57733953 0.393437 0.021014
-39.672947 2.150846 -12.302639 -0.5773721 0.57733953 0.5773393 0.356496 0.999145
-39.672947 0.46694136 -13.986544 -0.5773721 -0.57733953 -0.5773393 -0.000477 0.590699
-39.672947 0.46694136 -12.302637 -0.5773285 -0.577361 0.57736135 0.356496 0.590699
-37.98904 2.150846 -12.302639 0.5773285 0.5773612 0.5773611 0.674191 0.582262
-39.672947 0.46694136 -12.302637 -0.5773285 -0.577361 0.57736135 0.993778 1.014589
-37.98904 0.46694136 -12.302637 0.5773721 -0.5773393 0.57733953 0.674191 1.014589
-30.763214 2.150846 -12.302639 0.57732844 0.5773613 0.577361 0.403573 0.589067
-32.44712 2.150846 -13.986546 -0.57732844 0.57736105 -0.5773612 0.006583 0.016402
-32.44712 2.150846 -12.302639 -0.5773721 0.57733953 0.5773393 0.403573 0.016402
-32.44712 2.150846 -13.986546 -0.57732844 0.57736105 -0.5773612 0.665543 0.585119
-30.763214 0.46694136 -13.986544 0.57732844 -0.5773613 -0.577361 0.998519 0.996912
-32.44712 0.46694136 -13.986544 -0.5773721 -0.57733953 -0.5773393 0.665543 0.996912
-30.763214 2.150846 -13.986546 0.5773721 0.5773393 -0.57733953 0.349794 1
-30.763214 0.46694136 -12.302637 0.5773721 -0.5773393 0.57733953 0.002223 0.598594
-30.763214 0.46694136 -13.986544 0.57732844 -0.5773613 -0.577361 0.349795 0.598594
-32.44712 0.46694136 -12.302637 -0.57732844 -0.57736105 0.5773612 0.393437 0.584454
-30.763214 0.46694136 -13.986544 0.57732844 -0.5773613 -0.577361 0.012813 0.021014
-30.763214 0.46694136 -12.302637 0.5773721 -0.5773393 0.57733953 0.393437 0.021014
-32.44712 2.150846 -12.302639 -0.5773721 0.57733953 0.5773393 0.356496 0.999145
-32.44712 0.46694136 -13.986544 -0.5773721 -0.57733953 -0.5773393 -0.000477 0.590699
-32.44712 0.46694136 -12.302637 -0.57732844 -0.57736105 0.5773612 0.356496 0.590699
-30.763214 2.150846 -12.302639 0.57732844 0.5773613 0.577361 0.674191 0.582262
-32.44712 0.46694136 -12.302637 -0.57732844 -0.57736105 0.5773612 0.993778 1.014589
-30.763214 0.46694136 -12.302637 0.5773721 -0.5773393 0.57733953 0.674191 1.014589
-27.001835 2.150846 -12.302639 0.57732844 0.5773613 0.577361 0.403573 0.589067
-28.685741 2.150846 -13.986546 -0.57732844 0.57736105 -0.5773612 0.006583 0.016402
-28.685741 2.150846 -12.302639 -0.5773721 0.57733953 0.5773393 0.403573 0.016402
-28.685741 2.150846 -13.986546 -0.57732844 0.57736105 -0.5773612 0.665543 0.585119
-27.001835 0.46694136 -13.986544 0.57732844 -0.5773613 -0.577361 0.998519 0.996912
-28.685741 0.46694136 -13.986544 -0.5773721 -0.57733953 -0.5773393 0.665543 0.996912
-27.001835 2.150846 -13.986546 0.5773721 0.5773393 -0.57733953 0.349794 1
-27.001835 0.46694136 -12.302637 0.5773721 -0.5773393 0.57733953 0.002223 0.598594
-27.001835 0.46694136 -13.986544 0.57732844 -0.5773613 -0.577361 0.349795 0.598594
-28.685741 0.46694136 -12.302637 -0.57732844 -0.57736105 0.5773612 0.393437 0.584454
-27.001835 0.46694136 -13.986544 0.57732844 -0.5773613 -0.577361 0.012813 0.021014
-27.001835 0.46694136 -12.302637 0.5773721 -0.5773393 0.57733953 0.393437 0.021014
-28.685741 2.150846 -12.302639 -0.5773721 0.57733953 0.5773393 0.356496 0.999145
-28.685741 0.46694136 -13.986544 -0.5773721 -0.57733953 -0.5773393 -0.000477 0.590699
-28.685741 0.46694136 -12.302637 -0.57732844 -0.57736105 0.5773612 0.356496 0.590699
-27.001835 2.150846 -12.302639 0.57732844 0.5773613 0.577361 0.674191 0.582262
-28.685741 0.46694136 -12.302637 -0.57732844 -0.57736105 0.5773612 0.993778 1.014589
-27.001835 0.46694136 -12.302637 0.5773721 -0.5773393 0.57733953 0.674191 1.014589
-20.51176 2.150846 -12.302639 0.57732844 0.5773613 0.577361 0.403573 0.589067
-22.195667 2.150846 -13.986546 -0.57732844 0.57736105 -0.5773612 0.006583 0.016402
-22.195667 2.150846 -12.302639 -0.5773721 0.5773395 0.5773393 0.403573 0.016402
-22.195667 2.150846 -13.986546 -0.57732844 0.57736105 -0.5773612 0.665543 0.585119
-20.51176 0.46694136 -13.986544 0.57732844 -0.5773613 -0.577361 0.998519 0.996912
-22.195667 0.46694136 -13.986544 -0.5773721 -0.5773395 -0.5773393 0.665543 0.996912
-20.51176 2.150846 -13.986546 0.5773721 0.5773393 -0.57733953 0.349794 1
-20.51176 0.46694136 -12.302637 0.5773721 -0.5773393 0.57733953 0.002223 0.598594
-20.51176 0.46694136 -13.986544 0.57732844 -0.5773613 -0.577361 0.349795 0.598594
-22.195667 0.46694136 -12.302637 -0.57732844 -0.57736105 0.5773612 0.393437 0.584454
-20.51176 0.46694136 -13.986544 0.57732844 -0.5773613 -0.577361 0.012813 0.021014
-20.51176 0.46694136 -12.302637 0.5773721 -0.5773393 0.57733953 0.393437 0.021014
-22.195667 2.150846 -12.302639 -0.5773721 0.5773395 0.5773393 0.356496 0.999145
-22.195667 0.46694136 -13.986544 -0.5773721 -0.5773395 -0.5773393 -0.000477 0.590699
-22.195667 0.46694136 -12.302637 -0.57732844 -0.57736105 0.5773612 0.356496 0.590699
-20.51176 2.150846 -12.302639 0.57732844 0.5773613 0.577361 0.674191 0.582262
-22.195667 0.46694136 -12.302637 -0.57732844 -0.57736105 0.5773612 0.993778 1.014589
-20.51176 0.46694136 -12.302637 0.5773721 -0.5773393 0.57733953 0.674191 1.014589
-17.140568 2.150846 -12.302639 0.57732844 0.5773613 0.577361 0.403573 0.589067
-18.824474 2.150846 -13.986546 -0.57732844 0.57736105 -0.5773612 0.006583 0.016402
-18.824474 2.150846 -12.302639 -0.5773721 0.57733953 0.5773393 0.403573 0.016402
-18.824474 2.150846 -13.986546 -0.57732844 0.57736105 -0.5773612 0.665543 0.585119
-17.140568 0.46694136 -13.986544 0.57732844 -0.5773613 -0.577361 0.998519 0.996912
-18.824474 0.46694136 -13.986544 -0.5773721 -0.57733953 -0.5773393 0.665543 0.996912
-17.140568 2.150846 -13.986546 0.5773721 0.5773393 -0.57733953 0.349794 1
-17.140568 0.46694136 -12.302637 0.5773721 -0.5773393 0.57733953 0.002223 0.598594
-17.140568 0.46694136 -13.986544 0.57732844 -0.5773613 -0.577361 0.349795 0.598594
-18.824474 0.46694136 -12.302637 -0.57732844 -0.57736105 0.5773612 0.393437 0.584454
-17.140568 0.46694136 -13.986544 0.57732844 -0.5773613 -0.577361 0.012813 0.021014
-17.140568 0.46694136 -12.302637 0.5773721 -0.5773393 0.57733953 0.393437 0.021014
-18.824474 2.150846 -12.302639 -0.5773721 0.57733953 0.5773393 0.356496 0.999145
-18.824474 0.46694136 -13.986544 -0.5773721 -0.57733953 -0.5773393 -0.000477 0.590699
-18.824474 0.46694136 -12.302637 -0.57732844 -0.57736105 0.5773612 0.356496 0.590699
-17.140568 2.150846 -12.302639 0.57732844 0.5773613 0.577361 0.674191 0.582262
-18.824474 0.46694136 -12.302637 -0.57732844 -0.57736105 0.5773612 0.993778 1.014589
-17.140568 0.46694136 -12.302637 0.5773721 -0.5773393 0.57733953 0.674191 1.014589
-9.798008 2.150846 -12.302639 0.57732844 0.5773613 0.577361 0.403573 0.589067
-11.4819145 2.150846 -13.986546 -0.57732844 0.57736105 -0.5773612 0.006583 0.016402
-11.4819145 2.150846 -12.302639 -0.5773721 0.57733953 0.5773393 0.403573 0.016402
-11.4819145 2.150846 -13.986546 -0.57732844 0.57736105 -0.5773612 0.665543 0.585119
-9.798008 0.46694136 -13.986544 0.57732844 -0.5773613 -0.577361 0.998519 0.996912
-11.4819145 0.46694136 -13.986544 -0.5773721 -0.57733953 -0.5773393 0.665543 0.996912
-9.798008 2.150846 -13.986546 0.5773721 0.5773393 -0.57733953 0.349794 1
-9.798008 0.46694136 -12.302637 0.5773721 -0.5773393 0.57733953 0.002223 0.598594
-9.798008 0.46694136 -13.986544 0.57732844 -0.5773613 -0.577361 0.349795 0.598594
-11.4819145 0.46694136 -12.302637 -0.57732844 -0.57736105 0.5773612 0.393437 0.584454
-9.798008 0.46694136 -13.986544 0.57732844 -0.5773613 -0.577361 0.012813 0.021014
-9.798008 0.46694136 -12.302637 0.5773721 -0.5773393 0.57733953 0.393437 0.021014
-11.4819145 2.150846 -12.302639 -0.5773721 0.57733953 0.5773393 0.356496 0.999145
-11.4819145 0.46694136 -13.986544 -0.5773721 -0.57733953 -0.5773393 -0.000477 0.590699
-11.4819145 0.46694136 -12.302637 -0.57732844 -0.57736105 0.5773612 0.356496 0.590699
-9.798008 2.150846 -12.302639 0.57732844 0.5773613 0.577361 0.674191 0.582262
-11.4819145 0.46694136 -12.302637 -0.57732844 -0.57736105 0.5773612 0.993778 1.014589
-9.798008 0.46694136 -12.302637 0.5773721 -0.5773393 0.57733953 0.674191 1.014589
-6.3768806 2.150846 -12.302639 0.57732844 0.5773613 0.577361 0.403573 0.589067
-8.060787 2.150846 -13.986546 -0.57732844 0.57736105 -0.5773612 0.006583 0.016402
-8.060787 2.150846 -12.302639 -0.5773721 0.57733953 0.5773393 0.403573 0.016402
-8.060787 2.150846 -13.986546 -0.57732844 0.57736105 -0.5773612 0.665543 0.585119
-6.3768806 0.46694136 -13.986544 0.57732844 -0.5773613 -0.577361 0.998519 0.996912
-8.060787 0.46694136 -13.986544 -0.5773721 -0.57733953 -0.5773393 0.665543 0.996912
-6.3768806 2.150846 -13.986546 0.5773721 0.5773393 -0.57733953 0.349794 1
-6.3768806 0.46694136 -12.302637 0.5773721 -0.5773393 0.57733953 0.002223 0.598594
-6.3768806 0.46694136 -13.986544 0.57732844 -0.5773613 -0.577361 0.349795 0.598594
-8.060787 0.46694136 -12.302637 -0.57732844 -0.57736105 0.5773612 0.393437 0.584454
-6.3768806 0.46694136 -13.986544 0.57732844 -0.5773613 -0.577361 0.012813 0.021014
-6.3768806 0.46694136 -12.302637 0.5773721 -0.5773393 0.57733953 0.393437 0.021014
-8.060787 2.150846 -12.302639 -0.5773721 0.57733953 0.5773393 0.356496 0.999145
-8.060787 0.46694136 -13.986544 -0.5773721 -0.57733953 -0.5773393 -0.000477 0.590699
-8.060787 0.46694136 -12.302637 -0.57732844 -0.57736105 0.5773612 0.356496 0.590699
-6.3768806 2.150846 -12.302639 0.57732844 0.5773613 0.577361 0.674191 0.582262
-8.060787 0.46694136 -12.302637 -0.57732844 -0.57736105 0.5773612 0.993778 1.014589
-6.3768806 0.46694136 -12.302637 0.5773721 -0.5773393 0.57733953 0.674191 1.014589
1.0888977 2.150846 -12.302639 0.57732844 0.5773613 0.577361 0.403573 0.589067
-0.59500885 2.150846 -13.986546 -0.57732844 0.57736105 -0.5773612 0.006583 0.016402
-0.59500885 2.150846 -12.302639 -0.5773721 0.57733953 0.5773393 0.403573 0.016402
-0.59500885 2.150846 -13.986546 -0.57732844 0.57736105 -0.5773612 0.665543 0.585119
1.0888977 0.46694136 -13.986544 0.57732844 -0.5773613 -0.577361 0.998519 0.996912
-0.59500885 0.46694136 -13.986544 -0.5773721 -0.57733953 -0.5773393 0.665543 0.996912
1.0888977 2.150846 -13.986546 0.5773721 0.5773393 -0.57733953 0.349794 1
1.0888977 0.46694136 -12.302637 0.5773721 -0.5773393 0.57733953 0.002223 0.598594
1.0888977 0.46694136 -13.986544 0.57732844 -0.5773613 -0.577361 0.349795 0.598594
-0.59500885 0.46694136 -12.302637 -0.57732844 -0.57736105 0.5773612 0.393437 0.584454
1.0888977 0.46694136 -13.986544 0.57732844 -0.5773613 -0.577361 0.012813 0.021014
1.0888977 0.46694136 -12.302637 0.5773721 -0.5773393 0.57733953 0.393437 0.021014
-0.59500885 2.150846 -12.302639 -0.5773721 0.57733953 0.5773393 0.356496 0.999145
-0.59500885 0.46694136 -13.986544 -0.5773721 -0.57733953 -0.5773393 -0.000477 0.590699
-0.59500885 0.46694136 -12.302637 -0.57732844 -0.57736105 0.5773612 0.356496 0.590699
1.0888977 2.150846 -12.302639 0.57732844 0.5773613 0.577361 0.674191 0.582262
-0.59500885 0.46694136 -12.302637 -0.57732844 -0.57736105 0.5773612 0.993778 1.014589
1.0888977 0.46694136 -12.302637 0.5773721 -0.5773393 0.57733953 0.674191 1.014589
4.8535576 2.150846 -12.302639 0.57732844 0.5773613 0.577361 0.403573 0.589067
3.169651 2.150846 -13.986546 -0.57732844 0.57736105 -0.5773612 0.006583 0.016402
3.169651 2.150846 -12.302639 -0.5773721 0.57733953 0.5773393 0.403573 0.016402
3.169651 2.150846 -13.986546 -0.57732844 0.57736105 -0.5773612 0.665543 0.585119
4.8535576 0.46694136 -13.986544 0.57732844 -0.5773613 -0.577361 0.998519 0.996912
3.169651 0.46694136 -13.986544 -0.5773721 -0.57733953 -0.5773393 0.665543 0.996912
4.8535576 2.150846 -13.986546 0.5773721 0.5773393 -0.57733953 0.349794 1
4.8535576 0.46694136 -12.302637 0.5773721 -0.5773393 0.57733953 0.002223 0.598594
4.8535576 0.46694136 -13.986544 0.57732844 -0.5773613 -0.577361 0.349795 0.598594
3.169651 0.46694136 -12.302637 -0.57732844 -0.57736105 0.5773612 0.393437 0.584454
4.8535576 0.46694136 -13.986544 0.57732844 -0.5773613 -0.577361 0.012813 0.021014
4.8535576 0.46694136 -12.302637 0.5773721 -0.5773393 0.57733953 0.393437 0.021014
3.169651 2.150846 -12.302639 -0.5773721 0.57733953 0.5773393 0.356496 0.999145
3.169651 0.46694136 -13.986544 -0.5773721 -0.57733953 -0.5773393 -0.000477 0.590699
3.169651 0.46694136 -12.302637 -0.57732844 -0.57736105 0.5773612 0.356496 0.590699
4.8535576 2.150846 -12.302639 0.57732844 0.5773613 0.577361 0.674191 0.582262
3.169651 0.46694136 -12.302637 -0.57732844 -0.57736105 0.5773612 0.993778 1.014589
4.8535576 0.46694136 -12.302637 0.5773721 -0.5773393 0.57733953 0.674191 1.014589
13.419167 2.150846 -12.302639 0.57732844 0.5773613 0.577361 0.403573 0.589067
11.73526 2.150846 -13.986546 -0.57732844 0.57736105 -0.5773612 0.006583 0.016402
11.73526 2.150846 -12.302639 -0.5773721 0.57733953 0.5773393 0.403573 0.016402
11.73526 2.150846 -13.986546 -0.57732844 0.57736105 -0.5773612 0.665543 0.585119
13.419167 0.46694136 -13.986544 0.57732844 -0.5773613 -0.577361 0.998519 0.996912
11.73526 0.46694136 -13.986544 -0.5773721 -0.57733953 -0.5773393 0.665543 0.996912
13.419167 2.150846 -13.986546 0.5773721 0.5773393 -0.57733953 0.349794 1
13.419167 0.46694136 -12.302637 0.5773721 -0.5773393 0.57733953 0.002223 0.598594
13.419167 0.46694136 -13.986544 0.57732844 -0.5773613 -0.577361 0.349795 0.598594
11.73526 0.46694136 -12.302637 -0.57732844 -0.57736105 0.5773612 0.393437 0.584454
13.419167 0.46694136 -13.986544 0.57732844 -0.5773613 -0.577361 0.012813 0.021014
13.419167 0.46694136 -12.302637 0.5773721 -0.5773393 0.57733953 0.393437 0.021014
11.73526 2.150846 -12.302639 -0.5773721 0.57733953 0.5773393 0.356496 0.999145
11.73526 0.46694136 -13.986544 -0.5773721 -0.57733953 -0.5773393 -0.000477 0.590699
11.73526 0.46694136 -12.302637 -0.57732844 -0.57736105 0.5773612 0.356496 0.590699
13.419167 2.150846 -12.302639 0.57732844 0.5773613 0.577361 0.674191 0.582262
11.73526 0.46694136 -12.302637 -0.57732844 -0.57736105 0.5773612 0.993778 1.014589
13.419167 0.46694136 -12.302637 0.5773721 -0.5773393 0.57733953 0.674191 1.014589
16.053371 2.150846 -12.302639 0.57732844 0.5773613 0.577361 0.403573 0.589067
14.369465 2.150846 -13.986546 -0.57732844 0.57736105 -0.5773612 0.006583 0.016402
14.369465 2.150846 -12.302639 -0.5773721 0.57733953 0.5773393 0.403573 0.016402
14.369465 2.150846 -13.986546 -0.57732844 0.57736105 -0.5773612 0.665543 0.585119
16.053371 0.46694136 -13.986544 0.57732844 -0.5773613 -0.577361 0.998519 0.996912
14.369465 0.46694136 -13.986544 -0.5773721 -0.57733953 -0.5773393 0.665543 0.996912
16.053371 2.150846 -13.986546 0.5773721 0.5773393 -0.57733953 0.349794 1
16.053371 0.46694136 -12.302637 0.5773721 -0.5773393 0.57733953 0.002223 0.598594
16.053371 0.46694136 -13.986544 0.57732844 -0.5773613 -0.577361 0.349795 0.598594
14.369465 0.46694136 -12.302637 -0.57732844 -0.57736105 0.5773612 0.393437 0.584454
16.053371 0.46694136 -13.986544 0.57732844 -0.5773613 -0.577361 0.012813 0.021014
16.053371 0.46694136 -12.302637 0.5773721 -0.5773393 0.57733953 0.393437 0.021014
14.369465 2.150846 -12.302639 -0.5773721 0.57733953 0.5773393 0.356496 0.999145
14.369465 0.46694136 -13.986544 -0.5773721 -0.57733953 -0.5773393 -0.000477 0.590699
14.369465 0.46694136 -12.302637 -0.57732844 -0.57736105 0.5773612 0.356496 0.590699
16.053371 2.150846 -12.302639 0.57732844 0.5773613 0.577361 0.674191 0.582262
14.369465 0.46694136 -12.302637 -0.57732844 -0.57736105 0.5773612 0.993778 1.014589
16.053371 0.46694136 -12.302637 0.5773721 -0.5773393 0.57733953 0.674191 1.014589
22.510902 2.150846 -12.302639 0.57732844 0.5773613 0.57736105 0.403573 0.589067
20.827 2.150846 -13.986546 -0.57732844 0.57736105 -0.5773613 0.006583 0.016402
20.827 2.150846 -12.302639 -0.5773721 0.57733953 0.5773393 0.403573 0.016402
20.827 2.150846 -13.986546 -0.57732844 0.57736105 -0.5773613 0.665543 0.585119
22.510902 0.46694136 -13.986544 0.57732844 -0.5773613 -0.57736105 0.998519 0.996912
20.827 0.46694136 -13.986544 -0.5773721 -0.57733953 -0.5773393 0.665543 0.996912
22.510902 2.150846 -13.986546 0.5773721 0.5773393 -0.57733953 0.349794 1
22.510902 0.46694136 -12.302637 0.5773721 -0.5773393 0.57733953 0.002223 0.598594
22.510902 0.46694136 -13.986544 0.57732844 -0.5773613 -0.57736105 0.349795 0.598594
20.827 0.46694136 -12.302637 -0.57732844 -0.57736105 0.5773613 0.393437 0.584454
22.510902 0.46694136 -13.986544 0.57732844 -0.5773613 -0.57736105 0.012813 0.021014
22.510902 0.46694136 -12.302637 0.5773721 -0.5773393 0.57733953 0.393437 0.021014
20.827 2.150846 -12.302639 -0.5773721 0.57733953 0.5773393 0.356496 0.999145
20.827 0.46694136 -13.986544 -0.5773721 -0.57733953 -0.5773393 -0.000477 0.590699
20.827 0.46694136 -12.302637 -0.57732844 -0.57736105 0.5773613 0.356496 0.590699
22.510902 2.150846 -12.302639 0.57732844 0.5773613 0.57736105 0.674191 0.582262
20.827 0.46694136 -12.302637 -0.57732844 -0.57736105 0.5773613 0.993778 1.014589
22.510902 0.46694136 -12.302637 0.5773721 -0.5773393 0.57733953 0.674191 1.014589
26.075615 2.150846 -12.302639 0.5773285 0.5773612 0.5773611 0.403573 0.589067
24.391716 2.150846 -13.986546 -0.5773285 0.577361 -0.57736135 0.006583 0.016402
24.391716 2.150846 -12.302639 -0.5773721 0.57733953 0.5773393 0.403573 0.016402
24.391716 2.150846 -13.986546 -0.5773285 0.577361 -0.57736135 0.665543 0.585119
26.075615 0.46694136 -13.986544 0.5773285 -0.5773612 -0.5773611 0.998519 0.996912
24.391716 0.46694136 -13.986544 -0.5773721 -0.57733953 -0.5773393 0.665543 0.996912
26.075615 2.150846 -13.986546 0.5773721 0.5773393 -0.57733953 0.349794 1
26.075615 0.46694136 -12.302637 0.5773721 -0.5773393 0.57733953 0.002223 0.598594
26.075615 0.46694136 -13.986544 0.5773285 -0.5773612 -0.5773611 0.349795 0.598594
24.391716 0.46694136 -12.302637 -0.5773285 -0.577361 0.57736135 0.393437 0.584454
26.075615 0.46694136 -13.986544 0.5773285 -0.5773612 -0.5773611 0.012813 0.021014
26.075615 0.46694136 -12.302637 0.5773721 -0.5773393 0.57733953 0.393437 0.021014
24.391716 2.150846 -12.302639 -0.5773721 0.57733953 0.5773393 0.356496 0.999145
24.391716 0.46694136 -13.986544 -0.5773721 -0.57733953 -0.5773393 -0.000477 0.590699
24.391716 0.46694136 -12.302637 -0.5773285 -0.577361 0.57736135 0.356496 0.590699
26.075615 2.150846 -12.302639 0.5773285 0.5773612 0.5773611 0.674191 0.582262
24.391716 0.46694136 -12.302637 -0.5773285 -0.577361 0.57736135 0.993778 1.014589
26.075615 0.46694136 -12.302637 0.5773721 -0.5773393 0.57733953 0.674191 1.014589
32.94162 2.1508465 -10.657314 0.5773285 0.5773612 0.5773611 0.403573 0.589067
31.25772 2.150846 -12.341221 -0.5773285 0.577361 -0.57736135 0.006583 0.016402
31.25772 2.1508465 -10.657314 -0.5773721 0.57733953 0.5773393 0.403573 0.016402
31.25772 2.150846 -12.341221 -0.5773285 0.577361 -0.57736135 0.665543 0.585119
32.94162 0.46694136 -12.341219 0.5773285 -0.5773612 -0.5773611 0.998519 0.996912
31.25772 0.46694136 -12.341219 -0.5773721 -0.57733953 -0.5773393 0.665543 0.996912
32.94162 2.150846 -12.341221 0.5773721 0.5773393 -0.57733953 0.349794 1
32.94162 0.46694183 -10.657312 0.5773721 -0.5773393 0.57733953 0.002223 0.598594
32.94162 0.46694136 -12.341219 0.5773285 -0.5773612 -0.5773611 0.349795 0.598594
31.25772 0.46694183 -10.657312 -0.5773285 -0.577361 0.57736135 0.393437 0.584454
32.94162 0.46694136 -12.341219 0.5773285 -0.5773612 -0.5773611 0.012813 0.021014
32.94162 0.46694183 -10.657312 0.5773721 -0.5773393 0.57733953 0.393437 0.021014
31.25772 2.1508465 -10.657314 -0.5773721 0.57733953 0.5773393 0.356496 0.999145
31.25772 0.46694136 -12.341219 -0.5773721 -0.57733953 -0.5773393 -0.000477 0.590699
31.25772 0.46694183 -10.657312 -0.5773285 -0.577361 0.57736135 0.356496 0.590699
32.94162 2.1508465 -10.657314 0.5773285 0.5773612 0.5773611 0.674191 0.582262
31.25772 0.46694183 -10.657312 -0.5773285 -0.577361 0.57736135 0.993778 1.014589
32.94162 0.46694183 -10.657312 0.5773721 -0.5773393 0.57733953 0.674191 1.014589
37.373154 2.1508465 -10.657314 0.5773285 0.5773612 0.5773611 0.403573 0.589067
35.689255 2.150846 -12.341221 -0.5773285 0.577361 -0.57736135 0.006583 0.016402
35.689255 2.1508465 -10.657314 -0.5773721 0.57733953 0.5773393 0.403573 0.016402
35.689255 2.150846 -12.341221 -0.5773285 0.577361 -0.57736135 0.665543 0.585119
37.373154 0.46694136 -12.341219 0.5773285 -0.5773612 -0.5773611 0.998519 0.996912
35.689255 0.46694136 -12.341219 -0.5773721 -0.57733953 -0.5773393 0.665543 0.996912
37.373154 2.150846 -12.341221 0.5773721 0.5773393 -0.57733953 0.349794 1
37.373154 0.46694183 -10.657312 0.5773721 -0.5773393 0.57733953 0.002223 0.598594
37.373154 0.46694136 -12.341219 0.5773285 -0.5773612 -0.5773611 0.349795 0.598594
35.689255 0.46694183 -10.657312 -0.5773285 -0.577361 0.57736135 0.393437 0.584454
37.373154 0.46694136 -12.341219 0.5773285 -0.5773612 -0.5773611 0.012813 0.021014
37.373154 0.46694183 -10.657312 0.5773721 -0.5773393 0.57733953 0.393437 0.021014
35.689255 2.1508465 -10.657314 -0.5773721 0.57733953 0.5773393 0.356496 0.999145
35.689255 0.46694136 -12.341219 -0.5773721 -0.57733953 -0.5773393 -0.000477 0.590699
35.689255 0.46694183 -10.657312 -0.5773285 -0.577361 0.57736135 0.356496 0.590699
37.373154 2.1508465 -10.657314 0.5773285 0.5773612 0.5773611 0.674191 0.582262
35.689255 0.46694183 -10.657312 -0.5773285 -0.577361 0.57736135 0.993778 1.014589
37.373154 0.46694183 -10.657312 0.5773721 -0.5773393 0.57733953 0.674191 1.014589
46.723274 2.1508465 -10.657314 0.5773285 0.5773612 0.5773611 0.403573 0.589067
45.039375 2.150846 -12.341221 -0.5773285 0.577361 -0.57736135 0.006583 0.016402
45.039375 2.1508465 -10.657314 -0.5773721 0.57733953 0.5773393 0.403573 0.016402
45.039375 2.150846 -12.341221 -0.5773285 0.577361 -0.57736135 0.665543 0.585119
46.723274 0.46694136 -12.341219 0.5773285 -0.5773612 -0.5773611 0.998519 0.996912
45.039375 0.46694136 -12.341219 -0.5773721 -0.57733953 -0.5773393 0.665543 0.996912
46.723274 2.150846 -12.341221 0.5773721 0.5773393 -0.57733953 0.349794 1
46.723274 0.46694183 -10.657312 0.5773721 -0.5773393 0.57733953 0.002223 0.598594
46.723274 0.46694136 -12.341219 0.5773285 -0.5773612 -0.5773611 0.349795 0.598594
45.039375 0.46694183 -10.657312 -0.5773285 -0.577361 0.57736135 0.393437 0.584454
46.723274 0.46694136 -12.341219 0.5773285 -0.5773612 -0.5773611 0.012813 0.021014
46.723274 0.46694183 -10.657312 0.5773721 -0.5773393 0.57733953 0.393437 0.021014
45.039375 2.1508465 -10.657314 -0.5773721 0.57733953 0.5773393 0.356496 0.999145
45.039375 0.46694136 -12.341219 -0.5773721 -0.57733953 -0.5773393 -0.000477 0.590699
45.039375 0.46694183 -10.657312 -0.5773285 -0.577361 0.57736135 0.356496 0.590699
46.723274 2.1508465 -10.657314 0.5773285 0.5773612 0.5773611 0.674191 0.582262
45.039375 0.46694183 -10.657312 -0.5773285 -0.577361 0.57736135 0.993778 1.014589
46.723274 0.46694183 -10.657312 0.5773721 -0.5773393 0.57733953 0.674191 1.014589
51.562233 2.1508465 -4.709482 0.5773285 0.5773612 0.5773611 0.403573 0.589067
49.878334 2.150846 -6.3933887 -0.5773285 0.577361 -0.57736135 0.006583 0.016402
49.878334 2.1508465 -4.709482 -0.5773721 0.57733953 0.5773393 0.403573 0.016402
49.878334 2.150846 -6.3933887 -0.5773285 0.577361 -0.57736135 0.665543 0.585119
51.562233 0.46694136 -6.393387 0.5773285 -0.5773612 -0.5773611 0.998519 0.996912
49.878334 0.46694136 -6.393387 -0.5773721 -0.57733953 -0.5773393 0.665543 0.996912
51.562233 2.150846 -6.3933887 0.5773721 0.5773393 -0.57733953 0.349794 1
51.562233 0.46694183 -4.7094803 0.5773721 -0.5773393 0.57733953 0.002223 0.598594
51.562233 0.46694136 -6.393387 0.5773285 -0.5773612 -0.5773611 0.349795 0.598594
49.878334 0.46694183 -4.7094803 -0.5773285 -0.577361 0.57736135 0.393437 0.584454
51.562233 0.46694136 -6.393387 0.5773285 -0.5773612 -0.5773611 0.012813 0.021014
51.562233 0.46694183 -4.7094803 0.5773721 -0.5773393 0.57733953 0.393437 0.021014
49.878334 2.1508465 -4.709482 -0.5773721 0.57733953 0.5773393 0.356496 0.999145
49.878334 0.46694136 -6.393387 -0.5773721 -0.57733953 -0.5773393 -0.000477 0.590699
49.878334 0.46694183 -4.7094803 -0.5773285 -0.577361 0.57736135 0.356496 0.590699
51.562233 2.1508465 -4.709482 0.5773285 0.5773612 0.5773611 0.674191 0.582262
49.878334 0.46694183 -4.7094803 -0.5773285 -0.577361 0.57736135 0.993778 1.014589
51.562233 0.46694183 -4.7094803 0.5773721 -0.5773393 0.57733953 0.674191 1.014589
51.562233 2.1508465 -7.4414177 0.5773285 0.5773612 0.5773611 0.403573 0.589067
49.878334 2.150846 -9.125324 -0.5773285 0.577361 -0.57736135 0.006583 0.016402
49.878334 2.1508465 -7.4414177 -0.5773721 0.57733953 0.5773393 0.403573 0.016402
49.878334 2.150846 -9.125324 -0.5773285 0.577361 -0.57736135 0.665543 0.585119
51.562233 0.46694136 -9.125322 0.5773285 -0.5773612 -0.5773611 0.998519 0.996912
49.878334 0.46694136 -9.125322 -0.5773721 -0.57733953 -0.5773393 0.665543 0.996912
51.562233 2.150846 -9.125324 0.5773721 0.5773393 -0.57733953 0.349794 1
51.562233 0.46694183 -7.441416 0.5773721 -0.5773393 0.57733953 0.002223 0.598594
51.562233 0.46694136 -9.125322 0.5773285 -0.5773612 -0.5773611 0.349795 0.598594
49.878334 0.46694183 -7.441416 -0.5773285 -0.577361 0.57736135 0.393437 0.584454
51.562233 0.46694136 -9.125322 0.5773285 -0.5773612 -0.5773611 0.012813 0.021014
51.562233 0.46694183 -7.441416 0.5773721 -0.5773393 0.57733953 0.393437 0.021014
49.878334 2.1508465 -7.4414177 -0.5773721 0.57733953 0.5773393 0.356496 0.999145
49.878334 0.46694136 -9.125322 -0.5773721 -0.57733953 -0.5773393 -0.000477 0.590699
49.878334 0.46694183 -7.441416 -0.5773285 -0.577361 0.57736135 0.356496 0.590699
51.562233 2.1508465 -7.4414177 0.5773285 0.5773612 0.5773611 0.674191 0.582262
49.878334 0.46694183 -7.441416 -0.5773285 -0.577361 0.57736135 0.993778 1.014589
51.562233 0.46694183 -7.441416 0.5773721 -0.5773393 0.57733953 0.674191 1.014589
61.11892 2.1508465 -10.470322 0.5773285 0.5773612 0.5773611 0.403573 0.589067
59.43502 2.150846 -12.154228 -0.5773285 0.577361 -0.57736135 0.006583 0.016402
59.43502 2.1508465 -10.470322 -0.5773721 0.57733953 0.5773393 0.403573 0.016402
59.43502 2.150846 -12.154228 -0.5773285 0.577361 -0.57736135 0.665543 0.585119
61.11892 0.46694136 -12.154226 0.5773285 -0.5773612 -0.5773611 0.998519 0.996912
59.43502 0.46694136 -12.154226 -0.5773721 -0.57733953 -0.5773393 0.665543 0.996912
61.11892 2.150846 -12.154228 0.5773721 0.5773393 -0.57733953 0.349794 1
61.11892 0.46694183 -10.47032 0.5773721 -0.5773393 0.57733953 0.002223 0.598594
61.11892 0.46694136 -12.154226 0.5773285 -0.5773612 -0.5773611 0.349795 0.598594
59.43502 0.46694183 -10.47032 -0.5773285 -0.577361 0.57736135 0.393437 0.584454
61.11892 0.46694136 -12.154226 0.5773285 -0.5773612 -0.5773611 0.012813 0.021014
61.11892 0.46694183 -10.47032 0.5773721 -0.5773393 0.57733953 0.393437 0.021014
59.43502 2.1508465 -10.470322 -0.5773721 0.57733953 0.5773393 0.356496 0.999145
59.43502 0.46694136 -12.154226 -0.5773721 -0.57733953 -0.5773393 -0.000477 0.590699
59.43502 0.46694183 -10.47032 -0.5773285 -0.577361 0.57736135 0.356496 0.590699
61.11892 2.1508465 -10.470322 0.5773285 0.5773612 0.5773611 0.674191 0.582262
59.43502 0.46694183 -10.47032 -0.5773285 -0.577361 0.57736135 0.993778 1.014589
61.11892 0.46694183 -10.47032 0.5773721 -0.5773393 0.57733953 0.674191 1.014589
57.266792 2.1508465 -12.154228 0.57734036 0.57737154 -0.577339 0.403573 0.589067
55.582893 2.1508465 -10.470322 -0.5773503 0.5773503 0.57735014 0.006583 0.016402
57.266792 2.1508465 -10.470322 0.5773721 0.5773395 0.57733923 0.403573 0.016402
55.582893 2.1508465 -10.470322 -0.5773503 0.5773503 0.57735014 0.665543 0.585119
55.582893 0.46694136 -12.154226 -0.57736117 -0.5773613 -0.5773284 0.998519 0.996912
55.582893 0.46694136 -10.47032 -0.5773501 -0.57735026 0.5773504 0.665543 0.996912
55.582893 2.150846 -12.154228 -0.5773389 0.5773394 -0.57737243 0.349794 1
57.266792 0.46694136 -12.154226 0.57736164 -0.5773283 -0.5773608 0.002223 0.598594
55.582893 0.46694136 -12.154226 -0.57736117 -0.5773613 -0.5773284 0.349795 0.598594
57.266792 0.46694183 -10.47032 0.5773285 -0.5773609 0.57736135 0.393437 0.584454
55.582893 0.46694136 -12.154226 -0.57736117 -0.5773613 -0.5773284 0.012813 0.021014
57.266792 0.46694136 -12.154226 0.57736164 -0.5773283 -0.5773608 0.393437 0.021014
57.266792 0.46694183 -10.47032 0.5773285 -0.5773609 0.57736135 0.356496 0.590699
55.582893 2.1508465 -10.470322 -0.5773503 0.5773503 0.57735014 -0.000477 0.999145
55.582893 0.46694136 -10.47032 -0.5773501 -0.57735026 0.5773504 -0.000477 0.590699
57.266792 0.46694136 -12.154226 0.57736164 -0.5773283 -0.5773608 0.674191 1.014589
57.266792 2.1508465 -10.470322 0.5773721 0.5773395 0.57733923 0.993778 0.582262
57.266792 0.46694183 -10.47032 0.5773285 -0.5773609 0.57736135 0.993778 1.014589
-54.523106 2.1508465 5.860862 0.57732844 0.5773613 0.577361 0.403573 0.589067
-56.207012 2.150846 4.176955 -0.57732844 0.57736105 -0.5773612 0.006583 0.016402
-56.207012 2.1508465 5.860862 -0.5773721 0.57733953 0.5773393 0.403573 0.016402
-56.207012 2.150846 4.176955 -0.57732844 0.57736105 -0.5773612 0.665543 0.585119
-54.523106 0.46694136 4.176955 0.57732844 -0.5773613 -0.577361 0.998519 0.996912
-56.207012 0.46694136 4.176955 -0.5773721 -0.57733953 -0.5773393 0.665543 0.996912
-54.523106 2.150846 4.176955 0.5773721 0.5773393 -0.57733953 0.349794 1
-54.523106 0.46694183 5.860862 0.5773721 -0.5773393 0.57733953 0.002223 0.598594
-54.523106 0.46694136 4.176955 0.57732844 -0.5773613 -0.577361 0.349795 0.598594
-56.207012 0.46694183 5.860862 -0.57732844 -0.57736105 0.5773612 0.393437 0.584454
-54.523106 0.46694136 4.176955 0.57732844 -0.5773613 -0.577361 0.012813 0.021014
-54.523106 0.46694183 5.860862 0.5773721 -0.5773393 0.57733953 0.393437 0.021014
-56.207012 2.1508465 5.860862 -0.5773721 0.57733953 0.5773393 0.356496 0.999145
-56.207012 0.46694136 4.176955 -0.5773721 -0.57733953 -0.5773393 -0.000477 0.590699
-56.207012 0.46694183 5.860862 -0.57732844 -0.57736105 0.5773612 0.356496 0.590699
-54.523106 2.1508465 5.860862 0.57732844 0.5773613 0.577361 0.674191 0.582262
-56.207012 0.46694183 5.860862 -0.57732844 -0.57736105 0.5773612 0.993778 1.014589
-54.523106 0.46694183 5.860862 0.5773721 -0.5773393 0.57733953 0.674191 1.014589
-17.05656 5.505979 23.84413 0.5773285 0.5773613 0.57736105 0.985437 0.985437
-22.100513 5.505978 18.800175 -0.5773285 0.57736105 -0.5773613 0.014563 0.014563
-22.100513 5.505979 23.84413 -0.57737213 0.57733953 0.57733923 0.985437 0.014563
-17.05656 0.46202374 18.800175 0.5773285 -0.5773613 -0.57736105 0.985437 0.985437
-22.100513 0.46202374 18.800175 -0.5773721 -0.5773395 -0.57733923 0.014563 0.985437
-17.05656 5.505978 18.800175 0.57737213 0.5773393 -0.5773395 0.014563 0.014563
-17.05656 0.4620247 23.84413 0.5773721 -0.57733923 0.5773395 0.985437 0.985437
-17.05656 0.46202374 18.800175 0.5773285 -0.5773613 -0.57736105 0.014563 0.985437
-22.100513 0.4620247 23.84413 -0.5773285 -0.57736105 0.5773613 0.014563 0.985437
-17.05656 0.46202374 18.800175 0.5773285 -0.5773613 -0.57736105 0.985437 0.014563
-22.100513 5.505979 23.84413 -0.57737213 0.57733953 0.57733923 0.014563 0.014563
-22.100513 0.46202374 18.800175 -0.5773721 -0.5773395 -0.57733923 0.985437 0.985437
-17.05656 5.505979 23.84413 0.5773285 0.5773613 0.57736105 0.014563 0.014563
-22.100513 0.4620247 23.84413 -0.5773285 -0.57736105 0.5773613 0.985437 0.985437
-17.05656 0.4620247 23.84413 0.5773721 -0.57733923 0.5773395 0.014563 0.985437
-49.498245 8.939 -14.0568695 0.5773639 0.5773436 0.57734334 0.403573 0.589067
-52.977448 8.939 -15.740776 -0.5773639 0.57734334 -0.5773436 0.006583 0.016402
-52.977448 8.939 -14.0568695 -0.5773721 0.57733953 0.5773393 0.403573 0.016402
-52.977448 8.939 -15.740776 -0.5773639 0.57734334 -0.5773436 1.010624 0.996912
-49.498245 7.255095 -15.740776 0.5773639 -0.5773436 -0.57734334 0.340299 0.585119
-52.977448 7.255095 -15.740776 -0.5773721 -0.57733953 -0.5773393 1.010623 0.585119
-49.498245 8.939 -15.740776 0.5773721 0.5773393 -0.57733953 0.681536 1.001269
-49.498245 7.255095 -14.0568695 0.5773721 -0.5773393 0.57733953 0.333965 0.584923
-49.498245 7.255095 -15.740776 0.5773639 -0.5773436 -0.57734334 0.681536 0.584923
-52.977448 7.255095 -14.0568695 -0.5773639 -0.57734334 0.5773436 0.393437 0.584454
-49.498245 7.255095 -15.740776 0.5773639 -0.5773436 -0.57734334 0.012813 0.021014
-49.498245 7.255095 -14.0568695 0.5773721 -0.5773393 0.57733953 0.393437 0.021014
-52.977448 8.939 -14.0568695 -0.5773721 0.57733953 0.5773393 0.356496 0.999145
-52.977448 7.255095 -15.740776 -0.5773721 -0.57733953 -0.5773393 -0.000477 0.590699
-52.977448 7.255095 -14.0568695 -0.5773639 -0.57734334 0.5773436 0.356496 0.590699
-49.498245 8.939 -14.0568695 0.5773639 0.5773436 0.57734334 0.347738 1.003778
-52.977448 7.255095 -14.0568695 -0.5773639 -0.57734334 0.5773436 1.007092 0.583771
-49.498245 7.255095 -14.0568695 0.5773721 -0.5773393 0.57733953 0.347738 0.583771
-71.455574 8.939 -3.5647964 0.5773639 0.5773436 0.57734334 0.403573 0.589067
-74.93478 8.939 -5.248703 -0.5773639 0.57734334 -0.5773436 0.006583 0.016402
-74.93478 8.939 -3.5647964 -0.5773721 0.57733953 0.5773393 0.403573 0.016402
-74.93478 8.939 -5.248703 -0.5773639 0.57734334 -0.5773436 1.010624 0.996912
-71.455574 7.255095 -5.248703 0.5773639 -0.5773436 -0.57734334 0.340299 0.585119
-74.93478 7.255095 -5.248703 -0.5773721 -0.57733953 -0.5773393 1.010623 0.585119
-71.455574 8.939 -5.248703 0.5773721 0.5773393 -0.57733953 0.681536 1.001269
-71.455574 7.255095 -3.5647964 0.5773721 -0.5773393 0.57733953 0.333965 0.584923
-71.455574 7.255095 -5.248703 0.5773639 -0.5773436 -0.57734334 0.681536 0.584923
-74.93478 7.255095 -3.5647964 -0.5773639 -0.57734334 0.5773436 0.393437 0.584454
-71.455574 7.255095 -5.248703 0.5773639 -0.5773436 -0.57734334 0.012813 0.021014
-71.455574 7.255095 -3.5647964 0.5773721 -0.5773393 0.57733953 0.393437 0.021014
-74.93478 8.939 -3.5647964 -0.5773721 0.57733953 0.5773393 0.356496 0.999145
-74.93478 7.255095 -5.248703 -0.5773721 -0.57733953 -0.5773393 -0.000477 0.590699
-74.93478 7.255095 -3.5647964 -0.5773639 -0.57734334 0.5773436 0.356496 0.590699
-71.455574 8.939 -3.5647964 0.5773639 0.5773436 0.57734334 0.347738 1.003778
-74.93478 7.255095 -3.5647964 -0.5773639 -0.57734334 0.5773436 1.007092 0.583771
-71.455574 7.255095 -3.5647964 0.5773721 -0.5773393 0.57733953 0.347738 0.583771
-71.16191 8.939 6.028328 0.57734346 0.5773437 -0.5773636 0.403573 0.589067
-72.84581 8.939 9.50753 -0.57734615 0.57732576 0.5773788 0.006583 0.016402
-71.16191 8.939 9.50753 0.57735 0.57735044 0.57735026 0.403573 0.016402
-72.84581 7.255095 9.50753 -0.57733643 -0.57735705 0.5773573 1.010623 0.585119
-72.84581 8.939 6.028328 -0.5773255 0.57734674 -0.5773785 0.340299 0.996912
-72.84581 7.255095 6.028326 -0.57735693 -0.57733613 -0.57735777 0.340299 0.585119
-72.84581 8.939 6.028328 -0.5773255 0.57734674 -0.5773785 0.681536 1.001269
-71.16191 7.255095 6.028326 0.57733953 -0.57733905 -0.57737225 0.333965 0.584923
-72.84581 7.255095 6.028326 -0.57735693 -0.57733613 -0.57735777 0.681536 0.584923
-71.16191 7.255095 9.50753 0.5773327 -0.57733244 0.5773857 0.393437 0.584454
-72.84581 7.255095 6.028326 -0.57735693 -0.57733613 -0.57735777 0.012813 0.021014
-71.16191 7.255095 6.028326 0.57733953 -0.57733905 -0.57737225 0.393437 0.021014
-71.16191 7.255095 9.50753 0.5773327 -0.57733244 0.5773857 0.356496 0.590699
-72.84581 8.939 9.50753 -0.57734615 0.57732576 0.5773788 -0.000477 0.999145
-72.84581 7.255095 9.50753 -0.57733643 -0.57735705 0.5773573 -0.000477 0.590699
-71.16191 8.939 6.028328 0.57734346 0.5773437 -0.5773636 0.347738 1.003778
-71.16191 7.255095 9.50753 0.5773327 -0.57733244 0.5773857 1.007092 0.583771
-71.16191 7.255095 6.028326 0.57733953 -0.57733905 -0.57737225 0.347738 0.583771
-53.754185 8.939 19.506458 0.577346 0.5773257 -0.57737917 0.403573 0.589067
-55.43809 8.939 22.98566 -0.5773325 0.5773327 0.57738566 0.006583 0.016402
-53.754185 8.939 22.98566 0.5773366 0.5773572 0.57735705 0.403573 0.016402
-55.43809 8.939 22.98566 -0.5773325 0.5773327 0.57738566 1.010624 0.996912
-55.43809 7.255095 19.506458 -0.5773325 -0.57733274 -0.5773856 0.340299 0.585119
-55.43809 7.255095 22.98566 -0.5773499 -0.57735044 0.5773505 1.010623 0.585119
-55.43809 7.255095 19.506458 -0.5773325 -0.57733274 -0.5773856 0.681536 0.584923
-53.754185 8.939 19.506458 0.577346 0.5773257 -0.57737917 0.333965 1.001269
-53.754185 7.255095 19.506458 0.5773367 -0.5773571 -0.57735693 0.333965 0.584923
-53.754185 7.255095 22.98566 0.5773463 -0.5773255 0.57737887 0.393437 0.584454
-55.43809 7.255095 19.506458 -0.5773325 -0.57733274 -0.5773856 0.012813 0.021014
-53.754185 7.255095 19.506458 0.5773367 -0.5773571 -0.57735693 0.393437 0.021014
-53.754185 7.255095 22.98566 0.5773463 -0.5773255 0.57737887 0.356496 0.590699
-55.43809 8.939 22.98566 -0.5773325 0.5773327 0.57738566 -0.000477 0.999145
-55.43809 7.255095 22.98566 -0.5773499 -0.57735044 0.5773505 -0.000477 0.590699
-53.754185 7.255095 19.506458 0.5773367 -0.5773571 -0.57735693 0.347738 0.583771
-53.754185 8.939 22.98566 0.5773366 0.5773572 0.57735705 1.007092 1.003778
-53.754185 7.255095 22.98566 0.5773463 -0.5773255 0.57737887 1.007092 0.583771
-11.282902 2.1223044 7.9040422 0.57734346 0.57734364 -0.57736355 0.403573 0.589067
-12.966808 2.122304 11.3832445 -0.5773464 0.5773257 0.5773787 0.006583 0.016402
-11.282902 2.1223044 11.3832445 0.5773501 0.5773505 0.57735014 0.403573 0.016402
-12.966808 0.4383993 11.3832445 -0.5773367 -0.57735693 0.5773572 1.010623 0.585119
-12.966808 2.1223044 7.9040422 -0.57732564 0.5773468 -0.5773784 0.340299 0.996912
-12.966808 0.4383993 7.9040403 -0.57735723 -0.5773361 -0.57735753 0.340299 0.585119
-12.966808 2.1223044 7.9040422 -0.57732564 0.5773468 -0.5773784 0.681536 1.001269
-11.282902 0.4383998 7.9040403 0.5773395 -0.5773391 -0.5773722 0.333965 0.584923
-12.966808 0.4383993 7.9040403 -0.57735723 -0.5773361 -0.57735753 0.681536 0.584923
-11.282902 0.4383993 11.3832445 0.5773325 -0.5773325 0.5773857 0.393437 0.584454
-12.966808 0.4383993 7.9040403 -0.57735723 -0.5773361 -0.57735753 0.012813 0.021014
-11.282902 0.4383998 7.9040403 0.5773395 -0.5773391 -0.5773722 0.393437 0.021014
-11.282902 0.4383993 11.3832445 0.5773325 -0.5773325 0.5773857 0.356496 0.590699
-12.966808 2.122304 11.3832445 -0.5773464 0.5773257 0.5773787 -0.000477 0.999145
-12.966808 0.4383993 11.3832445 -0.5773367 -0.57735693 0.5773572 -0.000477 0.590699
-11.282902 2.1223044 7.9040422 0.57734346 0.57734364 -0.57736355 0.347738 1.003778
-11.282902 0.4383993 11.3832445 0.5773325 -0.5773325 0.5773857 1.007092 0.583771
-11.282902 0.4383998 7.9040403 0.5773395 -0.5773391 -0.5773722 0.347738 0.583771
6.195381 2.1223044 8.069976 -0.57736367 0.5773442 -0.5773429 0.403573 0.589067
9.674583 2.1223044 9.7538805 0.57738566 0.57733256 0.5773326 0.006583 0.016402
9.674583 2.1223044 8.069974 0.57735026 0.57735026 -0.5773503 0.403573 0.016402
9.674583 2.1223044 9.7538805 0.57738566 0.57733256 0.5773326 1.010624 0.996912
6.195381 0.4383993 9.7538805 -0.57736385 -0.5773434 0.5773436 0.340299 0.585119
9.674583 0.4383993 9.7538805 0.5773504 -0.5773504 0.57735014 1.010623 0.585119
6.195381 2.1223044 9.7538805 -0.57737195 0.57733977 0.5773391 0.681536 1.001269
6.195381 0.4383993 8.069974 -0.57737213 -0.57733893 -0.5773397 0.333965 0.584923
6.195381 0.4383993 9.7538805 -0.57736385 -0.5773434 0.5773436 0.681536 0.584923
9.674583 0.4383993 8.069974 0.5773856 -0.5773325 -0.57733274 0.393437 0.584454
6.195381 0.4383993 9.7538805 -0.57736385 -0.5773434 0.5773436 0.012813 0.021014
6.195381 0.4383993 8.069974 -0.57737213 -0.57733893 -0.5773397 0.393437 0.021014
9.674583 0.4383993 8.069974 0.5773856 -0.5773325 -0.57733274 0.356496 0.590699
9.674583 2.1223044 9.7538805 0.57738566 0.57733256 0.5773326 -0.000477 0.999145
9.674583 0.4383993 9.7538805 0.5773504 -0.5773504 0.57735014 -0.000477 0.590699
6.195381 2.1223044 8.069976 -0.57736367 0.5773442 -0.5773429 0.347738 1.003778
9.674583 0.4383993 8.069974 0.5773856 -0.5773325 -0.57733274 1.007092 0.583771
6.195381 0.4383993 8.069974 -0.57737213 -0.57733893 -0.5773397 0.347738 0.583771
30.059685 2.122305 9.015307 -0.5773637 0.5773441 -0.577343 0.403573 0.589067
33.538887 2.1223044 10.699212 0.57738566 0.57733256 0.5773326 0.006583 0.016402
33.538887 2.122305 9.0153055 0.5773501 0.5773503 -0.5773504 0.403573 0.016402
33.538887 2.1223044 10.699212 0.57738566 0.57733256 0.5773326 1.010624 0.996912
30.059685 0.4383993 10.699212 -0.57736385 -0.5773434 0.5773436 0.340299 0.585119
33.538887 0.4383993 10.699212 0.5773504 -0.5773504 0.57735014 1.010623 0.585119
30.059685 2.1223044 10.699212 -0.57737195 0.5773397 0.5773391 0.681536 1.001269
30.059685 0.4383998 9.0153055 -0.5773721 -0.57733893 -0.5773397 0.333965 0.584923
30.059685 0.4383993 10.699212 -0.57736385 -0.5773434 0.5773436 0.681536 0.584923
33.538887 0.4383998 9.0153055 0.57738554 -0.57733256 -0.5773328 0.393437 0.584454
30.059685 0.4383993 10.699212 -0.57736385 -0.5773434 0.5773436 0.012813 0.021014
30.059685 0.4383998 9.0153055 -0.5773721 -0.57733893 -0.5773397 0.393437 0.021014
33.538887 0.4383998 9.0153055 0.57738554 -0.57733256 -0.5773328 0.356496 0.590699
33.538887 2.1223044 10.699212 0.57738566 0.57733256 0.5773326 -0.000477 0.999145
33.538887 0.4383993 10.699212 0.5773504 -0.5773504 0.57735014 -0.000477 0.590699
30.059685 2.122305 9.015307 -0.5773637 0.5773441 -0.577343 0.347738 1.003778
33.538887 0.4383998 9.0153055 0.57738554 -0.57733256 -0.5773328 1.007092 0.583771
30.059685 0.4383998 9.0153055 -0.5773721 -0.57733893 -0.5773397 0.347738 0.583771
48.544907 2.1223044 5.5913 -0.5773632 0.5773455 -0.5773422 0.403573 0.589067
52.02411 2.1223044 7.2752047 0.57738566 0.5773326 0.5773325 0.006583 0.016402
52.02411 2.1223044 5.591298 0.57735 0.5773502 -0.5773506 0.403573 0.016402
52.02411 2.1223044 7.2752047 0.57738566 0.5773326 0.5773325 1.010624 0.996912
48.544907 0.4383993 7.2752047 -0.5773639 -0.57734346 0.57734346 0.340299 0.585119
52.02411 0.4383993 7.2752047 0.5773502 -0.5773502 0.57735044 1.010623 0.585119
48.544907 2.1223044 7.2752047 -0.57737154 0.57734025 0.57733905 0.681536 1.001269
48.544907 0.4383993 5.591298 -0.5773724 -0.5773382 -0.5773403 0.333965 0.584923
48.544907 0.4383993 7.2752047 -0.5773639 -0.57734346 0.57734346 0.681536 0.584923
52.02411 0.4383993 5.591298 0.5773856 -0.5773326 -0.5773326 0.393437 0.584454
48.544907 0.4383993 7.2752047 -0.5773639 -0.57734346 0.57734346 0.012813 0.021014
48.544907 0.4383993 5.591298 -0.5773724 -0.5773382 -0.5773403 0.393437 0.021014
52.02411 0.4383993 5.591298 0.5773856 -0.5773326 -0.5773326 0.356496 0.590699
52.02411 2.1223044 7.2752047 0.57738566 0.5773326 0.5773325 -0.000477 0.999145
52.02411 0.4383993 7.2752047 0.5773502 -0.5773502 0.57735044 -0.000477 0.590699
48.544907 2.1223044 5.5913 -0.5773632 0.5773455 -0.5773422 0.347738 1.003778
52.02411 0.4383993 5.591298 0.5773856 -0.5773326 -0.5773326 1.007092 0.583771
48.544907 0.4383993 5.591298 -0.5773724 -0.5773382 -0.5773403 0.347738 0.583771
-41.295647 10.275667 14.57023 0.5773721 0.5773393 -0.5773395 0.014563 0.985437
-41.295647 10.275667 14.57023 0.5773721 0.5773393 -0.5773395 0.985437 0.014563
-41.295647 10.275667 17.566534 0.5773285 0.57736135 0.577361 0.985437 0.014563
-44.291954 7.279363 14.5702305 -0.5773721 -0.57733953 -0.5773393 0.014563 0.014563
-44.291954 10.275667 14.57023 -0.5773285 0.5773611 -0.5773612 0.985437 0.014563
-37.233177 10.275667 14.57023 0.5773721 0.57733923 -0.5773395 0.014563 0.985437
-37.233177 10.275667 14.57023 0.5773721 0.57733923 -0.5773395 0.985437 0.014563
-37.233177 10.275667 17.566534 0.5773285 0.5773612 0.5773611 0.985437 0.014563
-40.229485 7.279363 14.5702305 -0.5773721 -0.57733953 -0.5773393 0.014563 0.014563
-40.229485 10.275667 14.57023 -0.5773285 0.577361 -0.57736135 0.985437 0.014563
-37.233177 10.275667 22.798883 0.57737213 0.57733923 -0.57733953 0.014563 0.985437
-37.233177 10.275667 22.798883 0.57737213 0.57733923 -0.57733953 0.985437 0.014563
-37.233177 10.275667 25.795185 0.57732844 0.57736135 0.5773611 0.985437 0.014563
-40.229485 7.279363 22.798883 -0.57737213 -0.5773395 -0.57733923 0.014563 0.014563
-40.229485 10.275667 22.798883 -0.57732844 0.5773611 -0.57736135 0.985437 0.014563
-43.79683 10.275667 22.798883 0.57737213 0.57733923 -0.57733953 0.014563 0.985437
-43.79683 10.275667 22.798883 0.57737213 0.57733923 -0.57733953 0.985437 0.014563
-43.79683 10.275667 25.795185 0.5773285 0.57736135 0.57736105 0.985437 0.014563
-46.793137 7.279363 22.798883 -0.57737213 -0.57733953 -0.57733923 0.014563 0.014563
-46.793137 10.275667 22.798883 -0.5773285 0.5773611 -0.5773613 0.985437 0.014563
-34.460068 2.150846 -7.622917 0.5773721 0.5773393 -0.57733953 0.006583 0.589067
-34.460068 2.150846 -7.622917 0.5773721 0.5773393 -0.57733953 0.998519 0.585119
-34.460068 2.150846 -5.9390106 0.5773285 0.5773612 0.57736105 0.002223 1
-36.143974 0.46694136 -7.6229153 -0.5773721 -0.57733953 -0.5773393 0.012813 0.584454
-36.143974 2.150846 -7.622917 -0.5773285 0.577361 -0.5773613 -0.000477 0.999145
-36.143974 2.150846 -5.9390106 -0.5773721 0.57733953 0.5773393 0.993778 0.582262
-55.210133 2.150846 -7.622917 0.5773721 0.5773393 -0.57733953 0.006583 0.589067
-55.210133 2.150846 -7.622917 0.5773721 0.5773393 -0.57733953 0.998519 0.585119
-55.210133 2.150846 -5.9390106 0.57732844 0.5773613 0.577361 0.002223 1
-56.89404 0.46694136 -7.6229153 -0.5773721 -0.57733953 -0.5773393 0.012813 0.584454
-56.89404 2.150846 -7.622917 -0.57732844 0.57736105 -0.5773612 -0.000477 0.999145
-56.89404 2.150846 -5.9390106 -0.5773721 0.57733953 0.5773393 0.993778 0.582262
-47.586205 8.386903 14.907396 0.5773721 0.5773393 -0.57733953 0.006583 0.589067
-47.586205 8.386903 14.907396 0.5773721 0.5773393 -0.57733953 0.998519 0.585119
-47.586205 8.386903 16.027473 0.5773285 0.5773612 0.5773611 0.002223 1
-48.706284 7.266826 14.907396 -0.5773721 -0.57733953 -0.5773393 0.012813 0.584454
-48.706284 8.386903 14.907396 -0.5773285 0.57736105 -0.57736135 -0.000477 0.999145
-48.706284 8.386903 16.027473 -0.5773721 0.57733953 0.5773393 0.993778 0.582262
-27.723412 5.505978 18.800175 0.5773721 0.57733923 -0.5773395 0.014563 0.985437
-27.723412 5.505978 18.800175 0.5773721 0.57733923 -0.5773395 0.985437 0.014563
-27.723412 5.505979 23.84413 0.57732844 0.57736135 0.5773611 0.985437 0.014563
-32.76737 0.46202374 18.800175 -0.5773721 -0.5773395 -0.57733923 0.014563 0.014563
-32.76737 5.505978 18.800175 -0.57732844 0.57736105 -0.5773613 0.985437 0.014563
-68.13872 5.60518 -25.98455 0.5773721 0.5773393 -0.5773395 0.014563 0.985437
-68.13872 5.60518 -25.98455 0.5773721 0.5773393 -0.5773395 0.985437 0.014563
-68.13872 5.6051803 -20.940598 0.5773285 0.57736135 0.577361 0.985437 0.014563
-73.18266 0.5612254 -25.98455 -0.5773721 -0.57733953 -0.5773393 0.014563 0.014563
-73.18266 5.60518 -25.98455 -0.5773285 0.5773611 -0.5773612 0.985437 0.014563
-58.01706 12.3048 -19.590012 0.5773721 0.5773393 -0.57733953 0.014563 0.985437
-58.01706 12.3048 -19.590012 0.5773721 0.5773393 -0.57733953 0.985437 0.014563
-58.01706 12.3048 -14.546059 0.57732844 0.5773613 0.57736105 0.985437 0.014563
-63.061012 7.2608447 -19.590012 -0.5773721 -0.57733953 -0.5773393 0.014563 0.014563
-63.061012 12.3048 -19.590012 -0.57732844 0.57736105 -0.5773613 0.985437 0.014563
-53.6002 2.150846 -13.986546 0.5773721 0.5773393 -0.57733953 0.006583 0.589067
-53.6002 2.150846 -13.986546 0.5773721 0.5773393 -0.57733953 0.998519 0.585119
-53.6002 2.150846 -12.302639 0.57732844 0.5773613 0.577361 0.002223 1
-55.284107 0.46694136 -13.986544 -0.5773721 -0.57733953 -0.5773393 0.012813 0.584454
-55.284107 2.150846 -13.986546 -0.57732844 0.57736105 -0.5773612 -0.000477 0.999145
-55.284107 2.150846 -12.302639 -0.5773721 0.57733953 0.5773393 0.993778 0.582262
-49.546394 2.150846 -13.986546 0.5773721 0.5773393 -0.57733953 0.006583 0.589067
-49.546394 2.150846 -13.986546 0.5773721 0.5773393 -0.57733953 0.998519 0.585119
-49.546394 2.150846 -12.302639 0.5773285 0.5773612 0.57736105 0.002223 1
-51.2303 0.46694136 -13.986544 -0.5773721 -0.57733953 -0.5773393 0.012813 0.584454
-51.2303 2.150846 -13.986546 -0.5773285 0.577361 -0.5773613 -0.000477 0.999145
-51.2303 2.150846 -12.302639 -0.5773721 0.57733953 0.5773393 0.993778 0.582262
-41.90897 2.150846 -13.986546 0.5773721 0.5773393 -0.57733953 0.006583 0.589067
-41.90897 2.150846 -13.986546 0.5773721 0.5773393 -0.57733953 0.998519 0.585119
-41.90897 2.150846 -12.302639 0.5773285 0.5773612 0.57736105 0.002223 1
-43.592876 0.46694136 -13.986544 -0.5773721 -0.57733953 -0.5773393 0.012813 0.584454
-43.592876 2.150846 -13.986546 -0.5773285 0.577361 -0.5773613 -0.000477 0.999145
-43.592876 2.150846 -12.302639 -0.5773721 0.57733953 0.5773393 0.993778 0.582262
-37.98904 2.150846 -13.986546 0.5773721 0.5773393 -0.57733953 0.006583 0.589067
-37.98904 2.150846 -13.986546 0.5773721 0.5773393 -0.57733953 0.998519 0.585119
-37.98904 2.150846 -12.302639 0.5773285 0.5773612 0.5773611 0.002223 1
-39.672947 0.46694136 -13.986544 -0.5773721 -0.57733953 -0.5773393 0.012813 0.584454
-39.672947 2.150846 -13.986546 -0.5773285 0.577361 -0.57736135 -0.000477 0.999145
-39.672947 2.150846 -12.302639 -0.5773721 0.57733953 0.5773393 0.993778 0.582262
-30.763214 2.150846 -13.986546 0.5773721 0.5773393 -0.57733953 0.006583 0.589067
-30.763214 2.150846 -13.986546 0.5773721 0.5773393 -0.57733953 0.998519 0.585119
-30.763214 2.150846 -12.302639 0.57732844 0.5773613 0.577361 0.002223 1
-32.44712 0.46694136 -13.986544 -0.5773721 -0.57733953 -0.5773393 0.012813 0.584454
-32.44712 2.150846 -13.986546 -0.57732844 0.57736105 -0.5773612 -0.000477 0.999145
-32.44712 2.150846 -12.302639 -0.5773721 0.57733953 0.5773393 0.993778 0.582262
-27.001835 2.150846 -13.986546 0.5773721 0.5773393 -0.57733953 0.006583 0.589067
-27.001835 2.150846 -13.986546 0.5773721 0.5773393 -0.57733953 0.998519 0.585119
-27.001835 2.150846 -12.302639 0.57732844 0.5773613 0.577361 0.002223 1
-28.685741 0.46694136 -13.986544 -0.5773721 -0.57733953 -0.5773393 0.012813 0.584454
-28.685741 2.150846 -13.986546 -0.57732844 0.57736105 -0.5773612 -0.000477 0.999145
-28.685741 2.150846 -12.302639 -0.5773721 0.57733953 0.5773393 0.993778 0.582262
-20.51176 2.150846 -13.986546 0.5773721 0.5773393 -0.57733953 0.006583 0.589067
-20.51176 2.150846 -13.986546 0.5773721 0.5773393 -0.57733953 0.998519 0.585119
-20.51176 2.150846 -12.302639 0.57732844 0.5773613 0.577361 0.002223 1
-22.195667 0.46694136 -13.986544 -0.5773721 -0.5773395 -0.5773393 0.012813 0.584454
-22.195667 2.150846 -13.986546 -0.57732844 0.57736105 -0.5773612 -0.000477 0.999145
-22.195667 2.150846 -12.302639 -0.5773721 0.5773395 0.5773393 0.993778 0.582262
-17.140568 2.150846 -13.986546 0.5773721 0.5773393 -0.57733953 0.006583 0.589067
-17.140568 2.150846 -13.986546 0.5773721 0.5773393 -0.57733953 0.998519 0.585119
-17.140568 2.150846 -12.302639 0.57732844 0.5773613 0.577361 0.002223 1
-18.824474 0.46694136 -13.986544 -0.5773721 -0.57733953 -0.5773393 0.012813 0.584454
-18.824474 2.150846 -13.986546 -0.57732844 0.57736105 -0.5773612 -0.000477 0.999145
-18.824474 2.150846 -12.302639 -0.5773721 0.57733953 0.5773393 0.993778 0.582262
-9.798008 2.150846 -13.986546 0.5773721 0.5773393 -0.57733953 0.006583 0.589067
-9.798008 2.150846 -13.986546 0.5773721 0.5773393 -0.57733953 0.998519 0.585119
-9.798008 2.150846 -12.302639 0.57732844 0.5773613 0.577361 0.002223 1
-11.4819145 0.46694136 -13.986544 -0.5773721 -0.57733953 -0.5773393 0.012813 0.584454
-11.4819145 2.150846 -13.986546 -0.57732844 0.57736105 -0.5773612 -0.000477 0.999145
-11.4819145 2.150846 -12.302639 -0.5773721 0.57733953 0.5773393 0.993778 0.582262
-6.3768806 2.150846 -13.986546 0.5773721 0.5773393 -0.57733953 0.006583 0.589067
-6.3768806 2.150846 -13.986546 0.5773721 0.5773393 -0.57733953 0.998519 0.585119
-6.3768806 2.150846 -12.302639 0.57732844 0.5773613 0.577361 0.002223 1
-8.060787 0.46694136 -13.986544 -0.5773721 -0.57733953 -0.5773393 0.012813 0.584454
-8.060787 2.150846 -13.986546 -0.57732844 0.57736105 -0.5773612 -0.000477 0.999145
-8.060787 2.150846 -12.302639 -0.5773721 0.57733953 0.5773393 0.993778 0.582262
1.0888977 2.150846 -13.986546 0.5773721 0.5773393 -0.57733953 0.006583 0.589067
1.0888977 2.150846 -13.986546 0.5773721 0.5773393 -0.57733953 0.998519 0.585119
1.0888977 2.150846 -12.302639 0.57732844 0.5773613 0.577361 0.002223 1
-0.59500885 0.46694136 -13.986544 -0.5773721 -0.57733953 -0.5773393 0.012813 0.584454
-0.59500885 2.150846 -13.986546 -0.57732844 0.57736105 -0.5773612 -0.000477 0.999145
-0.59500885 2.150846 -12.302639 -0.5773721 0.57733953 0.5773393 0.993778 0.582262
4.8535576 2.150846 -13.986546 0.5773721 0.5773393 -0.57733953 0.006583 0.589067
4.8535576 2.150846 -13.986546 0.5773721 0.5773393 -0.57733953 0.998519 0.585119
4.8535576 2.150846 -12.302639 0.57732844 0.5773613 0.577361 0.002223 1
3.169651 0.46694136 -13.986544 -0.5773721 -0.57733953 -0.5773393 0.012813 0.584454
3.169651 2.150846 -13.986546 -0.57732844 0.57736105 -0.5773612 -0.000477 0.999145
3.169651 2.150846 -12.302639 -0.5773721 0.57733953 0.5773393 0.993778 0.582262
13.419167 2.150846 -13.986546 0.5773721 0.5773393 -0.57733953 0.006583 0.589067
13.419167 2.150846 -13.986546 0.5773721 0.5773393 -0.57733953 0.998519 0.585119
13.419167 2.150846 -12.302639 0.57732844 0.5773613 0.577361 0.002223 1
11.73526 0.46694136 -13.986544 -0.5773721 -0.57733953 -0.5773393 0.012813 0.584454
11.73526 2.150846 -13.986546 -0.57732844 0.57736105 -0.5773612 -0.000477 0.999145
11.73526 2.150846 -12.302639 -0.5773721 0.57733953 0.5773393 0.993778 0.582262
16.053371 2.150846 -13.986546 0.5773721 0.5773393 -0.57733953 0.006583 0.589067
16.053371 2.150846 -13.986546 0.5773721 0.5773393 -0.57733953 0.998519 0.585119
16.053371 2.150846 -12.302639 0.57732844 0.5773613 0.577361 0.002223 1
14.369465 0.46694136 -13.986544 -0.5773721 -0.57733953 -0.5773393 0.012813 0.584454
14.369465 2.150846 -13.986546 -0.57732844 0.57736105 -0.5773612 -0.000477 0.999145
14.369465 2.150846 -12.302639 -0.5773721 0.57733953 0.5773393 0.993778 0.582262
22.510902 2.150846 -13.986546 0.5773721 0.5773393 -0.57733953 0.006583 0.589067
22.510902 2.150846 -13.986546 0.5773721 0.5773393 -0.57733953 0.998519 0.585119
22.510902 2.150846 -12.302639 0.57732844 0.5773613 0.57736105 0.002223 1
20.827 0.46694136 -13.986544 -0.5773721 -0.57733953 -0.5773393 0.012813 0.584454
20.827 2.150846 -13.986546 -0.57732844 0.57736105 -0.5773613 -0.000477 0.999145
20.827 2.150846 -12.302639 -0.5773721 0.57733953 0.5773393 0.993778 0.582262
26.075615 2.150846 -13.986546 0.5773721 0.5773393 -0.57733953 0.006583 0.589067
26.075615 2.150846 -13.986546 0.5773721 0.5773393 -0.57733953 0.998519 0.585119
26.075615 2.150846 -12.302639 0.5773285 0.5773612 0.5773611 0.002223 1
24.391716 0.46694136 -13.986544 -0.5773721 -0.57733953 -0.5773393 0.012813 0.584454
24.391716 2.150846 -13.986546 -0.5773285 0.577361 -0.57736135 -0.000477 0.999145
24.391716 2.150846 -12.302639 -0.5773721 0.57733953 0.5773393 0.993778 0.582262
32.94162 2.150846 -12.341221 0.5773721 0.5773393 -0.57733953 0.006583 0.589067
32.94162 2.150846 -12.341221 0.5773721 0.5773393 -0.57733953 0.998519 0.585119
32.94162 2.1508465 -10.657314 0.5773285 0.5773612 0.5773611 0.002223 1
31.25772 0.46694136 -12.341219 -0.5773721 -0.57733953 -0.5773393 0.012813 0.584454
31.25772 2.150846 -12.341221 -0.5773285 0.577361 -0.57736135 -0.000477 0.999145
31.25772 2.1508465 -10.657314 -0.5773721 0.57733953 0.5773393 0.993778 0.582262
37.373154 2.150846 -12.341221 0.5773721 0.5773393 -0.57733953 0.006583 0.589067
37.373154 2.150846 -12.341221 0.5773721 0.5773393 -0.57733953 0.998519 0.585119
37.373154 2.1508465 -10.657314 0.5773285 0.5773612 0.5773611 0.002223 1
35.689255 0.46694136 -12.341219 -0.5773721 -0.57733953 -0.5773393 0.012813 0.584454
35.689255 2.150846 -12.341221 -0.5773285 0.577361 -0.57736135 -0.000477 0.999145
35.689255 2.1508465 -10.657314 -0.5773721 0.57733953 0.5773393 0.993778 0.582262
46.723274 2.150846 -12.341221 0.5773721 0.5773393 -0.57733953 0.006583 0.589067
46.723274 2.150846 -12.341221 0.5773721 0.5773393 -0.57733953 0.998519 0.585119
46.723274 2.1508465 -10.657314 0.5773285 0.5773612 0.5773611 0.002223 1
45.039375 0.46694136 -12.341219 -0.5773721 -0.57733953 -0.5773393 0.012813 0.584454
45.039375 2.150846 -12.341221 -0.5773285 0.577361 -0.57736135 -0.000477 0.999145
45.039375 2.1508465 -10.657314 -0.5773721 0.57733953 0.5773393 0.993778 0.582262
51.562233 2.150846 -6.3933887 0.5773721 0.5773393 -0.57733953 0.006583 0.589067
51.562233 2.150846 -6.3933887 0.5773721 0.5773393 -0.57733953 0.998519 0.585119
51.562233 2.1508465 -4.709482 0.5773285 0.5773612 0.5773611 0.002223 1
49.878334 0.46694136 -6.393387 -0.5773721 -0.57733953 -0.5773393 0.012813 0.584454
49.878334 2.150846 -6.3933887 -0.5773285 0.577361 -0.57736135 -0.000477 0.999145
49.878334 2.1508465 -4.709482 -0.5773721 0.57733953 0.5773393 0.993778 0.582262
51.562233 2.150846 -9.125324 0.5773721 0.5773393 -0.57733953 0.006583 0.589067
51.562233 2.150846 -9.125324 0.5773721 0.5773393 -0.57733953 0.998519 0.585119
51.562233 2.1508465 -7.4414177 0.5773285 0.5773612 0.5773611 0.002223 1
49.878334 0.46694136 -9.125322 -0.5773721 -0.57733953 -0.5773393 0.012813 0.584454
49.878334 2.150846 -9.125324 -0.5773285 0.577361 -0.57736135 -0.000477 0.999145
49.878334 2.1508465 -7.4414177 -0.5773721 0.57733953 0.5773393 0.993778 0.582262
61.11892 2.150846 -12.154228 0.5773721 0.5773393 -0.57733953 0.006583 0.589067
61.11892 2.150846 -12.154228 0.5773721 0.5773393 -0.57733953 0.998519 0.585119
61.11892 2.1508465 -10.470322 0.5773285 0.5773612 0.5773611 0.002223 1
59.43502 0.46694136 -12.154226 -0.5773721 -0.57733953 -0.5773393 0.012813 0.584454
59.43502 2.150846 -12.154228 -0.5773285 0.577361 -0.57736135 -0.000477 0.999145
59.43502 2.1508465 -10.470322 -0.5773721 0.57733953 0.5773393 0.993778 0.582262
55.582893 2.150846 -12.154228 -0.5773389 0.5773394 -0.57737243 0.006583 0.589067
55.582893 2.150846 -12.154228 -0.5773389 0.5773394 -0.57737243 0.998519 0.585119
57.266792 2.1508465 -12.154228 0.57734036 0.57737154 -0.577339 0.002223 1
55.582893 0.46694136 -10.47032 -0.5773501 -0.57735026 0.5773504 0.012813 0.584454
57.266792 2.1508465 -10.470322 0.5773721 0.5773395 0.57733923 0.356496 0.999145
57.266792 2.1508465 -12.154228 0.57734036 0.57737154 -0.577339 0.674191 0.582262
-54.523106 2.150846 4.176955 0.5773721 0.5773393 -0.57733953 0.006583 0.589067
-54.523106 2.150846 4.176955 0.5773721 0.5773393 -0.57733953 0.998519 0.585119
-54.523106 2.1508465 5.860862 0.57732844 0.5773613 0.577361 0.002223 1
-56.207012 0.46694136 4.176955 -0.5773721 -0.57733953 -0.5773393 0.012813 0.584454
-56.207012 2.150846 4.176955 -0.57732844 0.57736105 -0.5773612 -0.000477 0.999145
-56.207012 2.1508465 5.860862 -0.5773721 0.57733953 0.5773393 0.993778 0.582262
-17.05656 5.505978 18.800175 0.57737213 0.5773393 -0.5773395 0.014563 0.985437
-17.05656 5.505978 18.800175 0.57737213 0.5773393 -0.5773395 0.985437 0.014563
-17.05656 5.505979 23.84413 0.5773285 0.5773613 0.57736105 0.985437 0.014563
-22.100513 0.46202374 18.800175 -0.5773721 -0.5773395 -0.57733923 0.014563 0.014563
-22.100513 5.505978 18.800175 -0.5773285 0.57736105 -0.5773613 0.985437 0.014563
-49.498245 8.939 -15.740776 0.5773721 0.5773393 -0.57733953 0.006583 0.589067
-49.498245 8.939 -15.740776 0.5773721 0.5773393 -0.57733953 0.340299 0.996912
-49.498245 8.939 -14.0568695 0.5773639 0.5773436 0.57734334 0.333965 1.001269
-52.977448 7.255095 -15.740776 -0.5773721 -0.57733953 -0.5773393 0.012813 0.584454
-52.977448 8.939 -15.740776 -0.5773639 0.57734334 -0.5773436 -0.000477 0.999145
-52.977448 8.939 -14.0568695 -0.5773721 0.57733953 0.5773393 1.007092 1.003778
-71.455574 8.939 -5.248703 0.5773721 0.5773393 -0.57733953 0.006583 0.589067
-71.455574 8.939 -5.248703 0.5773721 0.5773393 -0.57733953 0.340299 0.996912
-71.455574 8.939 -3.5647964 0.5773639 0.5773436 0.57734334 0.333965 1.001269
-74.93478 7.255095 -5.248703 -0.5773721 -0.57733953 -0.5773393 0.012813 0.584454
-74.93478 8.939 -5.248703 -0.5773639 0.57734334 -0.5773436 -0.000477 0.999145
-74.93478 8.939 -3.5647964 -0.5773721 0.57733953 0.5773393 1.007092 1.003778
-72.84581 8.939 6.028328 -0.5773255 0.57734674 -0.5773785 0.006583 0.589067
-72.84581 8.939 9.50753 -0.57734615 0.57732576 0.5773788 1.010624 0.996912
-71.16191 8.939 6.028328 0.57734346 0.5773437 -0.5773636 0.333965 1.001269
-72.84581 7.255095 9.50753 -0.57733643 -0.57735705 0.5773573 0.012813 0.584454
-71.16191 8.939 9.50753 0.57735 0.57735044 0.57735026 0.356496 0.999145
-71.16191 8.939 9.50753 0.57735 0.57735044 0.57735026 1.007092 1.003778
-55.43809 8.939 19.506458 -0.57735026 0.5773502 -0.5773504 0.006583 0.589067
-55.43809 8.939 19.506458 -0.57735026 0.5773502 -0.5773504 0.340299 0.996912
-55.43809 8.939 19.506458 -0.57735026 0.5773502 -0.5773504 0.681536 1.001269
-55.43809 7.255095 22.98566 -0.5773499 -0.57735044 0.5773505 0.012813 0.584454
-53.754185 8.939 22.98566 0.5773366 0.5773572 0.57735705 0.356496 0.999145
-53.754185 8.939 19.506458 0.577346 0.5773257 -0.57737917 0.347738 1.003778
-12.966808 2.1223044 7.9040422 -0.57732564 0.5773468 -0.5773784 0.006583 0.589067
-12.966808 2.122304 11.3832445 -0.5773464 0.5773257 0.5773787 1.010624 0.996912
-11.282902 2.1223044 7.9040422 0.57734346 0.57734364 -0.57736355 0.333965 1.001269
-12.966808 0.4383993 11.3832445 -0.5773367 -0.57735693 0.5773572 0.012813 0.584454
-11.282902 2.1223044 11.3832445 0.5773501 0.5773505 0.57735014 0.356496 0.999145
-11.282902 2.1223044 11.3832445 0.5773501 0.5773505 0.57735014 1.007092 1.003778
6.195381 2.1223044 9.7538805 -0.57737195 0.57733977 0.5773391 0.006583 0.589067
6.195381 2.1223044 9.7538805 -0.57737195 0.57733977 0.5773391 0.340299 0.996912
6.195381 2.1223044 8.069976 -0.57736367 0.5773442 -0.5773429 0.333965 1.001269
9.674583 0.4383993 9.7538805 0.5773504 -0.5773504 0.57735014 0.012813 0.584454
9.674583 2.1223044 8.069974 0.57735026 0.57735026 -0.5773503 0.356496 0.999145
9.674583 2.1223044 8.069974 0.57735026 0.57735026 -0.5773503 1.007092 1.003778
30.059685 2.1223044 10.699212 -0.57737195 0.5773397 0.5773391 0.006583 0.589067
30.059685 2.1223044 10.699212 -0.57737195 0.5773397 0.5773391 0.340299 0.996912
30.059685 2.122305 9.015307 -0.5773637 0.5773441 -0.577343 0.333965 1.001269
33.538887 0.4383993 10.699212 0.5773504 -0.5773504 0.57735014 0.012813 0.584454
33.538887 2.122305 9.0153055 0.5773501 0.5773503 -0.5773504 0.356496 0.999145
33.538887 2.122305 9.0153055 0.5773501 0.5773503 -0.5773504 1.007092 1.003778
48.544907 2.1223044 7.2752047 -0.57737154 0.57734025 0.57733905 0.006583 0.589067
48.544907 2.1223044 7.2752047 -0.57737154 0.57734025 0.57733905 0.340299 0.996912
48.544907 2.1223044 5.5913 -0.5773632 0.5773455 -0.5773422 0.333965 1.001269
52.02411 0.4383993 7.2752047 0.5773502 -0.5773502 0.57735044 0.012813 0.584454
52.02411 2.1223044 5.591298 0.57735 0.5773502 -0.5773506 0.356496 0.999145
52.02411 2.1223044 5.591298 0.57735 0.5773502 -0.5773506 1.007092 1.003778
3 0 1 2
3 1 3 4
3 5 6 7
3 8 9 6
3 10 11 8
3 12 13 14
3 15 16 17
3 16 18 19
3 20 21 22
3 23 24 21
3 25 26 23
3 27 28 29
3 30 31 32
3 31 33 34
3 35 36 37
3 38 39 36
3 40 41 38
3 42 43 44
3 45 46 47
3 46 48 49
3 50 51 52
3 53 54 51
3 55 56 53
3 57 58 59
3 60 61 62
3 63 64 65
3 66 67 68
3 69 70 71
3 72 73 74
3 75 76 77
3 78 79 80
3 81 82 83
3 84 85 86
3 87 88 89
3 90 91 92
3 93 94 95
3 96 97 98
3 99 100 101
3 102 103 104
3 105 106 107
3 108 109 110
3 111 112 113
3 114 115 116
3 115 117 118
3 119 120 121
3 122 123 120
3 124 125 122
3 126 127 128
3 129 130 131
3 130 132 133
3 134 135 136
3 137 138 135
3 139 140 137
3 141 142 143
3 144 145 146
3 145 147 148
3 149 150 151
3 152 153 150
3 154 155 152
3 156 157 158
3 159 160 161
3 162 163 164
3 165 166 167
3 168 169 170
3 171 172 173
3 174 175 176
3 177 178 179
3 180 181 182
3 183 184 185
3 186 187 188
3 189 190 191
3 192 193 194
3 195 196 197
3 198 199 200
3 201 202 203
3 204 205 206
3 207 208 209
3 210 211 212
3 213 214 215
3 216 217 218
3 219 220 221
3 222 223 224
3 225 226 227
3 228 229 230
3 231 232 233
3 234 235 236
3 237 238 239
3 240 241 242
3 243 244 245
3 246 247 248
3 249 250 251
3 252 253 254
3 255 256 257
3 258 259 260
3 261 262 263
3 264 265 266
3 267 268 269
3 270 271 272
3 273 274 275
3 276 277 278
3 279 280 281
3 282 283 284
3 285 286 287
3 288 289 290
3 291 292 293
3 294 295 296
3 297 298 299
3 300 301 302
3 303 304 305
3 306 307 308
3 309 310 311
3 312 313 314
3 315 316 317
3 318 319 320
3 321 322 323
3 324 325 326
3 327 328 329
3 330 331 332
3 333 334 335
3 336 337 338
3 339 340 341
3 342 343 344
3 345 346 347
3 348 349 350
3 351 352 353
3 354 355 356
3 357 358 359
3 360 361 362
3 363 364 365
3 366 367 368
3 369 370 371
3 372 373 374
3 375 376 377
3 378 379 380
3 381 382 383
3 384 385 386
3 387 388 389
3 390 391 392
3 393 394 395
3 396 397 398
3 399 400 401
3 402 403 404
3 405 406 407
3 408 409 410
3 411 412 413
3 414 415 416
3 417 418 419
3 420 421 422
3 423 424 425
3 426 427 428
3 429 430 431
3 432 433 434
3 435 436 437
3 438 439 440
3 441 442 443
3 444 445 446
3 447 448 449
3 450 451 452
3 453 454 455
3 456 457 458
3 459 460 461
3 462 463 464
3 465 466 467
3 468 469 470
3 471 472 473
3 474 475 476
3 477 478 479
3 480 481 482
3 483 484 485
3 486 487 488
3 489 490 491
3 492 493 494
3 495 496 497
3 498 499 500
3 501 502 503
3 504 505 506
3 507 508 509
3 510 511 512
3 513 514 515
3 516 517 518
3 519 520 521
3 522 523 524
3 525 526 527
3 528 529 530
3 531 532 533
3 534 535 536
3 537 538 539
3 540 541 542
3 543 544 545
3 546 547 548
3 549 550 551
3 552 553 554
3 555 556 557
3 558 559 560
3 561 562 563
3 564 565 566
3 567 568 569
3 570 571 572
3 573 574 575
3 576 577 578
3 579 580 581
3 582 583 584
3 585 586 587
3 588 589 590
3 591 592 593
3 592 594 595
3 596 597 598
3 599 600 597
3 601 602 599
3 603 604 605
3 606 607 608
3 609 610 611
3 612 613 614
3 615 616 617
3 618 619 620
3 621 622 623
3 624 625 626
3 627 628 629
3 630 631 632
3 633 634 635
3 636 637 638
3 639 640 641
3 642 643 644
3 645 646 647
3 648 649 650
3 651 652 653
3 654 655 656
3 657 658 659
3 660 661 662
3 663 664 665
3 666 667 668
3 669 670 671
3 672 673 674
3 675 676 677
3 678 679 680
3 681 682 683
3 684 685 686
3 687 688 689
3 690 691 692
3 693 694 695
3 696 697 698
3 699 700 701
3 702 703 704
3 705 706 707
3 708 709 710
3 711 712 713
3 714 715 716
3 717 718 719
3 720 721 722
3 723 724 725
3 726 727 728
3 729 730 731
3 732 733 734
3 735 736 737
3 738 739 740
3 741 742 743
3 744 745 746
3 747 748 749
3 0 750 1
3 1 751 3
3 5 752 6
3 8 753 9
3 10 754 11
3 12 2 13
3 15 755 16
3 16 756 18
3 20 757 21
3 23 758 24
3 25 759 26
3 27 17 28
3 30 760 31
3 31 761 33
3 35 762 36
3 38 763 39
3 40 764 41
3 42 32 43
3 45 765 46
3 46 766 48
3 50 767 51
3 53 768 54
3 55 769 56
3 57 47 58
3 60 770 61
3 63 771 64
3 66 772 67
3 69 773 70
3 72 774 73
3 75 775 76
3 78 776 79
3 81 777 82
3 84 778 85
3 87 779 88
3 90 780 91
3 93 781 94
3 96 782 97
3 99 783 100
3 102 784 103
3 105 785 106
3 108 786 109
3 111 787 112
3 114 788 115
3 115 789 117
3 119 790 120
3 122 791 123
3 124 792 125
3 126 116 127
3 129 793 130
3 130 794 132
3 134 795 135
3 137 796 138
3 139 797 140
3 141 131 142
3 144 798 145
3 145 799 147
3 149 800 150
3 152 801 153
3 154 802 155
3 156 146 157
3 159 803 160
3 162 804 163
3 165 805 166
3 168 806 169
3 171 807 172
3 174 808 175
3 177 809 178
3 180 810 181
3 183 811 184
3 186 812 187
3 189 813 190
3 192 814 193
3 195 815 196
3 198 816 199
3 201 817 202
3 204 818 205
3 207 819 208
3 210 820 211
3 213 821 214
3 216 822 217
3 219 823 220
3 222 824 223
3 225 825 226
3 228 826 229
3 231 827 232
3 234 828 235
3 237 829 238
3 240 830 241
3 243 831 244
3 246 832 247
3 249 833 250
3 252 834 253
3 255 835 256
3 258 836 259
3 261 837 262
3 264 838 265
3 267 839 268
3 270 840 271
3 273 841 274
3 276 842 277
3 279 843 280
3 282 844 283
3 285 845 286
3 288 846 289
3 291 847 292
3 294 848 295
3 297 849 298
3 300 850 301
3 303 851 304
3 306 852 307
3 309 853 310
3 312 854 313
3 315 855 316
3 318 856 319
3 321 857 322
3 324 858 325
3 327 859 328
3 330 860 331
3 333 861 334
3 336 862 337
3 339 863 340
3 342 864 343
3 345 865 346
3 348 866 349
3 351 867 352
3 354 868 355
3 357 869 358
3 360 870 361
3 363 871 364
3 366 872 367
3 369 873 370
3 372 874 373
3 375 875 376
3 378 876 379
3 381 877 382
3 384 878 385
3 387 879 388
3 390 880 391
3 393 881 394
3 396 882 397
3 399 883 400
3 402 884 403
3 405 885 406
3 408 886 409
3 411 887 412
3 414 888 415
3 417 889 418
3 420 890 421
3 423 891 424
3 426 892 427
3 429 893 430
3 432 894 433
3 435 895 436
3 438 896 439
3 441 897 442
3 444 898 445
3 447 899 448
3 450 900 451
3 453 901 454
3 456 902 457
3 459 903 460
3 462 904 463
3 465 905 466
3 468 906 469
3 471 907 472
3 474 908 475
3 477 909 478
3 480 910 481
3 483 911 484
3 486 912 487
3 489 913 490
3 492 914 493
3 495 915 496
3 498 916 499
3 501 917 502
3 504 918 505
3 507 919 508
3 510 920 511
3 513 921 514
3 516 922 517
3 519 923 520
3 522 924 523
3 525 925 526
3 528 926 529
3 531 927 532
3 534 928 535
3 537 929 538
3 540 930 541
3 543 931 544
3 546 932 547
3 549 933 550
3 552 934 553
3 555 935 556
3 558 936 559
3 561 937 562
3 564 938 565
3 567 939 568
3 570 940 571
3 573 941 574
3 576 942 577
3 579 943 580
3 582 944 583
3 585 945 586
3 588 946 589
3 591 947 592
3 592 948 594
3 596 949 597
3 599 950 600
3 601 951 602
3 603 593 604
3 606 952 607
3 609 953 610
3 612 954 613
3 615 955 616
3 618 956 619
3 621 957 622
3 624 958 625
3 627 959 628
3 630 960 631
3 633 961 634
3 636 962 637
3 639 963 640
3 642 964 643
3 645 965 646
3 648 966 649
3 651 967 652
3 654 968 655
3 657 969 658
3 660 970 661
3 663 971 664
3 666 972 667
3 669 973 670
3 672 974 673
3 675 975 676
3 678 976 679
3 681 977 682
3 684 978 685
3 687 979 688
3 690 980 691
3 693 981 694
3 696 982 697
3 699 983 700
3 702 984 703
3 705 985 706
3 708 986 709
3 711 987 712
3 714 988 715
3 717 989 718
3 720 990 721
3 723 991 724
3 726 992 727
3 729 993 730
3 732 994 733
3 735 995 736
3 738 996 739
3 741 997 742
3 744 998 745
3 747 999 748
