ply
format ascii 1.0
comment VCGLIB generated
element vertex 596
property float x
property float y
property float z
property float nx
property float ny
property float nz
property uchar red
property uchar green
property uchar blue
property uchar alpha
property float texture_u
property float texture_v
element face 320
property list uchar int vertex_indices
end_header
17.50638 9.323828 33.13947 1.593372e-06 -8.457026e-07 1 173 121 99 255 0.627646 0.934163
17.50638 6.564578 33.13948 3.150926e-06 7.405862e-07 1 173 138 107 255 0.697253 0.934163
18.7701 9.323828 33.13947 0.3015159 -0.3015218 0.9045291 112 89 71 255 0.627646 0.985889
18.7701 6.564578 33.13947 0.3015162 0.3015113 0.9045325 131 99 79 255 0.697253 0.985889
17.50638 3.187042 33.13948 3.330804e-06 -1.656672e-07 1 170 157 145 255 0.548456 0.711588
17.50638 -0.1024852 33.13948 3.408962e-06 -1.629207e-07 1 211 215 208 255 0.548456 0.628389
18.76356 -0.1024847 33.13947 0.6823123 -0.0009653095 0.7310603 198 195 198 255 0.585526 0.628389
17.50638 10.90569 33.13948 1.055502e-06 -0.7071079 0.7071056 123 101 74 255 0.265628 0.785391
17.50638 9.323828 33.13947 1.593372e-06 -8.457026e-07 1 173 121 99 255 0.265628 0.738702
27.27845 10.90569 33.13947 1.42318e-06 -0.707109 0.7071046 156 117 90 255 0.674963 0.785391
18.7701 9.323828 33.13947 0.3015159 -0.3015218 0.9045291 112 89 71 255 0.318563 0.738702
27.27845 9.32383 33.13946 2.291474e-06 -8.957641e-07 1 132 105 82 255 0.674963 0.738702
25.47681 9.32383 33.13947 -0.3015127 -0.3015118 0.9045334 82 69 66 255 0.599496 0.738702
17.50638 4.481922 33.13948 3.232402e-06 2.863068e-07 1 115 97 90 255 0.546394 0.7439
18.7701 4.51962 33.13948 0.3015163 -0.3015301 0.9045261 46 22 13 255 0.588145 0.744955
17.50638 6.564578 33.13948 3.150926e-06 7.405862e-07 1 173 138 107 255 0.546394 0.802197
18.7701 6.564578 33.13947 0.3015162 0.3015113 0.9045325 131 99 79 255 0.588145 0.802197
17.50638 4.481922 33.13948 3.232402e-06 2.863068e-07 1 115 97 90 255 0.548456 0.744338
18.7701 4.51962 33.13948 0.3015163 -0.3015301 0.9045261 46 22 13 255 0.585719 0.745292
18.7701 4.51962 32.8502 0.5773508 -0.5773503 0.5773498 46 25 13 255 0.036553 0.612306
18.7701 -0.08171463 32.8502 0.7148311 -0.0009726535 0.6992965 123 113 107 255 0.036553 0.509304
25.47681 4.519623 32.8502 -0.5773431 -0.5773531 0.5773546 107 97 99 255 0.247374 0.612306
25.47681 -0.08171272 32.8502 -0.7253326 0.00033383 0.6883986 46 45 46 255 0.247374 0.509304
18.7701 9.323828 33.13947 0.3015159 -0.3015218 0.9045291 112 89 71 255 0.567195 0.267151
18.7701 6.564578 33.13947 0.3015162 0.3015113 0.9045325 131 99 79 255 0.567195 0.501809
18.7701 9.323828 32.8502 0.5773547 -0.5773483 0.5773478 46 25 13 255 0.613724 0.267151
18.7701 6.564578 32.8502 0.577357 0.5773656 0.5773282 107 97 99 255 0.613724 0.501809
18.7701 6.564578 33.13947 0.3015162 0.3015113 0.9045325 131 99 79 255 0.633253 0.789044
18.7701 4.51962 33.13948 0.3015163 -0.3015301 0.9045261 46 22 13 255 0.633253 0.742845
25.47681 6.56458 33.13947 -0.301513 0.3015197 0.9045308 41 36 41 255 0.914186 0.789044
25.47681 4.519623 33.13947 -0.3015094 -0.301499 0.9045388 82 69 66 255 0.914186 0.742845
18.7701 6.564578 33.13947 0.3015162 0.3015113 0.9045325 131 99 79 255 0.240469 0.003127
25.47681 6.56458 33.13947 -0.301513 0.3015197 0.9045308 41 36 41 255 0.635008 0.003127
18.7701 6.564578 32.8502 0.577357 0.5773656 0.5773282 107 97 99 255 0.240469 0.034414
25.47681 6.56458 32.8502 -0.577354 0.5773481 0.5773488 46 45 46 255 0.635008 0.034414
25.4746 -0.1024828 33.13947 -0.6931564 0.0003316919 0.7207872 41 36 41 255 0.875073 0.597608
27.27845 3.187044 33.13947 1.371529e-06 -1.631958e-07 1 132 85 57 255 0.931473 0.713278
25.47681 4.519623 33.13947 -0.3015094 -0.301499 0.9045388 82 69 66 255 0.875142 0.760136
27.27845 4.481924 33.13947 1.400057e-06 2.888997e-07 1 132 85 66 255 0.931473 0.75881
25.47681 6.56458 33.13947 -0.301513 0.3015197 0.9045308 41 36 41 255 0.714132 0.867926
25.47681 4.519623 33.13947 -0.3015094 -0.301499 0.9045388 82 69 66 255 0.786038 0.867926
27.27845 6.564579 33.13947 1.3569e-06 9.908026e-07 1 156 121 107 255 0.714132 0.943393
27.27845 4.481924 33.13947 1.400057e-06 2.888997e-07 1 132 85 66 255 0.787364 0.943393
25.47681 9.32383 33.13947 -0.3015127 -0.3015118 0.9045334 82 69 66 255 0.875203 0.930329
25.47681 6.56458 33.13947 -0.301513 0.3015197 0.9045308 41 36 41 255 0.875203 0.858119
27.27845 9.32383 33.13946 2.291474e-06 -8.957641e-07 1 132 105 82 255 0.934075 0.930329
27.27845 6.564579 33.13947 1.3569e-06 9.908026e-07 1 156 121 107 255 0.934075 0.858119
18.7701 9.323828 32.8502 0.5773547 -0.5773483 0.5773478 46 25 13 255 0.998953 0.183198
18.7701 6.564578 32.8502 0.577357 0.5773656 0.5773282 107 97 99 255 0.998953 0.272405
25.47681 9.32383 32.8502 -0.5773561 -0.5773662 0.5773286 107 97 99 255 0.716252 0.183198
25.47681 6.56458 32.8502 -0.577354 0.5773481 0.5773488 46 45 46 255 0.716252 0.272405
18.76356 -0.1024847 33.13947 0.6823123 -0.0009653095 0.7310603 198 195 198 255 0.567195 0.501809
18.7701 -0.08171463 32.8502 0.7148311 -0.0009726535 0.6992965 123 113 107 255 0.613724 0.501809
18.7701 4.51962 33.13948 0.3015163 -0.3015301 0.9045261 46 22 13 255 0.567195 0.267151
18.7701 4.51962 32.8502 0.5773508 -0.5773503 0.5773498 46 25 13 255 0.613724 0.267151
25.47681 6.56458 33.13947 -0.301513 0.3015197 0.9045308 41 36 41 255 0.567195 0.267151
25.47681 9.32383 33.13947 -0.3015127 -0.3015118 0.9045334 82 69 66 255 0.567195 0.501809
25.47681 6.56458 32.8502 -0.577354 0.5773481 0.5773488 46 45 46 255 0.613724 0.267151
25.47681 9.32383 32.8502 -0.5773561 -0.5773662 0.5773286 107 97 99 255 0.613724 0.501809
25.4746 -0.1024828 33.13947 -0.6931564 0.0003316919 0.7207872 41 36 41 255 0.567195 0.267151
25.47681 4.519623 33.13947 -0.3015094 -0.301499 0.9045388 82 69 66 255 0.567195 0.501809
25.47681 -0.08171272 32.8502 -0.7253326 0.00033383 0.6883986 46 45 46 255 0.613724 0.267151
25.47681 4.519623 32.8502 -0.5773431 -0.5773531 0.5773546 107 97 99 255 0.613724 0.501809
25.47681 9.32383 33.13947 -0.3015127 -0.3015118 0.9045334 82 69 66 255 0.240469 0.003127
18.7701 9.323828 33.13947 0.3015159 -0.3015218 0.9045291 112 89 71 255 0.635008 0.003127
25.47681 9.32383 32.8502 -0.5773561 -0.5773662 0.5773286 107 97 99 255 0.240469 0.034414
18.7701 9.323828 32.8502 0.5773547 -0.5773483 0.5773478 46 25 13 255 0.635008 0.034414
25.47681 4.519623 33.13947 -0.3015094 -0.301499 0.9045388 82 69 66 255 0.240469 0.003127
18.7701 4.51962 33.13948 0.3015163 -0.3015301 0.9045261 46 22 13 255 0.635008 0.003127
25.47681 4.519623 32.8502 -0.5773431 -0.5773531 0.5773546 107 97 99 255 0.240469 0.034414
18.7701 4.51962 32.8502 0.5773508 -0.5773503 0.5773498 46 25 13 255 0.635008 0.034414
27.27845 -0.1024823 33.13947 1.370514e-06 -1.629207e-07 1 211 207 211 255 0.931473 0.597608
26.69703 10.90569 32.68532 -0.7071081 1.152022e-07 -0.7071056 21 25 30 255 0.989653 1.000684
17.85522 10.90569 32.68533 0.7071068 1.152023e-07 -0.7071068 49 26 13 255 0.580318 1.000684
26.69703 10.99315 32.68532 -0.3015154 0.904531 -0.3015164 21 25 30 255 0.989653 1.000684
17.85522 10.99315 32.68533 0.3015174 0.9045306 -0.3015156 33 32 33 255 0.580318 1.000684
17.50638 10.90569 33.13948 1.055502e-06 -0.7071079 0.7071056 123 101 74 255 0.580318 1.000684
27.27845 10.90569 33.13947 1.42318e-06 -0.707109 0.7071046 156 117 90 255 0.989653 1.000684
17.50638 10.90569 33.25023 1.058841e-06 -0.7071088 0.7071049 41 20 8 255 0.580318 1.000684
27.27845 10.90569 33.25021 1.058844e-06 -0.7071065 0.7071071 41 20 8 255 0.989653 1.000684
17.85522 10.90569 32.68533 0.7071068 1.152023e-07 -0.7071068 49 26 13 255 1.5e-05 0.01774
26.69703 10.90569 32.68532 -0.7071081 1.152022e-07 -0.7071056 21 25 30 255 0.999985 0.017739
17.85522 10.7083 32.68533 0.7071025 1.15203e-07 -0.7071111 99 93 82 255 1.5e-05 0.040064
26.69703 10.7083 32.68532 -0.7071133 1.152013e-07 -0.7071003 49 32 33 255 0.999985 0.040064
26.69703 10.90569 32.68532 -0.7071081 1.152022e-07 -0.7071056 21 25 30 255 1.3e-05 1.8e-05
26.69701 10.90569 27.21529 -1 -4.544714e-13 3.115367e-06 57 28 8 255 0.86875 1.3e-05
26.69703 10.7083 32.68532 -0.7071133 1.152013e-07 -0.7071003 49 32 33 255 1.3e-05 0.015758
26.69701 10.7083 27.21529 -1 -4.544714e-13 3.115367e-06 27 33 35 255 0.86875 0.015758
17.85522 10.90569 27.20393 1 3.603655e-12 -2.244492e-05 30 33 35 255 0.894198 0.034377
17.85522 10.90569 27.54885 1 1.801817e-12 -1.138532e-05 49 28 16 255 0.477208 0.034377
17.85522 10.7083 27.20393 1 3.603655e-12 -2.244492e-05 30 33 38 255 0.894198 0.018632
17.85522 10.7083 27.54885 1 1.801812e-12 -1.138528e-05 30 32 33 255 0.477208 0.018632
17.85522 10.90569 32.68533 0.7071068 1.152023e-07 -0.7071068 49 26 13 255 0.067483 0.034378
17.85522 10.7083 32.68533 0.7071025 1.15203e-07 -0.7071111 99 93 82 255 0.067483 0.018632
27.27845 10.99315 33.13947 -1.035329e-07 1 4.8698e-07 24 25 27 255 0.229141 0.002363
27.27843 10.99315 27.03486 -3.988466e-08 1 -1.235781e-07 41 20 16 255 0.936516 0.002363
26.69703 10.99315 32.68532 -0.3015154 0.904531 -0.3015164 21 25 30 255 0.257014 0.038047
26.69701 10.99315 27.21529 -0.6428462 0.7659953 1.897807e-06 57 28 8 255 0.925442 0.038047
27.27845 10.99315 33.13947 -1.035329e-07 1 4.8698e-07 24 25 27 255 0.880112 0.002578
26.69703 10.99315 32.68532 -0.3015154 0.904531 -0.3015164 21 25 30 255 0.836445 0.036686
17.50638 10.99315 33.13948 -2.077734e-07 1 1.637155e-07 16 20 24 255 0.14619 0.002579
17.85522 10.99315 32.68533 0.3015174 0.9045306 -0.3015156 33 32 33 255 0.17239 0.036686
17.50638 10.99315 33.13948 -2.077734e-07 1 1.637155e-07 16 20 24 255 1.262657 5.6e-05
17.85522 10.99315 32.68533 0.3015174 0.9045306 -0.3015156 33 32 33 255 1.212261 0.038767
17.50637 10.99315 27.70372 -5.542226e-08 1 -2.403326e-09 18 21 24 255 0.659446 5.5e-05
17.85522 10.99315 27.54885 0.7071036 0.70711 -8.060209e-06 41 28 24 255 0.64226 0.038767
17.50636 10.99315 27.0542 -9.184697e-15 1 -2.818764e-08 24 24 33 255 0.045523 5.5e-05
17.85522 10.99315 27.20393 0.6222208 0.7828418 -1.41545e-05 49 28 16 255 0.062138 0.038767
17.85522 10.90569 32.68533 0.7071068 1.152023e-07 -0.7071068 49 26 13 255 0.529953 0.024696
17.85522 10.90569 27.54885 1 1.801817e-12 -1.138532e-05 49 28 16 255 0.819023 0.024696
17.85522 10.99315 32.68533 0.3015174 0.9045306 -0.3015156 33 32 33 255 0.529953 0.024696
17.85522 10.99315 27.54885 0.7071036 0.70711 -8.060209e-06 41 28 24 255 0.819023 0.024696
17.85522 10.90569 27.54885 1 1.801817e-12 -1.138532e-05 49 28 16 255 0.486118 0.0313
17.85522 10.90569 27.20393 1 3.603655e-12 -2.244492e-05 30 33 35 255 0.780324 0.0313
17.85522 10.99315 27.54885 0.7071036 0.70711 -8.060209e-06 41 28 24 255 0.486118 0.0313
17.85522 10.99315 27.20393 0.6222208 0.7828418 -1.41545e-05 49 28 16 255 0.780324 0.0313
26.69701 10.90569 27.21529 -1 -4.544714e-13 3.115367e-06 57 28 8 255 0.334226 0.009552
26.69703 10.90569 32.68532 -0.7071081 1.152022e-07 -0.7071056 21 25 30 255 0.754985 0.009552
26.69701 10.99315 27.21529 -0.6428462 0.7659953 1.897807e-06 57 28 8 255 0.334226 0.009552
26.69703 10.99315 32.68532 -0.3015154 0.904531 -0.3015164 21 25 30 255 0.754985 0.009552
17.50638 10.90569 33.25023 1.058841e-06 -0.7071088 0.7071049 41 20 8 255 1.087945 0.03857
27.27845 10.90569 33.25021 1.058844e-06 -0.7071065 0.7071071 41 20 8 255 0.088084 0.03857
17.50638 10.99315 33.25023 7.828134e-07 0.7071058 0.7071078 33 32 33 255 1.087833 0.02112
27.27845 10.99315 33.25021 7.828086e-07 0.7071089 0.7071046 24 25 27 255 0.087972 0.02112
27.27845 10.99315 33.25021 7.828086e-07 0.7071089 0.7071046 24 25 27 255 0.880112 0.002578
17.50638 10.99315 33.25023 7.828134e-07 0.7071058 0.7071078 33 32 33 255 0.14619 0.002579
27.18752 10.55792 32.82315 9.913713e-08 1 -3.380162e-07 51 32 30 255 0.4681462 0.06165552
17.5678 10.55792 28.49922 9.913721e-08 1 -2.532468e-07 43 26 24 255 0.2337773 0.09558034
17.5678 10.55792 32.82315 9.913727e-08 1 -2.039212e-07 49 30 30 255 0.2337773 0.06165552
27.26675 -0.1433959 33.13063 1 -1.899884e-08 -3.258414e-07 211 209 214 255 0.9561014 0.6755541
27.26675 10.97689 29.55405 1 -7.691392e-08 -3.258414e-07 165 174 156 255 1.000411 0.7933448
27.26675 10.97689 33.13063 1 -9.591277e-08 -3.258414e-07 132 89 66 255 0.9561014 0.7933448
17.50523 10.97689 29.55405 -1 8.27925e-09 3.258414e-07 165 174 156 255 1.000411 0.7933448
17.50523 -0.1433959 33.13063 -1 2.045094e-09 3.258414e-07 211 209 214 255 0.9561014 0.6755541
17.50523 10.97689 33.13063 -1 1.032435e-08 3.258414e-07 132 89 66 255 0.9561014 0.7933448
-70.33775 9.323828 33.13947 1.593372e-06 -8.457118e-07 1 137 97 74 255 0.627646 0.934163
-70.33775 6.564578 33.13948 3.123101e-06 7.40587e-07 1 148 110 90 255 0.697253 0.934163
-69.07403 9.323828 33.13947 0.3015159 -0.3015218 0.9045291 46 22 13 255 0.627646 0.985889
-69.07403 6.564578 33.13947 0.3015161 0.3015113 0.9045325 140 109 90 255 0.697253 0.985889
-70.33775 3.187042 33.13948 3.330804e-06 -1.65664e-07 1 170 157 145 255 0.548456 0.711588
-70.33775 -0.1024852 33.13948 3.408969e-06 -1.629207e-07 1 211 215 208 255 0.548456 0.628389
-69.08057 -0.1024847 33.13947 0.6823123 -0.0009676212 0.7310603 198 195 198 255 0.585526 0.628389
-70.33775 10.90569 33.13948 1.055502e-06 -0.7071079 0.7071056 41 20 8 255 0.265628 0.785391
-70.33775 9.323828 33.13947 1.593372e-06 -8.457118e-07 1 137 97 74 255 0.265628 0.738702
-60.56567 10.90569 33.13947 1.42318e-06 -0.707109 0.7071046 156 117 90 255 0.674963 0.785391
-69.07403 9.323828 33.13947 0.3015159 -0.3015218 0.9045291 46 22 13 255 0.318563 0.738702
-60.56567 9.32383 33.13946 2.261175e-06 -8.957646e-07 1 148 101 82 255 0.674963 0.738702
-62.36731 9.32383 33.13947 -0.3015127 -0.3015118 0.9045334 43 21 10 255 0.599496 0.738702
-70.33775 4.481922 33.13948 3.321273e-06 2.863068e-07 1 115 97 90 255 0.546394 0.7439
-69.07403 4.51962 33.13948 0.3015163 -0.3015302 0.9045261 115 87 79 255 0.588145 0.744955
-70.33775 6.564578 33.13948 3.123101e-06 7.40587e-07 1 148 110 90 255 0.546394 0.802197
-69.07403 6.564578 33.13947 0.3015161 0.3015113 0.9045325 140 109 90 255 0.588145 0.802197
-70.33775 4.481922 33.13948 3.321273e-06 2.863068e-07 1 115 97 90 255 0.548456 0.744338
-69.07403 4.51962 33.13948 0.3015163 -0.3015302 0.9045261 115 87 79 255 0.585719 0.745292
-69.07403 4.51962 32.8502 0.5773507 -0.5773503 0.5773498 46 45 46 255 0.036553 0.612306
-69.07403 -0.08171463 32.8502 0.7148311 -0.0009749828 0.6992966 123 113 107 255 0.036553 0.509304
-62.36731 4.519623 32.8502 -0.5773432 -0.5773531 0.5773546 35 32 32 255 0.247374 0.612306
-62.36731 -0.08171272 32.8502 -0.7253326 0.0003342654 0.6883986 46 45 46 255 0.247374 0.509304
-69.07403 9.323828 33.13947 0.3015159 -0.3015218 0.9045291 46 22 13 255 0.567195 0.267151
-69.07403 6.564578 33.13947 0.3015161 0.3015113 0.9045325 140 109 90 255 0.567195 0.501809
-69.07403 9.323828 32.8502 0.5773547 -0.5773483 0.5773478 46 45 46 255 0.613724 0.267151
-69.07403 6.564578 32.8502 0.577357 0.5773656 0.5773282 35 32 32 255 0.613724 0.501809
-69.07403 6.564578 33.13947 0.3015161 0.3015113 0.9045325 140 109 90 255 0.633253 0.789044
-69.07403 4.51962 33.13948 0.3015163 -0.3015302 0.9045261 115 87 79 255 0.633253 0.742845
-62.36731 6.56458 33.13947 -0.3015129 0.3015197 0.9045308 41 36 41 255 0.914186 0.789044
-62.36731 4.519623 33.13947 -0.3015094 -0.301499 0.9045388 43 21 10 255 0.914186 0.742845
-69.07403 6.564578 33.13947 0.3015161 0.3015113 0.9045325 140 109 90 255 0.240469 0.003127
-62.36731 6.56458 33.13947 -0.3015129 0.3015197 0.9045308 41 36 41 255 0.635008 0.003127
-69.07403 6.564578 32.8502 0.577357 0.5773656 0.5773282 35 32 32 255 0.240469 0.034414
-62.36731 6.56458 32.8502 -0.577354 0.5773481 0.5773488 46 45 46 255 0.635008 0.034414
-62.36952 -0.1024828 33.13947 -0.6931564 0.0003321246 0.7207872 206 211 206 255 0.875073 0.597608
-60.56567 3.187044 33.13947 1.337732e-06 -1.631958e-07 1 132 85 57 255 0.931473 0.713278
-62.36731 4.519623 33.13947 -0.3015094 -0.301499 0.9045388 43 21 10 255 0.875142 0.760136
-60.56567 4.481925 33.13947 1.36773e-06 2.888997e-07 1 132 85 66 255 0.931473 0.75881
-62.36731 6.56458 33.13947 -0.3015129 0.3015197 0.9045308 41 36 41 255 0.714132 0.867926
-62.36731 4.519623 33.13947 -0.3015094 -0.301499 0.9045388 43 21 10 255 0.786038 0.867926
-60.56567 6.564579 33.13947 1.376793e-06 9.908026e-07 1 156 121 107 255 0.714132 0.943393
-60.56567 4.481925 33.13947 1.36773e-06 2.888997e-07 1 132 85 66 255 0.787364 0.943393
-62.36731 9.32383 33.13947 -0.3015127 -0.3015118 0.9045334 43 21 10 255 0.875203 0.930329
-62.36731 6.56458 33.13947 -0.3015129 0.3015197 0.9045308 41 36 41 255 0.875203 0.858119
-60.56567 9.32383 33.13946 2.261175e-06 -8.957646e-07 1 148 101 82 255 0.934075 0.930329
-60.56567 6.564579 33.13947 1.376793e-06 9.908026e-07 1 156 121 107 255 0.934075 0.858119
-69.07403 9.323828 32.8502 0.5773547 -0.5773483 0.5773478 46 45 46 255 0.998953 0.183198
-69.07403 6.564578 32.8502 0.577357 0.5773656 0.5773282 35 32 32 255 0.998953 0.272405
-62.36731 9.32383 32.8502 -0.5773561 -0.5773662 0.5773286 35 32 32 255 0.716252 0.183198
-62.36731 6.56458 32.8502 -0.577354 0.5773481 0.5773488 46 45 46 255 0.716252 0.272405
-69.08057 -0.1024847 33.13947 0.6823123 -0.0009676212 0.7310603 198 195 198 255 0.567195 0.501809
-69.07403 -0.08171463 32.8502 0.7148311 -0.0009749828 0.6992966 123 113 107 255 0.613724 0.501809
-69.07403 4.51962 33.13948 0.3015163 -0.3015302 0.9045261 115 87 79 255 0.567195 0.267151
-69.07403 4.51962 32.8502 0.5773507 -0.5773503 0.5773498 46 45 46 255 0.613724 0.267151
-62.36731 6.56458 33.13947 -0.3015129 0.3015197 0.9045308 41 36 41 255 0.567195 0.267151
-62.36731 9.32383 33.13947 -0.3015127 -0.3015118 0.9045334 43 21 10 255 0.567195 0.501809
-62.36731 6.56458 32.8502 -0.577354 0.5773481 0.5773488 46 45 46 255 0.613724 0.267151
-62.36731 9.32383 32.8502 -0.5773561 -0.5773662 0.5773286 35 32 32 255 0.613724 0.501809
-62.36952 -0.1024828 33.13947 -0.6931564 0.0003321246 0.7207872 206 211 206 255 0.567195 0.267151
-62.36731 4.519623 33.13947 -0.3015094 -0.301499 0.9045388 43 21 10 255 0.567195 0.501809
-62.36731 -0.08171272 32.8502 -0.7253326 0.0003342654 0.6883986 46 45 46 255 0.613724 0.267151
-62.36731 4.519623 32.8502 -0.5773432 -0.5773531 0.5773546 35 32 32 255 0.613724 0.501809
-62.36731 9.32383 33.13947 -0.3015127 -0.3015118 0.9045334 43 21 10 255 0.240469 0.003127
-69.07403 9.323828 33.13947 0.3015159 -0.3015218 0.9045291 46 22 13 255 0.635008 0.003127
-62.36731 9.32383 32.8502 -0.5773561 -0.5773662 0.5773286 35 32 32 255 0.240469 0.034414
-69.07403 9.323828 32.8502 0.5773547 -0.5773483 0.5773478 46 45 46 255 0.635008 0.034414
-62.36731 4.519623 33.13947 -0.3015094 -0.301499 0.9045388 43 21 10 255 0.240469 0.003127
-69.07403 4.51962 33.13948 0.3015163 -0.3015302 0.9045261 115 87 79 255 0.635008 0.003127
-62.36731 4.519623 32.8502 -0.5773432 -0.5773531 0.5773546 35 32 32 255 0.240469 0.034414
-69.07403 4.51962 32.8502 0.5773507 -0.5773503 0.5773498 46 45 46 255 0.635008 0.034414
-60.56567 -0.1024823 33.13947 1.450873e-06 -1.629207e-07 1 211 207 211 255 0.931473 0.597608
-61.14709 10.90569 32.68532 -0.7071081 1.152022e-07 -0.7071056 41 20 8 255 0.989653 1.000684
-69.9889 10.90569 32.68533 0.7071068 1.152023e-07 -0.7071068 49 26 13 255 0.580318 1.000684
-61.14709 10.99315 32.68532 -0.3015154 0.904531 -0.3015164 41 20 8 255 0.989653 1.000684
-69.9889 10.99315 32.68533 0.3015174 0.9045306 -0.3015156 30 36 41 255 0.580318 1.000684
-70.33775 10.90569 33.13948 1.055502e-06 -0.7071079 0.7071056 41 20 8 255 0.580318 1.000684
-60.56567 10.90569 33.13947 1.42318e-06 -0.707109 0.7071046 156 117 90 255 0.989653 1.000684
-70.33775 10.90569 33.25023 1.058841e-06 -0.7071088 0.7071049 41 20 8 255 0.580318 1.000684
-60.56567 10.90569 33.25021 1.058844e-06 -0.7071065 0.7071071 41 20 8 255 0.989653 1.000684
-69.9889 10.90569 32.68533 0.7071068 1.152023e-07 -0.7071068 49 26 13 255 1.5e-05 0.01774
-61.14709 10.90569 32.68532 -0.7071081 1.152022e-07 -0.7071056 41 20 8 255 0.999985 0.017739
-69.9889 10.7083 32.68533 0.7071025 1.15203e-07 -0.7071111 99 93 82 255 1.5e-05 0.040064
-61.14709 10.7083 32.68532 -0.7071133 1.152013e-07 -0.7071003 30 33 38 255 0.999985 0.040064
-61.14709 10.90569 32.68532 -0.7071081 1.152022e-07 -0.7071056 41 20 8 255 1.3e-05 1.8e-05
-61.14711 10.90569 27.21529 -1 -4.544714e-13 3.115367e-06 57 28 8 255 0.86875 1.3e-05
-61.14709 10.7083 32.68532 -0.7071133 1.152013e-07 -0.7071003 30 33 38 255 1.3e-05 0.015758
-61.14711 10.7083 27.21529 -1 -4.544714e-13 3.115367e-06 27 33 35 255 0.86875 0.015758
-69.98891 10.90569 27.20393 1 3.603652e-12 -2.24449e-05 30 33 35 255 0.894198 0.034377
-69.9889 10.90569 27.54885 1 1.801818e-12 -1.138532e-05 49 28 16 255 0.477208 0.034377
-69.98891 10.7083 27.20393 1 3.603653e-12 -2.24449e-05 30 33 38 255 0.894198 0.018632
-69.9889 10.7083 27.54885 1 1.801815e-12 -1.13853e-05 30 32 33 255 0.477208 0.018632
-69.9889 10.90569 32.68533 0.7071068 1.152023e-07 -0.7071068 49 26 13 255 0.067483 0.034378
-69.9889 10.7083 32.68533 0.7071025 1.15203e-07 -0.7071111 99 93 82 255 0.067483 0.018632
-60.56567 10.99315 33.13947 -1.035336e-07 1 4.869809e-07 24 25 27 255 0.229141 0.002363
-60.56569 10.99315 27.03486 -3.988498e-08 1 -1.235791e-07 41 20 16 255 0.936516 0.002363
-61.14709 10.99315 32.68532 -0.3015154 0.904531 -0.3015164 41 20 8 255 0.257014 0.038047
-61.14711 10.99315 27.21529 -0.6428462 0.7659953 1.897806e-06 57 28 8 255 0.925442 0.038047
-60.56567 10.99315 33.13947 -1.035336e-07 1 4.869809e-07 24 25 27 255 0.880112 0.002578
-61.14709 10.99315 32.68532 -0.3015154 0.904531 -0.3015164 41 20 8 255 0.836445 0.036686
-70.33775 10.99315 33.13948 -2.077734e-07 1 1.637154e-07 16 20 24 255 0.14619 0.002579
-69.9889 10.99315 32.68533 0.3015174 0.9045306 -0.3015156 30 36 41 255 0.17239 0.036686
-70.33775 10.99315 33.13948 -2.077734e-07 1 1.637154e-07 16 20 24 255 1.262657 5.6e-05
-69.9889 10.99315 32.68533 0.3015174 0.9045306 -0.3015156 30 36 41 255 1.212261 0.038767
-70.33775 10.99315 27.70372 -5.542088e-08 1 -2.398821e-09 18 21 24 255 0.659446 5.5e-05
-69.9889 10.99315 27.54885 0.7071036 0.70711 -8.060207e-06 30 33 35 255 0.64226 0.038767
-70.33776 10.99315 27.0542 -9.184697e-15 1 -2.818764e-08 24 24 33 255 0.045523 5.5e-05
-69.98891 10.99315 27.20393 0.6222208 0.7828418 -1.41545e-05 30 33 35 255 0.062138 0.038767
-69.9889 10.90569 32.68533 0.7071068 1.152023e-07 -0.7071068 49 26 13 255 0.529953 0.024696
-69.9889 10.90569 27.54885 1 1.801818e-12 -1.138532e-05 49 28 16 255 0.819023 0.024696
-69.9889 10.99315 32.68533 0.3015174 0.9045306 -0.3015156 30 36 41 255 0.529953 0.024696
-69.9889 10.99315 27.54885 0.7071036 0.70711 -8.060207e-06 30 33 35 255 0.819023 0.024696
-69.9889 10.90569 27.54885 1 1.801818e-12 -1.138532e-05 49 28 16 255 0.486118 0.0313
-69.98891 10.90569 27.20393 1 3.603652e-12 -2.24449e-05 30 33 35 255 0.780324 0.0313
-69.9889 10.99315 27.54885 0.7071036 0.70711 -8.060207e-06 30 33 35 255 0.486118 0.0313
-69.98891 10.99315 27.20393 0.6222208 0.7828418 -1.41545e-05 30 33 35 255 0.780324 0.0313
-61.14711 10.90569 27.21529 -1 -4.544714e-13 3.115367e-06 57 28 8 255 0.334226 0.009552
-61.14709 10.90569 32.68532 -0.7071081 1.152022e-07 -0.7071056 41 20 8 255 0.754985 0.009552
-61.14711 10.99315 27.21529 -0.6428462 0.7659953 1.897806e-06 57 28 8 255 0.334226 0.009552
-61.14709 10.99315 32.68532 -0.3015154 0.904531 -0.3015164 41 20 8 255 0.754985 0.009552
-70.33775 10.90569 33.25023 1.058841e-06 -0.7071088 0.7071049 41 20 8 255 1.087945 0.03857
-60.56567 10.90569 33.25021 1.058844e-06 -0.7071065 0.7071071 41 20 8 255 0.088084 0.03857
-70.33775 10.99315 33.25023 7.828136e-07 0.7071058 0.7071078 16 20 24 255 1.087833 0.02112
-60.56567 10.99315 33.25021 7.828084e-07 0.7071089 0.7071046 24 25 27 255 0.087972 0.02112
-60.56567 10.99315 33.25021 7.828084e-07 0.7071089 0.7071046 24 25 27 255 0.880112 0.002578
-70.33775 10.99315 33.25023 7.828136e-07 0.7071058 0.7071078 16 20 24 255 0.14619 0.002579
-60.6566 10.55792 32.82315 9.913717e-08 1 -2.532467e-07 51 32 30 255 0.4681462 0.06165552
-70.27632 10.55792 28.49922 9.913715e-08 1 -3.380162e-07 43 26 24 255 0.2337773 0.09558034
-70.27632 10.55792 32.82315 9.913715e-08 1 -3.873418e-07 49 30 30 255 0.2337773 0.06165552
-60.57738 -0.1433959 33.13063 1 3.388132e-21 -3.258414e-07 211 209 214 255 0.9561014 0.6755541
-60.57738 10.97689 29.55405 1 3.388132e-21 -3.258414e-07 165 174 156 255 1.000411 0.7933448
-60.57738 10.97689 33.13063 1 3.388132e-21 -3.258414e-07 132 89 66 255 0.9561014 0.7933448
-70.3389 10.97689 29.55405 -1 2.510099e-07 3.258414e-07 165 174 156 255 1.000411 0.7933448
-70.3389 -0.1433959 33.13063 -1 6.200306e-08 3.258414e-07 211 209 214 255 0.9561014 0.6755541
-70.3389 10.97689 33.13063 -1 3.13013e-07 3.258414e-07 132 89 66 255 0.9561014 0.7933448
-60.55534 9.323828 -32.24107 -9.964189e-06 -1.495526e-06 -1 137 97 74 255 0.627646 0.934163
-60.55534 6.564578 -32.24107 -4.761794e-06 1.167416e-06 -1 173 138 107 255 0.697253 0.934163
-61.81906 9.323828 -32.24107 -0.3015173 -0.3015354 -0.9045241 46 22 13 255 0.627646 0.985889
-61.81906 6.564578 -32.24107 -0.3015143 0.3015117 -0.9045329 43 21 10 255 0.697253 0.985889
-60.55534 3.187042 -32.24108 3.041405e-06 1.629207e-07 -1 170 157 145 255 0.548456 0.711588
-60.55534 -0.1024852 -32.24108 -2.681284e-07 1.629207e-07 -1 211 215 208 255 0.548456 0.628389
-61.81252 -0.1024847 -32.24108 -0.6823111 -0.0009673483 -0.7310613 82 69 66 255 0.585526 0.628389
-60.55534 10.90569 -32.24107 -1.764399e-06 -0.7071068 -0.7071068 41 20 8 255 0.265628 0.785391
-60.55534 9.323828 -32.24107 -9.964189e-06 -1.495526e-06 -1 137 97 74 255 0.265628 0.738702
-70.32742 10.90569 -32.24107 -5.110194e-07 -0.7071092 -0.7071044 156 117 90 255 0.674963 0.785391
-61.81906 9.323828 -32.24107 -0.3015173 -0.3015354 -0.9045241 46 22 13 255 0.318563 0.738702
-70.32742 9.32383 -32.24106 -3.346814e-07 -1.739467e-06 -1 132 105 82 255 0.674963 0.738702
-68.52578 9.32383 -32.24107 0.3015139 -0.3015115 -0.9045331 134 101 82 255 0.599496 0.738702
-60.55534 4.481922 -32.24108 -6.013536e-06 1.629207e-07 -1 115 97 90 255 0.546394 0.7439
-61.81906 4.51962 -32.24107 -0.3015168 -0.3015297 -0.9045261 46 22 13 255 0.588145 0.744955
-60.55534 6.564578 -32.24107 -4.761794e-06 1.167416e-06 -1 173 138 107 255 0.546394 0.802197
-61.81906 6.564578 -32.24107 -0.3015143 0.3015117 -0.9045329 43 21 10 255 0.588145 0.802197
-60.55534 4.481922 -32.24108 -6.013536e-06 1.629207e-07 -1 115 97 90 255 0.548456 0.744338
-61.81906 4.51962 -32.24107 -0.3015168 -0.3015297 -0.9045261 46 22 13 255 0.585719 0.745292
-61.81906 4.51962 -31.95181 -0.577351 -0.5773504 -0.5773495 46 25 13 255 0.036553 0.612306
-61.81906 -0.08171463 -31.9518 -0.7148309 -0.0009750238 -0.6992967 107 97 99 255 0.036553 0.509304
-68.52578 4.519623 -31.95179 0.5773434 -0.5773526 -0.577355 35 32 32 255 0.247374 0.612306
-68.52578 -0.08171272 -31.9518 0.7253327 0.0003344769 -0.6883984 46 45 46 255 0.247374 0.509304
-61.81906 9.323828 -32.24107 -0.3015173 -0.3015354 -0.9045241 46 22 13 255 0.567195 0.267151
-61.81906 6.564578 -32.24107 -0.3015143 0.3015117 -0.9045329 43 21 10 255 0.567195 0.501809
-61.81906 9.323828 -31.9518 -0.5773546 -0.5773488 -0.5773475 46 25 13 255 0.613724 0.267151
-61.81906 6.564578 -31.9518 -0.5773569 0.5773658 -0.5773281 35 32 32 255 0.613724 0.501809
-61.81906 6.564578 -32.24107 -0.3015143 0.3015117 -0.9045329 43 21 10 255 0.633253 0.789044
-61.81906 4.51962 -32.24107 -0.3015168 -0.3015297 -0.9045261 46 22 13 255 0.633253 0.742845
-68.52578 6.56458 -32.24107 0.3015137 0.3015198 -0.9045305 156 119 96 255 0.914186 0.789044
-68.52578 4.519623 -32.24107 0.3015115 -0.3014992 -0.904538 43 21 10 255 0.914186 0.742845
-61.81906 6.564578 -32.24107 -0.3015143 0.3015117 -0.9045329 43 21 10 255 0.240469 0.003127
-68.52578 6.56458 -32.24107 0.3015137 0.3015198 -0.9045305 156 119 96 255 0.635008 0.003127
-61.81906 6.564578 -31.9518 -0.5773569 0.5773658 -0.5773281 35 32 32 255 0.240469 0.034414
-68.52578 6.56458 -31.95179 0.5773537 0.5773484 -0.5773489 46 45 46 255 0.635008 0.034414
-68.52357 -0.1024828 -32.24107 0.6931564 0.0003312003 -0.7207872 206 211 206 255 0.875073 0.597608
-70.32742 3.187044 -32.24107 6.239545e-07 -2.073751e-07 -1 132 85 57 255 0.931473 0.713278
-68.52578 4.519623 -32.24107 0.3015115 -0.3014992 -0.904538 43 21 10 255 0.875142 0.760136
-70.32742 4.481925 -32.24107 5.809326e-06 1.629207e-07 -1 132 85 66 255 0.931473 0.75881
-68.52578 6.56458 -32.24107 0.3015137 0.3015198 -0.9045305 156 119 96 255 0.714132 0.867926
-68.52578 4.519623 -32.24107 0.3015115 -0.3014992 -0.904538 43 21 10 255 0.786038 0.867926
-70.32742 6.564579 -32.24107 9.648834e-07 1.545397e-06 -1 156 121 107 255 0.714132 0.943393
-70.32742 4.481925 -32.24107 5.809326e-06 1.629207e-07 -1 132 85 66 255 0.787364 0.943393
-68.52578 9.32383 -32.24107 0.3015139 -0.3015115 -0.9045331 134 101 82 255 0.875203 0.930329
-68.52578 6.56458 -32.24107 0.3015137 0.3015198 -0.9045305 156 119 96 255 0.875203 0.858119
-70.32742 9.32383 -32.24106 -3.346814e-07 -1.739467e-06 -1 132 105 82 255 0.934075 0.930329
-70.32742 6.564579 -32.24107 9.648834e-07 1.545397e-06 -1 156 121 107 255 0.934075 0.858119
-61.81906 9.323828 -31.9518 -0.5773546 -0.5773488 -0.5773475 46 25 13 255 0.998953 0.183198
-61.81906 6.564578 -31.9518 -0.5773569 0.5773658 -0.5773281 35 32 32 255 0.998953 0.272405
-68.52578 9.32383 -31.95179 0.5773557 -0.5773663 -0.5773289 35 32 32 255 0.716252 0.183198
-68.52578 6.56458 -31.95179 0.5773537 0.5773484 -0.5773489 46 45 46 255 0.716252 0.272405
-61.81252 -0.1024847 -32.24108 -0.6823111 -0.0009673483 -0.7310613 82 69 66 255 0.567195 0.501809
-61.81906 -0.08171463 -31.9518 -0.7148309 -0.0009750238 -0.6992967 107 97 99 255 0.613724 0.501809
-61.81906 4.51962 -32.24107 -0.3015168 -0.3015297 -0.9045261 46 22 13 255 0.567195 0.267151
-61.81906 4.51962 -31.95181 -0.577351 -0.5773504 -0.5773495 46 25 13 255 0.613724 0.267151
-68.52578 6.56458 -32.24107 0.3015137 0.3015198 -0.9045305 156 119 96 255 0.567195 0.267151
-68.52578 9.32383 -32.24107 0.3015139 -0.3015115 -0.9045331 134 101 82 255 0.567195 0.501809
-68.52578 6.56458 -31.95179 0.5773537 0.5773484 -0.5773489 46 45 46 255 0.613724 0.267151
-68.52578 9.32383 -31.95179 0.5773557 -0.5773663 -0.5773289 35 32 32 255 0.613724 0.501809
-68.52357 -0.1024828 -32.24107 0.6931564 0.0003312003 -0.7207872 206 211 206 255 0.567195 0.267151
-68.52578 4.519623 -32.24107 0.3015115 -0.3014992 -0.904538 43 21 10 255 0.567195 0.501809
-68.52578 -0.08171272 -31.9518 0.7253327 0.0003344769 -0.6883984 46 45 46 255 0.613724 0.267151
-68.52578 4.519623 -31.95179 0.5773434 -0.5773526 -0.577355 35 32 32 255 0.613724 0.501809
-68.52578 9.32383 -32.24107 0.3015139 -0.3015115 -0.9045331 134 101 82 255 0.240469 0.003127
-61.81906 9.323828 -32.24107 -0.3015173 -0.3015354 -0.9045241 46 22 13 255 0.635008 0.003127
-68.52578 9.32383 -31.95179 0.5773557 -0.5773663 -0.5773289 35 32 32 255 0.240469 0.034414
-61.81906 9.323828 -31.9518 -0.5773546 -0.5773488 -0.5773475 46 25 13 255 0.635008 0.034414
-68.52578 4.519623 -32.24107 0.3015115 -0.3014992 -0.904538 43 21 10 255 0.240469 0.003127
-61.81906 4.51962 -32.24107 -0.3015168 -0.3015297 -0.9045261 46 22 13 255 0.635008 0.003127
-68.52578 4.519623 -31.95179 0.5773434 -0.5773526 -0.577355 35 32 32 255 0.240469 0.034414
-61.81906 4.51962 -31.95181 -0.577351 -0.5773504 -0.5773495 46 25 13 255 0.635008 0.034414
-70.32742 -0.1024823 -32.24106 -3.258414e-07 -2.156379e-06 -1 211 207 211 255 0.931473 0.597608
-69.74599 10.90569 -31.78692 0.7071081 -1.152022e-07 0.7071055 46 25 13 255 0.989653 1.000684
-60.90419 10.90569 -31.78693 -0.7071068 -1.152023e-07 0.7071068 49 26 13 255 0.580318 1.000684
-69.74599 10.99315 -31.78692 0.3015153 0.9045309 0.3015167 33 40 41 255 0.989653 1.000684
-60.90419 10.99315 -31.78693 -0.301517 0.9045306 0.3015158 41 20 8 255 0.580318 1.000684
-60.55534 10.90569 -32.24107 -1.764399e-06 -0.7071068 -0.7071068 41 20 8 255 0.580318 1.000684
-70.32742 10.90569 -32.24107 -5.110194e-07 -0.7071092 -0.7071044 156 117 90 255 0.989653 1.000684
-60.55534 10.90569 -32.35182 -1.946526e-06 -0.7071085 -0.7071052 41 20 8 255 0.580318 1.000684
-70.32742 10.90569 -32.35181 -1.16197e-06 -0.7071064 -0.7071072 41 20 8 255 0.989653 1.000684
-60.90419 10.90569 -31.78693 -0.7071068 -1.152023e-07 0.7071068 49 26 13 255 1.5e-05 0.01774
-69.74599 10.90569 -31.78692 0.7071081 -1.152022e-07 0.7071055 46 25 13 255 0.999985 0.017739
-60.90419 10.7083 -31.78693 -0.7071024 -1.15203e-07 0.7071111 99 93 82 255 1.5e-05 0.040064
-69.74599 10.7083 -31.78692 0.7071136 -1.152013e-07 0.7071 30 33 38 255 0.999985 0.040064
-69.74599 10.90569 -31.78692 0.7071081 -1.152022e-07 0.7071055 46 25 13 255 1.3e-05 1.8e-05
-69.74597 10.90569 -26.31689 1 4.544739e-13 -3.115382e-06 41 20 8 255 0.86875 1.3e-05
-69.74599 10.7083 -31.78692 0.7071136 -1.152013e-07 0.7071 30 33 38 255 1.3e-05 0.015758
-69.74597 10.7083 -26.31689 1 4.544722e-13 -3.115371e-06 27 33 35 255 0.86875 0.015758
-60.90417 10.90569 -26.30553 -1 -3.603625e-12 2.244474e-05 30 37 43 255 0.894198 0.034377
-60.90419 10.90569 -26.65045 -1 -1.801796e-12 1.138519e-05 49 28 16 255 0.477208 0.034377
-60.90417 10.7083 -26.30553 -1 -3.603621e-12 2.244471e-05 30 33 38 255 0.894198 0.018632
-60.90419 10.7083 -26.65045 -1 -1.801831e-12 1.13854e-05 30 32 33 255 0.477208 0.018632
-60.90419 10.90569 -31.78693 -0.7071068 -1.152023e-07 0.7071068 49 26 13 255 0.067483 0.034378
-60.90419 10.7083 -31.78693 -0.7071024 -1.15203e-07 0.7071111 99 93 82 255 0.067483 0.018632
-70.32742 10.99315 -32.24107 -6.290679e-08 1 -1.999543e-07 24 25 27 255 0.229141 0.002363
-70.32739 10.99315 -26.13646 -8.122443e-08 1 2.509422e-08 41 20 16 255 0.936516 0.002363
-69.74599 10.99315 -31.78692 0.3015153 0.9045309 0.3015167 33 40 41 255 0.257014 0.038047
-69.74597 10.99315 -26.31689 0.6428462 0.7659953 -1.992767e-06 41 20 16 255 0.925442 0.038047
-70.32742 10.99315 -32.24107 -6.290679e-08 1 -1.999543e-07 24 25 27 255 0.880112 0.002578
-69.74599 10.99315 -31.78692 0.3015153 0.9045309 0.3015167 33 40 41 255 0.836445 0.036686
-60.55534 10.99315 -32.24107 3.975322e-07 1 1.359105e-07 16 20 24 255 0.14619 0.002579
-60.90419 10.99315 -31.78693 -0.301517 0.9045306 0.3015158 41 20 8 255 0.17239 0.036686
-60.55534 10.99315 -32.24107 3.975322e-07 1 1.359105e-07 16 20 24 255 1.262657 5.6e-05
-60.90419 10.99315 -31.78693 -0.301517 0.9045306 0.3015158 41 20 8 255 1.212261 0.038767
-60.55534 10.99315 -26.80532 1.598655e-10 1 8.165958e-08 18 21 24 255 0.659446 5.5e-05
-60.90419 10.99315 -26.65045 -0.7071036 0.7071101 8.187032e-06 41 28 24 255 0.64226 0.038767
-60.55532 10.99315 -26.1558 1.155252e-13 1 3.545442e-07 24 24 33 255 0.045523 5.5e-05
-60.90417 10.99315 -26.30553 -0.6222212 0.7828414 1.441055e-05 49 28 16 255 0.062138 0.038767
-60.90419 10.90569 -31.78693 -0.7071068 -1.152023e-07 0.7071068 49 26 13 255 0.529953 0.024696
-60.90419 10.90569 -26.65045 -1 -1.801796e-12 1.138519e-05 49 28 16 255 0.819023 0.024696
-60.90419 10.99315 -31.78693 -0.301517 0.9045306 0.3015158 41 20 8 255 0.529953 0.024696
-60.90419 10.99315 -26.65045 -0.7071036 0.7071101 8.187032e-06 41 28 24 255 0.819023 0.024696
-60.90419 10.90569 -26.65045 -1 -1.801796e-12 1.138519e-05 49 28 16 255 0.486118 0.0313
-60.90417 10.90569 -26.30553 -1 -3.603625e-12 2.244474e-05 30 37 43 255 0.780324 0.0313
-60.90419 10.99315 -26.65045 -0.7071036 0.7071101 8.187032e-06 41 28 24 255 0.486118 0.0313
-60.90417 10.99315 -26.30553 -0.6222212 0.7828414 1.441055e-05 49 28 16 255 0.780324 0.0313
-69.74597 10.90569 -26.31689 1 4.544739e-13 -3.115382e-06 41 20 8 255 0.334226 0.009552
-69.74599 10.90569 -31.78692 0.7071081 -1.152022e-07 0.7071055 46 25 13 255 0.754985 0.009552
-69.74597 10.99315 -26.31689 0.6428462 0.7659953 -1.992767e-06 41 20 16 255 0.334226 0.009552
-69.74599 10.99315 -31.78692 0.3015153 0.9045309 0.3015167 33 40 41 255 0.754985 0.009552
-60.55534 10.90569 -32.35182 -1.946526e-06 -0.7071085 -0.7071052 41 20 8 255 1.087945 0.03857
-70.32742 10.90569 -32.35181 -1.16197e-06 -0.7071064 -0.7071072 41 20 8 255 0.088084 0.03857
-60.55534 10.99315 -32.35182 -1.66601e-06 0.7071059 -0.7071077 16 20 24 255 1.087833 0.02112
-70.32742 10.99315 -32.35181 -8.814234e-07 0.7071092 -0.7071044 24 25 27 255 0.087972 0.02112
-70.32742 10.99315 -32.35181 -8.814234e-07 0.7071092 -0.7071044 24 25 27 255 0.880112 0.002578
-60.55534 10.99315 -32.35182 -1.66601e-06 0.7071059 -0.7071077 16 20 24 255 0.14619 0.002579
-70.23649 10.55792 -31.92474 -9.913724e-08 1 2.97016e-07 51 32 30 255 0.4681462 0.06165552
-60.61677 10.55792 -27.60082 -9.913729e-08 1 2.122463e-07 43 26 24 255 0.2337773 0.09558034
-60.61677 10.55792 -31.92475 -9.913732e-08 1 1.629207e-07 49 30 30 255 0.2337773 0.06165552
-70.31571 -0.1433959 -32.23222 -1 -7.250324e-07 3.258413e-07 211 209 214 255 0.9561014 0.6755541
-70.31571 10.97689 -28.65565 -1 -1.790934e-07 3.258413e-07 165 174 156 255 1.000411 0.7933448
-70.31571 10.97689 -32.23222 -1 -3.388132e-21 3.258414e-07 132 89 66 255 0.9561014 0.7933448
-60.55419 10.97689 -28.65565 1 -3.039813e-07 -3.258414e-07 165 174 156 255 1.000411 0.7933448
-60.55419 -0.1433959 -32.23223 1 -1.230623e-06 -3.258416e-07 211 209 214 255 0.9561014 0.6755541
-60.55419 10.97689 -32.23222 1 3.388132e-21 -3.258414e-07 132 89 66 255 0.9561014 0.7933448
48.62447 9.323828 -32.24107 -1.10552e-06 -1.495525e-06 -1 137 97 74 255 0.627646 0.934163
48.62447 6.564578 -32.24107 -3.258414e-07 1.167416e-06 -1 173 138 107 255 0.697253 0.934163
47.36076 9.323828 -32.24107 -0.3015217 -0.3015349 -0.9045227 112 89 71 255 0.627646 0.985889
47.36076 6.564578 -32.24107 -0.3015137 0.3015118 -0.9045331 131 99 79 255 0.697253 0.985889
48.62447 3.187042 -32.24107 1.933462e-06 1.629207e-07 -1 170 157 145 255 0.548456 0.711588
48.62447 -0.1024852 -32.24107 -2.681373e-07 1.629207e-07 -1 211 215 208 255 0.548456 0.628389
47.36729 -0.1024847 -32.24107 -0.6823112 -0.0009654448 -0.7310612 82 69 66 255 0.585526 0.628389
48.62447 10.90569 -32.24107 -3.684204e-07 -0.7071068 -0.7071068 123 101 74 255 0.265628 0.785391
48.62447 9.323828 -32.24107 -1.10552e-06 -1.495525e-06 -1 137 97 74 255 0.265628 0.738702
38.8524 10.90569 -32.24107 -2.578114e-06 -0.7071092 -0.7071044 41 20 8 255 0.674963 0.785391
47.36076 9.323828 -32.24107 -0.3015217 -0.3015349 -0.9045227 112 89 71 255 0.318563 0.738702
38.8524 9.32383 -32.24106 -6.889956e-06 -2.248585e-06 -1 132 105 82 255 0.674963 0.738702
40.65404 9.32383 -32.24107 0.3015099 -0.3015119 -0.9045344 134 101 82 255 0.599496 0.738702
48.62447 4.481922 -32.24107 4.424997e-06 1.629207e-07 -1 115 97 90 255 0.546394 0.7439
47.36076 4.51962 -32.24107 -0.3015136 -0.3015303 -0.904527 41 36 41 255 0.588145 0.744955
48.62447 6.564578 -32.24107 -3.258414e-07 1.167416e-06 -1 173 138 107 255 0.546394 0.802197
47.36076 6.564578 -32.24107 -0.3015137 0.3015118 -0.9045331 131 99 79 255 0.588145 0.802197
48.62447 4.481922 -32.24107 4.424997e-06 1.629207e-07 -1 115 97 90 255 0.548456 0.744338
47.36076 4.51962 -32.24107 -0.3015136 -0.3015303 -0.904527 41 36 41 255 0.585719 0.745292
47.36076 4.51962 -31.9518 -0.5773508 -0.5773508 -0.5773492 153 162 162 255 0.036553 0.612306
47.36076 -0.08171463 -31.9518 -0.7148308 -0.0009731365 -0.6992969 107 97 99 255 0.036553 0.509304
40.65404 4.519623 -31.95179 0.5773429 -0.5773528 -0.5773552 35 32 32 255 0.247374 0.612306
40.65404 -0.08171272 -31.95179 0.725332 0.0003339797 -0.6883991 189 182 173 255 0.247374 0.509304
47.36076 9.323828 -32.24107 -0.3015217 -0.3015349 -0.9045227 112 89 71 255 0.567195 0.267151
47.36076 6.564578 -32.24107 -0.3015137 0.3015118 -0.9045331 131 99 79 255 0.567195 0.501809
47.36076 9.323828 -31.9518 -0.5773546 -0.5773488 -0.5773475 46 45 46 255 0.613724 0.267151
47.36076 6.564578 -31.9518 -0.5773569 0.5773658 -0.5773281 107 97 99 255 0.613724 0.501809
47.36076 6.564578 -32.24107 -0.3015137 0.3015118 -0.9045331 131 99 79 255 0.633253 0.789044
47.36076 4.51962 -32.24107 -0.3015136 -0.3015303 -0.904527 41 36 41 255 0.633253 0.742845
40.65404 6.56458 -32.24107 0.3015099 0.3015197 -0.9045318 46 22 13 255 0.914186 0.789044
40.65404 4.519623 -32.24107 0.3015074 -0.301499 -0.9045395 43 21 10 255 0.914186 0.742845
47.36076 6.564578 -32.24107 -0.3015137 0.3015118 -0.9045331 131 99 79 255 0.240469 0.003127
40.65404 6.56458 -32.24107 0.3015099 0.3015197 -0.9045318 46 22 13 255 0.635008 0.003127
47.36076 6.564578 -31.9518 -0.5773569 0.5773658 -0.5773281 107 97 99 255 0.240469 0.034414
40.65404 6.56458 -31.95179 0.5773537 0.5773483 -0.5773489 46 45 46 255 0.635008 0.034414
40.65625 -0.1024828 -32.24107 0.6931551 0.0003307064 -0.7207885 206 211 206 255 0.875073 0.597608
38.8524 3.187044 -32.24107 -4.086185e-06 -2.073751e-07 -1 132 85 57 255 0.931473 0.713278
40.65404 4.519623 -32.24107 0.3015074 -0.301499 -0.9045395 43 21 10 255 0.875142 0.760136
38.8524 4.481925 -32.24107 -4.392047e-06 1.970202e-06 -1 132 85 66 255 0.931473 0.75881
40.65404 6.56458 -32.24107 0.3015099 0.3015197 -0.9045318 46 22 13 255 0.714132 0.867926
40.65404 4.519623 -32.24107 0.3015074 -0.301499 -0.9045395 43 21 10 255 0.786038 0.867926
38.8524 6.564579 -32.24106 -2.937843e-06 1.005112e-06 -1 156 121 107 255 0.714132 0.943393
38.8524 4.481925 -32.24107 -4.392047e-06 1.970202e-06 -1 132 85 66 255 0.787364 0.943393
40.65404 9.32383 -32.24107 0.3015099 -0.3015119 -0.9045344 134 101 82 255 0.875203 0.930329
40.65404 6.56458 -32.24107 0.3015099 0.3015197 -0.9045318 46 22 13 255 0.875203 0.858119
38.8524 9.32383 -32.24106 -6.889956e-06 -2.248585e-06 -1 132 105 82 255 0.934075 0.930329
38.8524 6.564579 -32.24106 -2.937843e-06 1.005112e-06 -1 156 121 107 255 0.934075 0.858119
47.36076 9.323828 -31.9518 -0.5773546 -0.5773488 -0.5773475 46 45 46 255 0.998953 0.183198
47.36076 6.564578 -31.9518 -0.5773569 0.5773658 -0.5773281 107 97 99 255 0.998953 0.272405
40.65404 9.32383 -31.95179 0.5773557 -0.5773663 -0.5773289 35 32 32 255 0.716252 0.183198
40.65404 6.56458 -31.95179 0.5773537 0.5773483 -0.5773489 46 45 46 255 0.716252 0.272405
47.36729 -0.1024847 -32.24107 -0.6823112 -0.0009654448 -0.7310612 82 69 66 255 0.567195 0.501809
47.36076 -0.08171463 -31.9518 -0.7148308 -0.0009731365 -0.6992969 107 97 99 255 0.613724 0.501809
47.36076 4.51962 -32.24107 -0.3015136 -0.3015303 -0.904527 41 36 41 255 0.567195 0.267151
47.36076 4.51962 -31.9518 -0.5773508 -0.5773508 -0.5773492 153 162 162 255 0.613724 0.267151
40.65404 6.56458 -32.24107 0.3015099 0.3015197 -0.9045318 46 22 13 255 0.567195 0.267151
40.65404 9.32383 -32.24107 0.3015099 -0.3015119 -0.9045344 134 101 82 255 0.567195 0.501809
40.65404 6.56458 -31.95179 0.5773537 0.5773483 -0.5773489 46 45 46 255 0.613724 0.267151
40.65404 9.32383 -31.95179 0.5773557 -0.5773663 -0.5773289 35 32 32 255 0.613724 0.501809
40.65625 -0.1024828 -32.24107 0.6931551 0.0003307064 -0.7207885 206 211 206 255 0.567195 0.267151
40.65404 4.519623 -32.24107 0.3015074 -0.301499 -0.9045395 43 21 10 255 0.567195 0.501809
40.65404 -0.08171272 -31.95179 0.725332 0.0003339797 -0.6883991 189 182 173 255 0.613724 0.267151
40.65404 4.519623 -31.95179 0.5773429 -0.5773528 -0.5773552 35 32 32 255 0.613724 0.501809
40.65404 9.32383 -32.24107 0.3015099 -0.3015119 -0.9045344 134 101 82 255 0.240469 0.003127
47.36076 9.323828 -32.24107 -0.3015217 -0.3015349 -0.9045227 112 89 71 255 0.635008 0.003127
40.65404 9.32383 -31.95179 0.5773557 -0.5773663 -0.5773289 35 32 32 255 0.240469 0.034414
47.36076 9.323828 -31.9518 -0.5773546 -0.5773488 -0.5773475 46 45 46 255 0.635008 0.034414
40.65404 4.519623 -32.24107 0.3015074 -0.301499 -0.9045395 43 21 10 255 0.240469 0.003127
47.36076 4.51962 -32.24107 -0.3015136 -0.3015303 -0.904527 41 36 41 255 0.635008 0.003127
40.65404 4.519623 -31.95179 0.5773429 -0.5773528 -0.5773552 35 32 32 255 0.240469 0.034414
47.36076 4.51962 -31.9518 -0.5773508 -0.5773508 -0.5773492 153 162 162 255 0.635008 0.034414
38.8524 -0.1024823 -32.24106 -5.468844e-06 -2.156379e-06 -1 211 207 211 255 0.931473 0.597608
39.43382 10.90569 -31.78691 0.7071084 -1.152021e-07 0.7071052 46 25 13 255 0.989653 1.000684
48.27563 10.90569 -31.78693 -0.7071066 -1.152023e-07 0.7071069 30 36 41 255 0.580318 1.000684
39.43382 10.99315 -31.78691 0.3015157 0.9045309 0.3015166 41 20 8 255 0.989653 1.000684
48.27563 10.99315 -31.78693 -0.3015174 0.9045305 0.3015159 35 38 43 255 0.580318 1.000684
48.62447 10.90569 -32.24107 -3.684204e-07 -0.7071068 -0.7071068 123 101 74 255 0.580318 1.000684
38.8524 10.90569 -32.24107 -2.578114e-06 -0.7071092 -0.7071044 41 20 8 255 0.989653 1.000684
48.62447 10.90569 -32.35182 -1.946526e-06 -0.7071085 -0.7071052 41 20 8 255 0.580318 1.000684
38.8524 10.90569 -32.35181 -1.161951e-06 -0.7071064 -0.7071072 41 20 8 255 0.989653 1.000684
48.27563 10.90569 -31.78693 -0.7071066 -1.152023e-07 0.7071069 30 36 41 255 1.5e-05 0.01774
39.43382 10.90569 -31.78691 0.7071084 -1.152021e-07 0.7071052 46 25 13 255 0.999985 0.017739
48.27563 10.7083 -31.78693 -0.7071019 -1.152031e-07 0.7071117 99 93 82 255 1.5e-05 0.040064
39.43382 10.7083 -31.78691 0.7071137 -1.152012e-07 0.7070999 30 33 38 255 0.999985 0.040064
39.43382 10.90569 -31.78691 0.7071084 -1.152021e-07 0.7071052 46 25 13 255 1.3e-05 1.8e-05
39.43384 10.90569 -26.31688 1 5.112852e-13 -3.464088e-06 41 20 8 255 0.86875 1.3e-05
39.43382 10.7083 -31.78691 0.7071137 -1.152012e-07 0.7070999 30 33 38 255 1.3e-05 0.015758
39.43384 10.7083 -26.31688 1 5.112817e-13 -3.464066e-06 27 33 35 255 0.86875 0.015758
48.27564 10.90569 -26.30552 -1 -3.603625e-12 2.244474e-05 30 33 35 255 0.894198 0.034377
48.27563 10.90569 -26.65045 -1 -1.832045e-12 1.157085e-05 30 33 35 255 0.477208 0.034377
48.27564 10.7083 -26.30552 -1 -3.603621e-12 2.244471e-05 30 33 38 255 0.894198 0.018632
48.27563 10.7083 -26.65045 -1 -1.83208e-12 1.157107e-05 30 32 33 255 0.477208 0.018632
48.27563 10.90569 -31.78693 -0.7071066 -1.152023e-07 0.7071069 30 36 41 255 0.067483 0.034378
48.27563 10.7083 -31.78693 -0.7071019 -1.152031e-07 0.7071117 99 93 82 255 0.067483 0.018632
38.8524 10.99315 -32.24107 -6.291577e-08 1 -2.387704e-07 24 25 27 255 0.229141 0.002363
38.85242 10.99315 -26.13646 -8.122385e-08 1 1.520753e-07 41 20 16 255 0.936516 0.002363
39.43382 10.99315 -31.78691 0.3015157 0.9045309 0.3015166 41 20 8 255 0.257014 0.038047
39.43384 10.99315 -26.31688 0.6428462 0.7659953 -2.102092e-06 57 28 8 255 0.925442 0.038047
38.8524 10.99315 -32.24107 -6.291577e-08 1 -2.387704e-07 24 25 27 255 0.880112 0.002578
39.43382 10.99315 -31.78691 0.3015157 0.9045309 0.3015166 41 20 8 255 0.836445 0.036686
48.62447 10.99315 -32.24107 3.975284e-07 1 1.359105e-07 16 20 24 255 0.14619 0.002579
48.27563 10.99315 -31.78693 -0.3015174 0.9045305 0.3015159 35 38 43 255 0.17239 0.036686
48.62447 10.99315 -32.24107 3.975284e-07 1 1.359105e-07 16 20 24 255 1.262657 5.6e-05
48.27563 10.99315 -31.78693 -0.3015174 0.9045305 0.3015159 35 38 43 255 1.212261 0.038767
48.62449 10.99315 -26.80532 1.594284e-10 1 4.518208e-08 18 21 24 255 0.659446 5.5e-05
48.27563 10.99315 -26.65045 -0.7071035 0.7071102 8.302818e-06 41 28 24 255 0.64226 0.038767
48.62449 10.99315 -26.1558 1.155252e-13 1 3.545442e-07 24 24 33 255 0.045523 5.5e-05
48.27564 10.99315 -26.30552 -0.6222212 0.7828414 1.441055e-05 49 28 16 255 0.062138 0.038767
48.27563 10.90569 -31.78693 -0.7071066 -1.152023e-07 0.7071069 30 36 41 255 0.529953 0.024696
48.27563 10.90569 -26.65045 -1 -1.832045e-12 1.157085e-05 30 33 35 255 0.819023 0.024696
48.27563 10.99315 -31.78693 -0.3015174 0.9045305 0.3015159 35 38 43 255 0.529953 0.024696
48.27563 10.99315 -26.65045 -0.7071035 0.7071102 8.302818e-06 41 28 24 255 0.819023 0.024696
48.27563 10.90569 -26.65045 -1 -1.832045e-12 1.157085e-05 30 33 35 255 0.486118 0.0313
48.27564 10.90569 -26.30552 -1 -3.603625e-12 2.244474e-05 30 33 35 255 0.780324 0.0313
48.27563 10.99315 -26.65045 -0.7071035 0.7071102 8.302818e-06 41 28 24 255 0.486118 0.0313
48.27564 10.99315 -26.30552 -0.6222212 0.7828414 1.441055e-05 49 28 16 255 0.780324 0.0313
39.43384 10.90569 -26.31688 1 5.112852e-13 -3.464088e-06 41 20 8 255 0.334226 0.009552
39.43382 10.90569 -31.78691 0.7071084 -1.152021e-07 0.7071052 46 25 13 255 0.754985 0.009552
39.43384 10.99315 -26.31688 0.6428462 0.7659953 -2.102092e-06 57 28 8 255 0.334226 0.009552
39.43382 10.99315 -31.78691 0.3015157 0.9045309 0.3015166 41 20 8 255 0.754985 0.009552
48.62447 10.90569 -32.35182 -1.946526e-06 -0.7071085 -0.7071052 41 20 8 255 1.087945 0.03857
38.8524 10.90569 -32.35181 -1.161951e-06 -0.7071064 -0.7071072 41 20 8 255 0.088084 0.03857
48.62447 10.99315 -32.35182 -1.66601e-06 0.7071059 -0.7071077 33 32 33 255 1.087833 0.02112
38.8524 10.99315 -32.35181 -8.814424e-07 0.7071092 -0.7071044 24 25 27 255 0.087972 0.02112
38.8524 10.99315 -32.35181 -8.814424e-07 0.7071092 -0.7071044 24 25 27 255 0.880112 0.002578
48.62447 10.99315 -32.35182 -1.66601e-06 0.7071059 -0.7071077 33 32 33 255 0.14619 0.002579
38.94333 10.55792 -31.92474 -9.913725e-08 1 2.946811e-07 51 32 30 255 0.4681462 0.06165552
48.56305 10.55792 -27.60082 -9.91373e-08 1 2.058988e-07 43 26 24 255 0.2337773 0.09558034
48.56305 10.55792 -31.92475 -9.913732e-08 1 1.542382e-07 49 30 30 255 0.2337773 0.06165552
38.86411 -0.1433959 -32.23222 -1 -8.206029e-08 8.591302e-07 211 209 214 255 0.9561014 0.6755541
38.86411 10.97689 -28.65564 -1 -2.027014e-08 8.591307e-07 165 174 156 255 1.000411 0.7933448
38.86411 10.97689 -32.23222 -1 -8.68839e-14 8.591309e-07 132 89 66 255 0.9561014 0.7933448
48.62563 10.97689 -28.65565 1 8.688377e-14 -8.591301e-07 165 174 156 255 1.000411 0.7933448
48.62563 -0.1433959 -32.23222 1 8.688376e-14 -8.5913e-07 211 209 214 255 0.9561014 0.6755541
48.62563 10.97689 -32.23222 1 8.688377e-14 -8.591301e-07 132 89 66 255 0.9561014 0.7933448
-70.33775 9.323828 32.93718 -1.593372e-06 8.457118e-07 -1 173 121 99 255 0.627646 0.934163
-69.07403 9.323828 32.93718 -1.971904e-06 3.372306e-06 -1 38 38 38 255 0.627646 0.985889
-70.33775 6.564578 32.93718 -3.170731e-06 -7.40587e-07 -1 148 110 90 255 0.697253 0.934163
-69.07403 6.564578 32.93718 -2.580326e-06 -6.893065e-07 -1 30 38 43 255 0.697253 0.985889
-70.33775 3.187042 32.93719 -3.410533e-06 1.65664e-07 -1 170 157 145 255 0.548456 0.711588
-69.08057 -0.1024847 32.93718 -3.361833e-06 1.639163e-07 -1 198 195 198 255 0.585526 0.628389
-70.33775 -0.1024852 32.93719 -3.340316e-06 1.629207e-07 -1 211 215 208 255 0.548456 0.628389
-70.33775 10.90569 32.93719 -1.297524e-06 2.574433e-06 -1 123 101 74 255 0.265628 0.785391
-60.56567 10.90569 32.93717 -1.772217e-06 2.02075e-06 -1 156 117 90 255 0.674963 0.785391
-70.33775 9.323828 32.93718 -1.593372e-06 8.457118e-07 -1 173 121 99 255 0.265628 0.738702
-69.07403 9.323828 32.93718 -1.971904e-06 3.372306e-06 -1 38 38 38 255 0.318563 0.738702
-60.56567 9.32383 32.93717 -2.229862e-06 8.957646e-07 -1 132 105 82 255 0.674963 0.738702
-62.36731 9.32383 32.93717 -1.637704e-06 6.340669e-07 -1 134 101 82 255 0.599496 0.738702
-70.33775 4.481922 32.93719 -3.306634e-06 -2.863068e-07 -1 140 109 90 255 0.546394 0.7439
-70.33775 6.564578 32.93718 -3.170731e-06 -7.40587e-07 -1 148 110 90 255 0.546394 0.802197
-69.07403 4.51962 32.93718 -2.526394e-06 -4.605192e-07 -1 38 38 38 255 0.588145 0.744955
-69.07403 6.564578 32.93718 -2.580326e-06 -6.893065e-07 -1 30 38 43 255 0.588145 0.802197
-70.33775 4.481922 32.93719 -3.306634e-06 -2.863068e-07 -1 140 109 90 255 0.548456 0.744338
-69.07403 4.51962 32.93718 -2.526394e-06 -4.605192e-07 -1 38 38 38 255 0.585719 0.745292
-69.07403 6.564578 32.93718 -2.580326e-06 -6.893065e-07 -1 30 38 43 255 0.633253 0.789044
-62.36731 6.56458 32.93718 -1.339247e-06 -8.348715e-07 -1 148 101 66 255 0.914186 0.789044
-69.07403 4.51962 32.93718 -2.526394e-06 -4.605192e-07 -1 38 38 38 255 0.633253 0.742845
-62.36731 4.519623 32.93718 -1.219891e-06 -4.597467e-07 -1 30 38 43 255 0.914186 0.742845
-62.36731 9.32383 32.79428 -9.002479e-07 1.629207e-07 -1 8 4 0 255 0.716252 0.183198
-62.36731 6.56458 32.79428 -9.112553e-07 1.629207e-07 -1 66 40 41 255 0.716252 0.272405
-69.07403 6.564578 32.79429 -8.779621e-07 1.629207e-07 -1 98 80 74 255 0.998953 0.272405
-69.07403 9.323828 32.79429 -8.669548e-07 1.629207e-07 -1 90 44 41 255 0.998953 0.183198
-62.36952 -0.1024828 32.93718 -1.375074e-06 1.630823e-07 -1 206 211 206 255 0.875073 0.597608
-62.36731 4.519623 32.93718 -1.219891e-06 -4.597467e-07 -1 30 38 43 255 0.875142 0.760136
-60.56567 3.187044 32.93717 -1.371529e-06 1.631958e-07 -1 132 85 57 255 0.931473 0.713278
-60.56567 4.481925 32.93717 -1.384383e-06 -2.888997e-07 -1 82 69 66 255 0.931473 0.75881
-62.36731 6.56458 32.93718 -1.339247e-06 -8.348715e-07 -1 148 101 66 255 0.714132 0.867926
-60.56567 6.564579 32.93717 -1.378149e-06 -9.908024e-07 -1 148 113 90 255 0.714132 0.943393
-62.36731 4.519623 32.93718 -1.219891e-06 -4.597467e-07 -1 30 38 43 255 0.786038 0.867926
-60.56567 4.481925 32.93717 -1.384383e-06 -2.888997e-07 -1 82 69 66 255 0.787364 0.943393
-62.36731 9.32383 32.93717 -1.637704e-06 6.340669e-07 -1 134 101 82 255 0.875203 0.930329
-60.56567 9.32383 32.93717 -2.229862e-06 8.957646e-07 -1 132 105 82 255 0.934075 0.930329
-62.36731 6.56458 32.93718 -1.339247e-06 -8.348715e-07 -1 148 101 66 255 0.875203 0.858119
-60.56567 6.564579 32.93717 -1.378149e-06 -9.908024e-07 -1 148 113 90 255 0.934075 0.858119
-62.36731 4.519623 32.81737 -8.931156e-07 1.629207e-07 -1 148 146 148 255 0.247374 0.612306
-62.36731 -0.08171272 32.81737 -8.903625e-07 1.629207e-07 -1 189 182 173 255 0.247374 0.509304
-69.07403 -0.08171463 32.81737 -8.94801e-07 1.629207e-07 -1 123 113 107 255 0.036553 0.509304
-69.07403 4.51962 32.81737 -8.975542e-07 1.629207e-07 -1 153 162 162 255 0.036553 0.612306
-60.56567 -0.1024823 32.93717 -1.370514e-06 1.629207e-07 -1 211 207 211 255 0.931473 0.597608
27.18752 10.55792 28.49921 9.913708e-08 1 -3.873418e-07 54 33 30 255 0.4681462 0.09558034
27.26675 -0.1433959 29.55405 1 3.388132e-21 -3.258414e-07 156 151 142 255 1.000411 0.6755541
17.50523 -0.1433959 29.55405 -1 -3.388132e-21 3.258414e-07 156 151 142 255 1.000411 0.6755541
-60.6566 10.55792 28.49921 9.913717e-08 1 -2.039211e-07 54 33 30 255 0.4681462 0.09558034
-60.57738 -0.1433959 29.55405 1 3.388132e-21 -3.258414e-07 156 151 142 255 1.000411 0.6755541
-70.3389 -0.1433959 29.55405 -1 -3.388132e-21 3.258414e-07 156 151 142 255 1.000411 0.6755541
-70.23649 10.55792 -27.60081 -9.91372e-08 1 3.463415e-07 54 33 30 255 0.4681462 0.09558034
-70.31571 -0.1433954 -28.65564 -1 -9.041257e-07 3.258412e-07 156 151 142 255 1.000411 0.6755541
-60.55419 -0.1433954 -28.65565 1 -1.534604e-06 -3.258416e-07 156 151 142 255 1.000411 0.6755541
38.94333 10.55792 -27.60081 -9.913724e-08 1 3.463416e-07 54 33 30 255 0.4681462 0.09558034
38.86411 -0.1433954 -28.65564 -1 -1.023303e-07 8.591301e-07 156 151 142 255 1.000411 0.6755541
48.62563 -0.1433954 -28.65565 1 8.688376e-14 -8.5913e-07 156 151 142 255 1.000411 0.6755541
3 0 1 2 
3 2 1 3 
3 4 5 6 
3 7 8 9 
3 8 10 9 
3 11 9 12 
3 10 12 9 
3 13 14 15 
3 15 14 16 
3 17 4 18 
3 18 4 6 
3 19 20 21 
3 21 20 22 
3 23 24 25 
3 25 24 26 
3 27 28 29 
3 29 28 30 
3 31 32 33 
3 33 32 34 
3 35 36 37 
3 37 36 38 
3 39 40 41 
3 41 40 42 
3 43 44 45 
3 45 44 46 
3 47 48 49 
3 49 48 50 
3 51 52 53 
3 53 52 54 
3 55 56 57 
3 57 56 58 
3 59 60 61 
3 61 60 62 
3 63 64 65 
3 65 64 66 
3 67 68 69 
3 69 68 70 
3 35 71 36 
3 72 73 74 
3 74 73 75 
3 76 77 78 
3 78 77 79 
3 80 81 82 
3 82 81 83 
3 84 85 86 
3 86 85 87 
3 88 89 90 
3 90 89 91 
3 89 92 91 
3 91 92 93 
3 94 95 96 
3 96 95 97 
3 98 99 100 
3 100 99 101 
3 102 103 104 
3 104 103 105 
3 104 105 106 
3 106 105 107 
3 108 109 110 
3 110 109 111 
3 112 113 114 
3 114 113 115 
3 116 117 118 
3 118 117 119 
3 120 121 122 
3 122 121 123 
3 98 100 124 
3 124 100 125 
3 126 127 128 
3 129 130 131 
3 132 133 134 
3 135 136 137 
3 137 136 138 
3 139 140 141 
3 142 143 144 
3 143 145 144 
3 146 144 147 
3 145 147 144 
3 148 149 150 
3 150 149 151 
3 152 139 153 
3 153 139 141 
3 154 155 156 
3 156 155 157 
3 158 159 160 
3 160 159 161 
3 162 163 164 
3 164 163 165 
3 166 167 168 
3 168 167 169 
3 170 171 172 
3 172 171 173 
3 174 175 176 
3 176 175 177 
3 178 179 180 
3 180 179 181 
3 182 183 184 
3 184 183 185 
3 186 187 188 
3 188 187 189 
3 190 191 192 
3 192 191 193 
3 194 195 196 
3 196 195 197 
3 198 199 200 
3 200 199 201 
3 202 203 204 
3 204 203 205 
3 170 206 171 
3 207 208 209 
3 209 208 210 
3 211 212 213 
3 213 212 214 
3 215 216 217 
3 217 216 218 
3 219 220 221 
3 221 220 222 
3 223 224 225 
3 225 224 226 
3 224 227 226 
3 226 227 228 
3 229 230 231 
3 231 230 232 
3 233 234 235 
3 235 234 236 
3 237 238 239 
3 239 238 240 
3 239 240 241 
3 241 240 242 
3 243 244 245 
3 245 244 246 
3 247 248 249 
3 249 248 250 
3 251 252 253 
3 253 252 254 
3 255 256 257 
3 257 256 258 
3 233 235 259 
3 259 235 260 
3 261 262 263 
3 264 265 266 
3 267 268 269 
3 270 271 272 
3 272 271 273 
3 274 275 276 
3 277 278 279 
3 278 280 279 
3 281 279 282 
3 280 282 279 
3 283 284 285 
3 285 284 286 
3 287 274 288 
3 288 274 276 
3 289 290 291 
3 291 290 292 
3 293 294 295 
3 295 294 296 
3 297 298 299 
3 299 298 300 
3 301 302 303 
3 303 302 304 
3 305 306 307 
3 307 306 308 
3 309 310 311 
3 311 310 312 
3 313 314 315 
3 315 314 316 
3 317 318 319 
3 319 318 320 
3 321 322 323 
3 323 322 324 
3 325 326 327 
3 327 326 328 
3 329 330 331 
3 331 330 332 
3 333 334 335 
3 335 334 336 
3 337 338 339 
3 339 338 340 
3 305 341 306 
3 342 343 344 
3 344 343 345 
3 346 347 348 
3 348 347 349 
3 350 351 352 
3 352 351 353 
3 354 355 356 
3 356 355 357 
3 358 359 360 
3 360 359 361 
3 359 362 361 
3 361 362 363 
3 364 365 366 
3 366 365 367 
3 368 369 370 
3 370 369 371 
3 372 373 374 
3 374 373 375 
3 374 375 376 
3 376 375 377 
3 378 379 380 
3 380 379 381 
3 382 383 384 
3 384 383 385 
3 386 387 388 
3 388 387 389 
3 390 391 392 
3 392 391 393 
3 368 370 394 
3 394 370 395 
3 396 397 398 
3 399 400 401 
3 402 403 404 
3 405 406 407 
3 407 406 408 
3 409 410 411 
3 412 413 414 
3 413 415 414 
3 416 414 417 
3 415 417 414 
3 418 419 420 
3 420 419 421 
3 422 409 423 
3 423 409 411 
3 424 425 426 
3 426 425 427 
3 428 429 430 
3 430 429 431 
3 432 433 434 
3 434 433 435 
3 436 437 438 
3 438 437 439 
3 440 441 442 
3 442 441 443 
3 444 445 446 
3 446 445 447 
3 448 449 450 
3 450 449 451 
3 452 453 454 
3 454 453 455 
3 456 457 458 
3 458 457 459 
3 460 461 462 
3 462 461 463 
3 464 465 466 
3 466 465 467 
3 468 469 470 
3 470 469 471 
3 472 473 474 
3 474 473 475 
3 440 476 441 
3 477 478 479 
3 479 478 480 
3 481 482 483 
3 483 482 484 
3 485 486 487 
3 487 486 488 
3 489 490 491 
3 491 490 492 
3 493 494 495 
3 495 494 496 
3 494 497 496 
3 496 497 498 
3 499 500 501 
3 501 500 502 
3 503 504 505 
3 505 504 506 
3 507 508 509 
3 509 508 510 
3 509 510 511 
3 511 510 512 
3 513 514 515 
3 515 514 516 
3 517 518 519 
3 519 518 520 
3 521 522 523 
3 523 522 524 
3 525 526 527 
3 527 526 528 
3 503 505 529 
3 529 505 530 
3 531 532 533 
3 534 535 536 
3 537 538 539 
3 540 541 542 
3 541 543 542 
3 544 545 546 
3 547 548 549 
3 549 548 550 
3 551 552 548 
3 550 548 552 
3 553 554 555 
3 554 556 555 
3 557 558 544 
3 558 545 544 
3 559 560 561 
3 560 562 561 
3 563 564 565 
3 566 563 565 
3 567 568 569 
3 568 570 569 
3 571 572 573 
3 572 574 573 
3 575 576 577 
3 576 578 577 
3 579 580 581 
3 582 579 581 
3 567 569 583 
3 126 584 127 
3 129 585 130 
3 132 586 133 
3 261 587 262 
3 264 588 265 
3 267 589 268 
3 396 590 397 
3 399 591 400 
3 402 592 403 
3 531 593 532 
3 534 594 535 
3 537 595 538 
