ply
format ascii 1.0
comment Created in Blender version 4.1.1
comment TextureFile Fiber.png
element vertex 596
property float x
property float y
property float z
property float nx
property float ny
property float nz
property float s
property float t
element face 320
property list uchar uint vertex_indices
end_header
17.506378 9.323828 33.139473 1.5933718e-06 -8.457026e-07 1 0.627646 0.934163
17.506378 6.564578 33.139477 3.1509262e-06 7.405862e-07 1 0.697253 0.934163
18.770096 9.323828 33.139473 0.3015159 -0.30152178 0.9045291 0.627646 0.985889
18.770096 6.564578 33.139473 0.30151618 0.30151135 0.9045325 0.697253 0.985889
17.506378 3.1870415 33.13948 3.3308038e-06 -1.6566725e-07 1 0.548456 0.711588
17.506378 -0.10248518 33.13948 3.4089621e-06 -1.6292068e-07 1 0.548456 0.628389
18.763557 -0.1024847 33.139473 0.6823122 -0.00096530945 0.7310602 0.585526 0.628389
17.506378 10.905693 33.13948 1.055502e-06 -0.7071079 0.70710564 0.265628 0.785391
17.506378 9.323828 33.139473 1.5933718e-06 -8.457026e-07 1 0.265628 0.738702
27.27845 10.905695 33.139465 1.4231797e-06 -0.70710903 0.70710456 0.674963 0.785391
18.770096 9.323828 33.139473 0.3015159 -0.30152178 0.9045291 0.318563 0.738702
27.27845 9.32383 33.13946 2.2914742e-06 -8.957641e-07 1 0.674963 0.738702
25.476814 9.32383 33.139465 -0.30151272 -0.30151182 0.90453345 0.599496 0.738702
17.506378 4.481922 33.13948 3.2324024e-06 2.8630677e-07 1 0.546394 0.7439
18.770096 4.51962 33.139477 0.3015163 -0.30153012 0.9045261 0.588145 0.744955
17.506378 6.564578 33.139477 3.1509262e-06 7.405862e-07 1 0.546394 0.802197
18.770096 6.564578 33.139473 0.30151618 0.30151135 0.9045325 0.588145 0.802197
17.506378 4.481922 33.13948 3.2324024e-06 2.8630677e-07 1 0.548456 0.744338
18.770096 4.51962 33.139477 0.3015163 -0.30153012 0.9045261 0.585719 0.745292
18.770096 4.51962 32.850204 0.57735074 -0.5773502 0.5773498 0.036553 0.612306
18.770096 -0.08171463 32.8502 0.71483105 -0.0009726535 0.69929653 0.036553 0.509304
25.476814 4.519623 32.850197 -0.5773431 -0.57735306 0.5773546 0.247374 0.612306
25.476814 -0.08171272 32.850197 -0.72533256 0.00033383002 0.6883986 0.247374 0.509304
18.770096 9.323828 33.139473 0.3015159 -0.30152178 0.9045291 0.567195 0.267151
18.770096 6.564578 33.139473 0.30151618 0.30151135 0.9045325 0.567195 0.501809
18.770096 9.323828 32.8502 0.5773547 -0.5773483 0.5773478 0.613724 0.267151
18.770096 6.564578 32.8502 0.577357 0.5773656 0.5773282 0.613724 0.501809
18.770096 6.564578 33.139473 0.30151618 0.30151135 0.9045325 0.633253 0.789044
18.770096 4.51962 33.139477 0.3015163 -0.30153012 0.9045261 0.633253 0.742845
25.476814 6.56458 33.13947 -0.30151293 0.30151966 0.9045307 0.914186 0.789044
25.476814 4.519623 33.13947 -0.3015094 -0.301499 0.9045388 0.914186 0.742845
18.770096 6.564578 33.139473 0.30151618 0.30151135 0.9045325 0.240469 0.003127
25.476814 6.56458 33.13947 -0.30151293 0.30151966 0.9045307 0.635008 0.003127
18.770096 6.564578 32.8502 0.577357 0.5773656 0.5773282 0.240469 0.034414
25.476814 6.56458 32.850197 -0.57735395 0.577348 0.57734877 0.635008 0.034414
25.474602 -0.102482796 33.13947 -0.69315636 0.0003316919 0.72078717 0.875073 0.597608
27.27845 3.1870441 33.139465 1.3715293e-06 -1.6319579e-07 1 0.931473 0.713278
25.476814 4.519623 33.13947 -0.3015094 -0.301499 0.9045388 0.875142 0.760136
27.27845 4.481924 33.139465 1.4000569e-06 2.8889966e-07 1 0.931473 0.75881
25.476814 6.56458 33.13947 -0.30151293 0.30151966 0.9045307 0.714132 0.867926
25.476814 4.519623 33.13947 -0.3015094 -0.301499 0.9045388 0.786038 0.867926
27.27845 6.5645795 33.139465 1.3569005e-06 9.908026e-07 1 0.714132 0.943393
27.27845 4.481924 33.139465 1.4000569e-06 2.8889966e-07 1 0.787364 0.943393
25.476814 9.32383 33.139465 -0.30151272 -0.30151182 0.90453345 0.875203 0.930329
25.476814 6.56458 33.13947 -0.30151293 0.30151966 0.9045307 0.875203 0.858119
27.27845 9.32383 33.13946 2.2914742e-06 -8.957641e-07 1 0.934075 0.930329
27.27845 6.5645795 33.139465 1.3569005e-06 9.908026e-07 1 0.934075 0.858119
18.770096 9.323828 32.8502 0.5773547 -0.5773483 0.5773478 0.998953 0.183198
18.770096 6.564578 32.8502 0.577357 0.5773656 0.5773282 0.998953 0.272405
25.476814 9.32383 32.850197 -0.5773561 -0.57736623 0.57732856 0.716252 0.183198
25.476814 6.56458 32.850197 -0.57735395 0.577348 0.57734877 0.716252 0.272405
18.763557 -0.1024847 33.139473 0.6823122 -0.00096530945 0.7310602 0.567195 0.501809
18.770096 -0.08171463 32.8502 0.71483105 -0.0009726535 0.69929653 0.613724 0.501809
18.770096 4.51962 33.139477 0.3015163 -0.30153012 0.9045261 0.567195 0.267151
18.770096 4.51962 32.850204 0.57735074 -0.5773502 0.5773498 0.613724 0.267151
25.476814 6.56458 33.13947 -0.30151293 0.30151966 0.9045307 0.567195 0.267151
25.476814 9.32383 33.139465 -0.30151272 -0.30151182 0.90453345 0.567195 0.501809
25.476814 6.56458 32.850197 -0.57735395 0.577348 0.57734877 0.613724 0.267151
25.476814 9.32383 32.850197 -0.5773561 -0.57736623 0.57732856 0.613724 0.501809
25.474602 -0.102482796 33.13947 -0.69315636 0.0003316919 0.72078717 0.567195 0.267151
25.476814 4.519623 33.13947 -0.3015094 -0.301499 0.9045388 0.567195 0.501809
25.476814 -0.08171272 32.850197 -0.72533256 0.00033383002 0.6883986 0.613724 0.267151
25.476814 4.519623 32.850197 -0.5773431 -0.57735306 0.5773546 0.613724 0.501809
25.476814 9.32383 33.139465 -0.30151272 -0.30151182 0.90453345 0.240469 0.003127
18.770096 9.323828 33.139473 0.3015159 -0.30152178 0.9045291 0.635008 0.003127
25.476814 9.32383 32.850197 -0.5773561 -0.57736623 0.57732856 0.240469 0.034414
18.770096 9.323828 32.8502 0.5773547 -0.5773483 0.5773478 0.635008 0.034414
25.476814 4.519623 33.13947 -0.3015094 -0.301499 0.9045388 0.240469 0.003127
18.770096 4.51962 33.139477 0.3015163 -0.30153012 0.9045261 0.635008 0.003127
25.476814 4.519623 32.850197 -0.5773431 -0.57735306 0.5773546 0.240469 0.034414
18.770096 4.51962 32.850204 0.57735074 -0.5773502 0.5773498 0.635008 0.034414
27.27845 -0.10248232 33.139465 1.3705138e-06 -1.6292068e-07 1 0.931473 0.597608
26.69703 10.905695 32.68532 -0.707108 1.15202155e-07 -0.7071055 0.989653 1.000684
17.855225 10.905693 32.685333 0.70710677 1.1520227e-07 -0.7071067 0.580318 1.000684
26.69703 10.993152 32.68532 -0.30151543 0.904531 -0.30151644 0.989653 1.000684
17.855225 10.99315 32.685333 0.3015174 0.9045306 -0.30151558 0.580318 1.000684
17.506378 10.905693 33.13948 1.055502e-06 -0.7071079 0.70710564 0.580318 1.000684
27.27845 10.905695 33.139465 1.4231797e-06 -0.70710903 0.70710456 0.989653 1.000684
17.506378 10.905693 33.250225 1.0588412e-06 -0.70710874 0.7071048 0.580318 1.000684
27.27845 10.905695 33.25021 1.0588438e-06 -0.70710653 0.7071071 0.989653 1.000684
17.855225 10.905693 32.685333 0.70710677 1.1520227e-07 -0.7071067 1.5e-05 0.01774
26.69703 10.905695 32.68532 -0.707108 1.15202155e-07 -0.7071055 0.999985 0.017739
17.855225 10.708301 32.685333 0.7071025 1.1520297e-07 -0.707111 1.5e-05 0.040064
26.69703 10.708302 32.68532 -0.70711327 1.152013e-07 -0.7071003 0.999985 0.040064
26.69703 10.905695 32.68532 -0.707108 1.15202155e-07 -0.7071055 1.3e-05 1.8e-05
26.697012 10.905695 27.21529 -1 -4.5447137e-13 3.1153668e-06 0.86875 1.3e-05
26.69703 10.708302 32.68532 -0.70711327 1.152013e-07 -0.7071003 1.3e-05 0.015758
26.697012 10.708302 27.21529 -1 -4.5447137e-13 3.1153668e-06 0.86875 0.015758
17.855215 10.905693 27.203926 1 3.603655e-12 -2.2444916e-05 0.894198 0.034377
17.855223 10.905693 27.548851 1 1.8018172e-12 -1.1385316e-05 0.477208 0.034377
17.855215 10.708301 27.203926 1 3.603655e-12 -2.2444916e-05 0.894198 0.018632
17.855223 10.708301 27.548851 1 1.801812e-12 -1.1385284e-05 0.477208 0.018632
17.855225 10.905693 32.685333 0.70710677 1.1520227e-07 -0.7071067 0.067483 0.034378
17.855225 10.708301 32.685333 0.7071025 1.1520297e-07 -0.707111 0.067483 0.018632
27.27845 10.993152 33.139465 -1.0353295e-07 1 4.8697996e-07 0.229141 0.002363
27.278433 10.993152 27.034863 -3.9884657e-08 1 -1.2357806e-07 0.936516 0.002363
26.69703 10.993152 32.68532 -0.30151543 0.904531 -0.30151644 0.257014 0.038047
26.697012 10.993152 27.21529 -0.6428462 0.76599526 1.8978067e-06 0.925442 0.038047
27.27845 10.993152 33.139465 -1.0353295e-07 1 4.8697996e-07 0.880112 0.002578
26.69703 10.993152 32.68532 -0.30151543 0.904531 -0.30151644 0.836445 0.036686
17.506378 10.99315 33.13948 -2.0777338e-07 1 1.637155e-07 0.14619 0.002579
17.855225 10.99315 32.685333 0.3015174 0.9045306 -0.30151558 0.17239 0.036686
17.506378 10.99315 33.13948 -2.0777338e-07 1 1.637155e-07 1.262657 5.6e-05
17.855225 10.99315 32.685333 0.3015174 0.9045306 -0.30151558 1.212261 0.038767
17.506369 10.993149 27.70372 -5.542226e-08 1 -2.4033255e-09 0.659446 5.5e-05
17.855223 10.99315 27.548851 0.7071036 0.70711005 -8.060209e-06 0.64226 0.038767
17.506361 10.99315 27.0542 -9.184697e-15 1 -2.8187642e-08 0.045523 5.5e-05
17.855215 10.99315 27.203926 0.6222208 0.7828418 -1.41545e-05 0.062138 0.038767
17.855225 10.905693 32.685333 0.70710677 1.1520227e-07 -0.7071067 0.529953 0.024696
17.855223 10.905693 27.548851 1 1.8018172e-12 -1.1385316e-05 0.819023 0.024696
17.855225 10.99315 32.685333 0.3015174 0.9045306 -0.30151558 0.529953 0.024696
17.855223 10.99315 27.548851 0.7071036 0.70711005 -8.060209e-06 0.819023 0.024696
17.855223 10.905693 27.548851 1 1.8018172e-12 -1.1385316e-05 0.486118 0.0313
17.855215 10.905693 27.203926 1 3.603655e-12 -2.2444916e-05 0.780324 0.0313
17.855223 10.99315 27.548851 0.7071036 0.70711005 -8.060209e-06 0.486118 0.0313
17.855215 10.99315 27.203926 0.6222208 0.7828418 -1.41545e-05 0.780324 0.0313
26.697012 10.905695 27.21529 -1 -4.5447137e-13 3.1153668e-06 0.334226 0.009552
26.69703 10.905695 32.68532 -0.707108 1.15202155e-07 -0.7071055 0.754985 0.009552
26.697012 10.993152 27.21529 -0.6428462 0.76599526 1.8978067e-06 0.334226 0.009552
26.69703 10.993152 32.68532 -0.30151543 0.904531 -0.30151644 0.754985 0.009552
17.506378 10.905693 33.250225 1.0588412e-06 -0.70710874 0.7071048 1.087945 0.03857
27.27845 10.905695 33.25021 1.0588438e-06 -0.70710653 0.7071071 0.088084 0.03857
17.506378 10.99315 33.250225 7.8281334e-07 0.70710576 0.7071077 1.087833 0.02112
27.27845 10.993152 33.25021 7.828086e-07 0.7071089 0.7071046 0.087972 0.02112
27.27845 10.993152 33.25021 7.828086e-07 0.7071089 0.7071046 0.880112 0.002578
17.506378 10.99315 33.250225 7.8281334e-07 0.70710576 0.7071077 0.14619 0.002579
27.187523 10.557922 32.823147 9.913713e-08 1 -3.3801624e-07 0.4681462 0.06165552
17.567802 10.557922 28.49922 9.913721e-08 1 -2.5324675e-07 0.23377727 0.09558034
17.567802 10.557923 32.82315 9.913727e-08 1 -2.0392122e-07 0.23377727 0.06165552
27.266747 -0.1433959 33.130627 1 -1.8998838e-08 -3.2584137e-07 0.9561014 0.6755541
27.266747 10.976892 29.55405 1 -7.691392e-08 -3.2584137e-07 1.000411 0.7933448
27.266747 10.976893 33.130627 1 -9.591277e-08 -3.258414e-07 0.9561014 0.7933448
17.505226 10.976894 29.55405 -1 8.27925e-09 3.2584137e-07 1.000411 0.7933448
17.505226 -0.1433959 33.13063 -1 2.0450939e-09 3.2584137e-07 0.9561014 0.6755541
17.505226 10.976894 33.13063 -1 1.0324346e-08 3.2584137e-07 0.9561014 0.7933448
-70.337746 9.323828 33.139473 1.5933718e-06 -8.457118e-07 1 0.627646 0.934163
-70.337746 6.564578 33.139477 3.1231007e-06 7.40587e-07 1 0.697253 0.934163
-69.07403 9.323828 33.139473 0.3015159 -0.30152178 0.9045291 0.627646 0.985889
-69.07403 6.564578 33.139473 0.30151603 0.30151132 0.90453243 0.697253 0.985889
-70.337746 3.1870418 33.13948 3.3308038e-06 -1.6566405e-07 1 0.548456 0.711588
-70.337746 -0.10248518 33.13948 3.408969e-06 -1.6292068e-07 1 0.548456 0.628389
-69.08057 -0.1024847 33.139473 0.6823122 -0.0009676211 0.7310602 0.585526 0.628389
-70.337746 10.905693 33.13948 1.055502e-06 -0.7071079 0.70710564 0.265628 0.785391
-70.337746 9.323828 33.139473 1.5933718e-06 -8.457118e-07 1 0.265628 0.738702
-60.565674 10.905695 33.139465 1.42318e-06 -0.70710903 0.70710456 0.674963 0.785391
-69.07403 9.323828 33.139473 0.3015159 -0.30152178 0.9045291 0.318563 0.738702
-60.565674 9.32383 33.13946 2.2611748e-06 -8.957646e-07 1 0.674963 0.738702
-62.36731 9.32383 33.139465 -0.30151275 -0.30151182 0.90453345 0.599496 0.738702
-70.337746 4.481922 33.13948 3.3212727e-06 2.8630677e-07 1 0.546394 0.7439
-69.07403 4.51962 33.139477 0.30151632 -0.30153018 0.9045261 0.588145 0.744955
-70.337746 6.564578 33.139477 3.1231007e-06 7.40587e-07 1 0.546394 0.802197
-69.07403 6.564578 33.139473 0.30151603 0.30151132 0.90453243 0.588145 0.802197
-70.337746 4.481922 33.13948 3.3212727e-06 2.8630677e-07 1 0.548456 0.744338
-69.07403 4.51962 33.139477 0.30151632 -0.30153018 0.9045261 0.585719 0.745292
-69.07403 4.51962 32.850204 0.5773507 -0.57735026 0.5773498 0.036553 0.612306
-69.07403 -0.08171463 32.8502 0.714831 -0.00097498274 0.69929653 0.036553 0.509304
-62.36731 4.519623 32.850197 -0.57734317 -0.5773531 0.5773546 0.247374 0.612306
-62.36731 -0.08171272 32.850197 -0.72533256 0.0003342654 0.6883986 0.247374 0.509304
-69.07403 9.323828 33.139473 0.3015159 -0.30152178 0.9045291 0.567195 0.267151
-69.07403 6.564578 33.139473 0.30151603 0.30151132 0.90453243 0.567195 0.501809
-69.07403 9.323828 32.8502 0.5773547 -0.5773483 0.5773478 0.613724 0.267151
-69.07403 6.564578 32.8502 0.577357 0.5773656 0.5773282 0.613724 0.501809
-69.07403 6.564578 33.139473 0.30151603 0.30151132 0.90453243 0.633253 0.789044
-69.07403 4.51962 33.139477 0.30151632 -0.30153018 0.9045261 0.633253 0.742845
-62.36731 6.56458 33.13947 -0.30151284 0.30151963 0.9045307 0.914186 0.789044
-62.36731 4.519623 33.13947 -0.3015094 -0.30149904 0.9045388 0.914186 0.742845
-69.07403 6.564578 33.139473 0.30151603 0.30151132 0.90453243 0.240469 0.003127
-62.36731 6.56458 33.13947 -0.30151284 0.30151963 0.9045307 0.635008 0.003127
-69.07403 6.564578 32.8502 0.577357 0.5773656 0.5773282 0.240469 0.034414
-62.36731 6.56458 32.850197 -0.5773539 0.577348 0.57734877 0.635008 0.034414
-62.369522 -0.102482796 33.13947 -0.69315636 0.00033212456 0.7207872 0.875073 0.597608
-60.565674 3.1870444 33.139465 1.3377322e-06 -1.6319579e-07 1 0.931473 0.713278
-62.36731 4.519623 33.13947 -0.3015094 -0.30149904 0.9045388 0.875142 0.760136
-60.565674 4.4819245 33.139465 1.3677296e-06 2.8889966e-07 1 0.931473 0.75881
-62.36731 6.56458 33.13947 -0.30151284 0.30151963 0.9045307 0.714132 0.867926
-62.36731 4.519623 33.13947 -0.3015094 -0.30149904 0.9045388 0.786038 0.867926
-60.565674 6.5645795 33.139465 1.3767926e-06 9.908026e-07 1 0.714132 0.943393
-60.565674 4.4819245 33.139465 1.3677296e-06 2.8889966e-07 1 0.787364 0.943393
-62.36731 9.32383 33.139465 -0.30151275 -0.30151182 0.90453345 0.875203 0.930329
-62.36731 6.56458 33.13947 -0.30151284 0.30151963 0.9045307 0.875203 0.858119
-60.565674 9.32383 33.13946 2.2611748e-06 -8.957646e-07 1 0.934075 0.930329
-60.565674 6.5645795 33.139465 1.3767926e-06 9.908026e-07 1 0.934075 0.858119
-69.07403 9.323828 32.8502 0.5773547 -0.5773483 0.5773478 0.998953 0.183198
-69.07403 6.564578 32.8502 0.577357 0.5773656 0.5773282 0.998953 0.272405
-62.36731 9.32383 32.850197 -0.5773561 -0.57736623 0.57732856 0.716252 0.183198
-62.36731 6.56458 32.850197 -0.5773539 0.577348 0.57734877 0.716252 0.272405
-69.08057 -0.1024847 33.139473 0.6823122 -0.0009676211 0.7310602 0.567195 0.501809
-69.07403 -0.08171463 32.8502 0.714831 -0.00097498274 0.69929653 0.613724 0.501809
-69.07403 4.51962 33.139477 0.30151632 -0.30153018 0.9045261 0.567195 0.267151
-69.07403 4.51962 32.850204 0.5773507 -0.57735026 0.5773498 0.613724 0.267151
-62.36731 6.56458 33.13947 -0.30151284 0.30151963 0.9045307 0.567195 0.267151
-62.36731 9.32383 33.139465 -0.30151275 -0.30151182 0.90453345 0.567195 0.501809
-62.36731 6.56458 32.850197 -0.5773539 0.577348 0.57734877 0.613724 0.267151
-62.36731 9.32383 32.850197 -0.5773561 -0.57736623 0.57732856 0.613724 0.501809
-62.369522 -0.102482796 33.13947 -0.69315636 0.00033212456 0.7207872 0.567195 0.267151
-62.36731 4.519623 33.13947 -0.3015094 -0.30149904 0.9045388 0.567195 0.501809
-62.36731 -0.08171272 32.850197 -0.72533256 0.0003342654 0.6883986 0.613724 0.267151
-62.36731 4.519623 32.850197 -0.57734317 -0.5773531 0.5773546 0.613724 0.501809
-62.36731 9.32383 33.139465 -0.30151275 -0.30151182 0.90453345 0.240469 0.003127
-69.07403 9.323828 33.139473 0.3015159 -0.30152178 0.9045291 0.635008 0.003127
-62.36731 9.32383 32.850197 -0.5773561 -0.57736623 0.57732856 0.240469 0.034414
-69.07403 9.323828 32.8502 0.5773547 -0.5773483 0.5773478 0.635008 0.034414
-62.36731 4.519623 33.13947 -0.3015094 -0.30149904 0.9045388 0.240469 0.003127
-69.07403 4.51962 33.139477 0.30151632 -0.30153018 0.9045261 0.635008 0.003127
-62.36731 4.519623 32.850197 -0.57734317 -0.5773531 0.5773546 0.240469 0.034414
-69.07403 4.51962 32.850204 0.5773507 -0.57735026 0.5773498 0.635008 0.034414
-60.565674 -0.10248232 33.139465 1.4508732e-06 -1.6292068e-07 1 0.931473 0.597608
-61.147095 10.905695 32.68532 -0.707108 1.15202155e-07 -0.7071055 0.989653 1.000684
-69.9889 10.905693 32.685333 0.70710677 1.1520227e-07 -0.7071067 0.580318 1.000684
-61.147095 10.993152 32.68532 -0.30151543 0.904531 -0.30151644 0.989653 1.000684
-69.9889 10.99315 32.685333 0.3015174 0.9045306 -0.30151558 0.580318 1.000684
-70.337746 10.905693 33.13948 1.055502e-06 -0.7071079 0.70710564 0.580318 1.000684
-60.565674 10.905695 33.139465 1.42318e-06 -0.70710903 0.70710456 0.989653 1.000684
-70.337746 10.905693 33.250225 1.0588412e-06 -0.70710874 0.7071048 0.580318 1.000684
-60.565674 10.905695 33.25021 1.0588438e-06 -0.70710653 0.7071071 0.989653 1.000684
-69.9889 10.905693 32.685333 0.70710677 1.1520227e-07 -0.7071067 1.5e-05 0.01774
-61.147095 10.905695 32.68532 -0.707108 1.15202155e-07 -0.7071055 0.999985 0.017739
-69.9889 10.708301 32.685333 0.7071025 1.1520297e-07 -0.707111 1.5e-05 0.040064
-61.147095 10.708302 32.68532 -0.70711327 1.152013e-07 -0.7071003 0.999985 0.040064
-61.147095 10.905695 32.68532 -0.707108 1.15202155e-07 -0.7071055 1.3e-05 1.8e-05
-61.14711 10.905695 27.21529 -1 -4.5447137e-13 3.1153668e-06 0.86875 1.3e-05
-61.147095 10.708302 32.68532 -0.70711327 1.152013e-07 -0.7071003 1.3e-05 0.015758
-61.14711 10.708302 27.21529 -1 -4.5447137e-13 3.1153668e-06 0.86875 0.015758
-69.98891 10.905693 27.203926 1 3.6036519e-12 -2.2444898e-05 0.894198 0.034377
-69.9889 10.905693 27.548851 1 1.8018176e-12 -1.1385318e-05 0.477208 0.034377
-69.98891 10.708301 27.203926 1 3.6036525e-12 -2.2444901e-05 0.894198 0.018632
-69.9889 10.708301 27.548851 1 1.8018151e-12 -1.1385303e-05 0.477208 0.018632
-69.9889 10.905693 32.685333 0.70710677 1.1520227e-07 -0.7071067 0.067483 0.034378
-69.9889 10.708301 32.685333 0.7071025 1.1520297e-07 -0.707111 0.067483 0.018632
-60.565674 10.993152 33.139465 -1.0353356e-07 1 4.8698087e-07 0.229141 0.002363
-60.56569 10.993152 27.034863 -3.9884977e-08 1 -1.2357911e-07 0.936516 0.002363
-61.147095 10.993152 32.68532 -0.30151543 0.904531 -0.30151644 0.257014 0.038047
-61.14711 10.993152 27.21529 -0.6428462 0.76599526 1.8978058e-06 0.925442 0.038047
-60.565674 10.993152 33.139465 -1.0353356e-07 1 4.8698087e-07 0.880112 0.002578
-61.147095 10.993152 32.68532 -0.30151543 0.904531 -0.30151644 0.836445 0.036686
-70.337746 10.99315 33.13948 -2.0777337e-07 1 1.6371543e-07 0.14619 0.002579
-69.9889 10.99315 32.685333 0.3015174 0.9045306 -0.30151558 0.17239 0.036686
-70.337746 10.99315 33.13948 -2.0777337e-07 1 1.6371543e-07 1.262657 5.6e-05
-69.9889 10.99315 32.685333 0.3015174 0.9045306 -0.30151558 1.212261 0.038767
-70.33775 10.993149 27.70372 -5.5420877e-08 1 -2.3988207e-09 0.659446 5.5e-05
-69.9889 10.99315 27.548851 0.7071036 0.70711005 -8.060207e-06 0.64226 0.038767
-70.33776 10.99315 27.0542 -9.184697e-15 1 -2.8187642e-08 0.045523 5.5e-05
-69.98891 10.99315 27.203926 0.6222208 0.7828418 -1.41545e-05 0.062138 0.038767
-69.9889 10.905693 32.685333 0.70710677 1.1520227e-07 -0.7071067 0.529953 0.024696
-69.9889 10.905693 27.548851 1 1.8018176e-12 -1.1385318e-05 0.819023 0.024696
-69.9889 10.99315 32.685333 0.3015174 0.9045306 -0.30151558 0.529953 0.024696
-69.9889 10.99315 27.548851 0.7071036 0.70711005 -8.060207e-06 0.819023 0.024696
-69.9889 10.905693 27.548851 1 1.8018176e-12 -1.1385318e-05 0.486118 0.0313
-69.98891 10.905693 27.203926 1 3.6036519e-12 -2.2444898e-05 0.780324 0.0313
-69.9889 10.99315 27.548851 0.7071036 0.70711005 -8.060207e-06 0.486118 0.0313
-69.98891 10.99315 27.203926 0.6222208 0.7828418 -1.41545e-05 0.780324 0.0313
-61.14711 10.905695 27.21529 -1 -4.5447137e-13 3.1153668e-06 0.334226 0.009552
-61.147095 10.905695 32.68532 -0.707108 1.15202155e-07 -0.7071055 0.754985 0.009552
-61.14711 10.993152 27.21529 -0.6428462 0.76599526 1.8978058e-06 0.334226 0.009552
-61.147095 10.993152 32.68532 -0.30151543 0.904531 -0.30151644 0.754985 0.009552
-70.337746 10.905693 33.250225 1.0588412e-06 -0.70710874 0.7071048 1.087945 0.03857
-60.565674 10.905695 33.25021 1.0588438e-06 -0.70710653 0.7071071 0.088084 0.03857
-70.337746 10.99315 33.250225 7.828136e-07 0.70710576 0.7071077 1.087833 0.02112
-60.565674 10.993152 33.25021 7.828084e-07 0.7071089 0.7071046 0.087972 0.02112
-60.565674 10.993152 33.25021 7.828084e-07 0.7071089 0.7071046 0.880112 0.002578
-70.337746 10.99315 33.250225 7.828136e-07 0.70710576 0.7071077 0.14619 0.002579
-60.6566 10.557922 32.823147 9.913717e-08 1 -2.5324667e-07 0.4681462 0.06165552
-70.27632 10.557922 28.49922 9.913715e-08 1 -3.3801618e-07 0.23377727 0.09558034
-70.27632 10.557923 32.82315 9.913715e-08 1 -3.8734177e-07 0.23377727 0.06165552
-60.577377 -0.1433959 33.130627 1 3.3881318e-21 -3.2584137e-07 0.9561014 0.6755541
-60.577377 10.976892 29.55405 1 3.3881318e-21 -3.2584137e-07 1.000411 0.7933448
-60.577377 10.976893 33.130627 1 3.3881318e-21 -3.2584137e-07 0.9561014 0.7933448
-70.3389 10.976894 29.55405 -1 2.5100994e-07 3.258414e-07 1.000411 0.7933448
-70.3389 -0.1433959 33.13063 -1 6.200306e-08 3.2584137e-07 0.9561014 0.6755541
-70.3389 10.976894 33.13063 -1 3.1301303e-07 3.2584143e-07 0.9561014 0.7933448
-60.555344 9.323828 -32.241074 -9.964189e-06 -1.495526e-06 -1 0.627646 0.934163
-60.555344 6.564578 -32.241074 -4.7617937e-06 1.1674163e-06 -1 0.697253 0.934163
-61.81906 9.323828 -32.241066 -0.30151728 -0.30153534 -0.904524 0.627646 0.985889
-61.81906 6.564578 -32.241074 -0.3015143 0.30151173 -0.9045329 0.697253 0.985889
-60.555344 3.1870418 -32.24108 3.0414053e-06 1.6292068e-07 -1 0.548456 0.711588
-60.555344 -0.10248518 -32.24108 -2.6812845e-07 1.6292068e-07 -1 0.548456 0.628389
-61.812523 -0.1024847 -32.24108 -0.6823111 -0.00096734834 -0.7310613 0.585526 0.628389
-60.555344 10.905693 -32.241074 -1.7643986e-06 -0.70710677 -0.70710677 0.265628 0.785391
-60.555344 9.323828 -32.241074 -9.964189e-06 -1.495526e-06 -1 0.265628 0.738702
-70.327415 10.905695 -32.241066 -5.110194e-07 -0.70710915 -0.70710444 0.674963 0.785391
-61.81906 9.323828 -32.241066 -0.30151728 -0.30153534 -0.904524 0.318563 0.738702
-70.327415 9.32383 -32.24106 -3.3468137e-07 -1.7394666e-06 -1 0.674963 0.738702
-68.52578 9.32383 -32.241066 0.30151388 -0.30151147 -0.9045331 0.599496 0.738702
-60.555344 4.481922 -32.24108 -6.013536e-06 1.6292068e-07 -1 0.546394 0.7439
-61.81906 4.51962 -32.241074 -0.30151674 -0.3015297 -0.90452605 0.588145 0.744955
-60.555344 6.564578 -32.241074 -4.7617937e-06 1.1674163e-06 -1 0.546394 0.802197
-61.81906 6.564578 -32.241074 -0.3015143 0.30151173 -0.9045329 0.588145 0.802197
-60.555344 4.481922 -32.24108 -6.013536e-06 1.6292068e-07 -1 0.548456 0.744338
-61.81906 4.51962 -32.241074 -0.30151674 -0.3015297 -0.90452605 0.585719 0.745292
-61.81906 4.51962 -31.951805 -0.5773509 -0.5773504 -0.5773494 0.036553 0.612306
-61.81906 -0.08171463 -31.951801 -0.7148308 -0.0009750237 -0.69929665 0.036553 0.509304
-68.52578 4.519623 -31.951794 0.57734334 -0.5773525 -0.5773549 0.247374 0.612306
-68.52578 -0.08171272 -31.951797 0.7253327 0.00033447694 -0.6883984 0.247374 0.509304
-61.81906 9.323828 -32.241066 -0.30151728 -0.30153534 -0.904524 0.567195 0.267151
-61.81906 6.564578 -32.241074 -0.3015143 0.30151173 -0.9045329 0.567195 0.501809
-61.81906 9.323828 -31.951801 -0.57735455 -0.57734877 -0.5773475 0.613724 0.267151
-61.81906 6.564578 -31.951801 -0.57735693 0.5773658 -0.57732815 0.613724 0.501809
-61.81906 6.564578 -32.241074 -0.3015143 0.30151173 -0.9045329 0.633253 0.789044
-61.81906 4.51962 -32.241074 -0.30151674 -0.3015297 -0.90452605 0.633253 0.742845
-68.52578 6.56458 -32.241066 0.3015137 0.30151978 -0.90453047 0.914186 0.789044
-68.52578 4.519623 -32.241066 0.30151153 -0.30149916 -0.90453804 0.914186 0.742845
-61.81906 6.564578 -32.241074 -0.3015143 0.30151173 -0.9045329 0.240469 0.003127
-68.52578 6.56458 -32.241066 0.3015137 0.30151978 -0.90453047 0.635008 0.003127
-61.81906 6.564578 -31.951801 -0.57735693 0.5773658 -0.57732815 0.240469 0.034414
-68.52578 6.56458 -31.951794 0.57735366 0.57734835 -0.5773489 0.635008 0.034414
-68.52357 -0.102482796 -32.241066 0.69315636 0.00033120022 -0.7207871 0.875073 0.597608
-70.327415 3.1870444 -32.241066 6.2395446e-07 -2.0737514e-07 -1 0.931473 0.713278
-68.52578 4.519623 -32.241066 0.30151153 -0.30149916 -0.90453804 0.875142 0.760136
-70.327415 4.4819245 -32.241066 5.8093265e-06 1.6292068e-07 -1 0.931473 0.75881
-68.52578 6.56458 -32.241066 0.3015137 0.30151978 -0.90453047 0.714132 0.867926
-68.52578 4.519623 -32.241066 0.30151153 -0.30149916 -0.90453804 0.786038 0.867926
-70.327415 6.5645795 -32.241066 9.648834e-07 1.5453975e-06 -1 0.714132 0.943393
-70.327415 4.4819245 -32.241066 5.8093265e-06 1.6292068e-07 -1 0.787364 0.943393
-68.52578 9.32383 -32.241066 0.30151388 -0.30151147 -0.9045331 0.875203 0.930329
-68.52578 6.56458 -32.241066 0.3015137 0.30151978 -0.90453047 0.875203 0.858119
-70.327415 9.32383 -32.24106 -3.3468137e-07 -1.7394666e-06 -1 0.934075 0.930329
-70.327415 6.5645795 -32.241066 9.648834e-07 1.5453975e-06 -1 0.934075 0.858119
-61.81906 9.323828 -31.951801 -0.57735455 -0.57734877 -0.5773475 0.998953 0.183198
-61.81906 6.564578 -31.951801 -0.57735693 0.5773658 -0.57732815 0.998953 0.272405
-68.52578 9.32383 -31.951794 0.5773556 -0.57736623 -0.57732886 0.716252 0.183198
-68.52578 6.56458 -31.951794 0.57735366 0.57734835 -0.5773489 0.716252 0.272405
-61.812523 -0.1024847 -32.24108 -0.6823111 -0.00096734834 -0.7310613 0.567195 0.501809
-61.81906 -0.08171463 -31.951801 -0.7148308 -0.0009750237 -0.69929665 0.613724 0.501809
-61.81906 4.51962 -32.241074 -0.30151674 -0.3015297 -0.90452605 0.567195 0.267151
-61.81906 4.51962 -31.951805 -0.5773509 -0.5773504 -0.5773494 0.613724 0.267151
-68.52578 6.56458 -32.241066 0.3015137 0.30151978 -0.90453047 0.567195 0.267151
-68.52578 9.32383 -32.241066 0.30151388 -0.30151147 -0.9045331 0.567195 0.501809
-68.52578 6.56458 -31.951794 0.57735366 0.57734835 -0.5773489 0.613724 0.267151
-68.52578 9.32383 -31.951794 0.5773556 -0.57736623 -0.57732886 0.613724 0.501809
-68.52357 -0.102482796 -32.241066 0.69315636 0.00033120022 -0.7207871 0.567195 0.267151
-68.52578 4.519623 -32.241066 0.30151153 -0.30149916 -0.90453804 0.567195 0.501809
-68.52578 -0.08171272 -31.951797 0.7253327 0.00033447694 -0.6883984 0.613724 0.267151
-68.52578 4.519623 -31.951794 0.57734334 -0.5773525 -0.5773549 0.613724 0.501809
-68.52578 9.32383 -32.241066 0.30151388 -0.30151147 -0.9045331 0.240469 0.003127
-61.81906 9.323828 -32.241066 -0.30151728 -0.30153534 -0.904524 0.635008 0.003127
-68.52578 9.32383 -31.951794 0.5773556 -0.57736623 -0.57732886 0.240469 0.034414
-61.81906 9.323828 -31.951801 -0.57735455 -0.57734877 -0.5773475 0.635008 0.034414
-68.52578 4.519623 -32.241066 0.30151153 -0.30149916 -0.90453804 0.240469 0.003127
-61.81906 4.51962 -32.241074 -0.30151674 -0.3015297 -0.90452605 0.635008 0.003127
-68.52578 4.519623 -31.951794 0.57734334 -0.5773525 -0.5773549 0.240469 0.034414
-61.81906 4.51962 -31.951805 -0.5773509 -0.5773504 -0.5773494 0.635008 0.034414
-70.327415 -0.10248232 -32.24106 -3.2584137e-07 -2.1563785e-06 -1 0.931473 0.597608
-69.745995 10.905695 -31.786919 0.7071081 -1.15202155e-07 0.7071055 0.989653 1.000684
-60.90419 10.905693 -31.786934 -0.7071067 -1.1520228e-07 0.70710677 0.580318 1.000684
-69.745995 10.993153 -31.786919 0.3015153 0.90453094 0.30151674 0.989653 1.000684
-60.90419 10.993151 -31.786934 -0.30151704 0.90453064 0.30151585 0.580318 1.000684
-60.555344 10.905693 -32.241074 -1.7643986e-06 -0.70710677 -0.70710677 0.580318 1.000684
-70.327415 10.905695 -32.241066 -5.110194e-07 -0.70710915 -0.70710444 0.989653 1.000684
-60.555344 10.905693 -32.35182 -1.9465258e-06 -0.7071085 -0.70710516 0.580318 1.000684
-70.327415 10.905695 -32.351807 -1.16197e-06 -0.70710635 -0.7071072 0.989653 1.000684
-60.90419 10.905693 -31.786934 -0.7071067 -1.1520228e-07 0.70710677 1.5e-05 0.01774
-69.745995 10.905695 -31.786919 0.7071081 -1.15202155e-07 0.7071055 0.999985 0.017739
-60.90419 10.708302 -31.786934 -0.7071024 -1.1520299e-07 0.7071111 1.5e-05 0.040064
-69.745995 10.708302 -31.786919 0.7071136 -1.1520125e-07 0.7071 0.999985 0.040064
-69.745995 10.905695 -31.786919 0.7071081 -1.15202155e-07 0.7071055 1.3e-05 1.8e-05
-69.74597 10.905695 -26.316887 1 4.5447386e-13 -3.1153818e-06 0.86875 1.3e-05
-69.745995 10.708302 -31.786919 0.7071136 -1.1520125e-07 0.7071 1.3e-05 0.015758
-69.74597 10.708302 -26.316887 1 4.5447215e-13 -3.1153713e-06 0.86875 0.015758
-60.904175 10.905693 -26.305527 -1 -3.6036254e-12 2.2444736e-05 0.894198 0.034377
-60.90419 10.905693 -26.650452 -1 -1.8017963e-12 1.13851875e-05 0.477208 0.034377
-60.904175 10.708301 -26.305527 -1 -3.6036207e-12 2.2444707e-05 0.894198 0.018632
-60.90419 10.708301 -26.650452 -1 -1.8018308e-12 1.1385399e-05 0.477208 0.018632
-60.90419 10.905693 -31.786934 -0.7071067 -1.1520228e-07 0.70710677 0.067483 0.034378
-60.90419 10.708302 -31.786934 -0.7071024 -1.1520299e-07 0.7071111 0.067483 0.018632
-70.327415 10.993152 -32.241066 -6.290679e-08 1 -1.9995427e-07 0.229141 0.002363
-70.32739 10.993152 -26.13646 -8.122443e-08 1 2.5094224e-08 0.936516 0.002363
-69.745995 10.993153 -31.786919 0.3015153 0.90453094 0.30151674 0.257014 0.038047
-69.74597 10.993152 -26.316887 0.64284617 0.7659953 -1.992767e-06 0.925442 0.038047
-70.327415 10.993152 -32.241066 -6.290679e-08 1 -1.9995427e-07 0.880112 0.002578
-69.745995 10.993153 -31.786919 0.3015153 0.90453094 0.30151674 0.836445 0.036686
-60.555344 10.99315 -32.241074 3.975322e-07 1 1.3591051e-07 0.14619 0.002579
-60.90419 10.993151 -31.786934 -0.30151704 0.90453064 0.30151585 0.17239 0.036686
-60.555344 10.99315 -32.241074 3.975322e-07 1 1.3591051e-07 1.262657 5.6e-05
-60.90419 10.993151 -31.786934 -0.30151704 0.90453064 0.30151585 1.212261 0.038767
-60.555336 10.99315 -26.80532 1.5986551e-10 1 8.165958e-08 0.659446 5.5e-05
-60.90419 10.99315 -26.650452 -0.7071035 0.70711005 8.187031e-06 0.64226 0.038767
-60.55532 10.99315 -26.1558 1.1552516e-13 1 3.5454417e-07 0.045523 5.5e-05
-60.904175 10.99315 -26.305527 -0.62222123 0.78284144 1.4410552e-05 0.062138 0.038767
-60.90419 10.905693 -31.786934 -0.7071067 -1.1520228e-07 0.70710677 0.529953 0.024696
-60.90419 10.905693 -26.650452 -1 -1.8017963e-12 1.13851875e-05 0.819023 0.024696
-60.90419 10.993151 -31.786934 -0.30151704 0.90453064 0.30151585 0.529953 0.024696
-60.90419 10.99315 -26.650452 -0.7071035 0.70711005 8.187031e-06 0.819023 0.024696
-60.90419 10.905693 -26.650452 -1 -1.8017963e-12 1.13851875e-05 0.486118 0.0313
-60.904175 10.905693 -26.305527 -1 -3.6036254e-12 2.2444736e-05 0.780324 0.0313
-60.90419 10.99315 -26.650452 -0.7071035 0.70711005 8.187031e-06 0.486118 0.0313
-60.904175 10.99315 -26.305527 -0.62222123 0.78284144 1.4410552e-05 0.780324 0.0313
-69.74597 10.905695 -26.316887 1 4.5447386e-13 -3.1153818e-06 0.334226 0.009552
-69.745995 10.905695 -31.786919 0.7071081 -1.15202155e-07 0.7071055 0.754985 0.009552
-69.74597 10.993152 -26.316887 0.64284617 0.7659953 -1.992767e-06 0.334226 0.009552
-69.745995 10.993153 -31.786919 0.3015153 0.90453094 0.30151674 0.754985 0.009552
-60.555344 10.905693 -32.35182 -1.9465258e-06 -0.7071085 -0.70710516 1.087945 0.03857
-70.327415 10.905695 -32.351807 -1.16197e-06 -0.70710635 -0.7071072 0.088084 0.03857
-60.555344 10.99315 -32.35182 -1.6660099e-06 0.7071059 -0.70710766 1.087833 0.02112
-70.327415 10.993152 -32.351807 -8.814234e-07 0.7071092 -0.7071044 0.087972 0.02112
-70.327415 10.993152 -32.351807 -8.814234e-07 0.7071092 -0.7071044 0.880112 0.002578
-60.555344 10.99315 -32.35182 -1.6660099e-06 0.7071059 -0.70710766 0.14619 0.002579
-70.23649 10.557922 -31.924744 -9.913724e-08 1 2.9701596e-07 0.4681462 0.06165552
-60.616768 10.557922 -27.600822 -9.913729e-08 1 2.122463e-07 0.23377727 0.09558034
-60.616768 10.557923 -31.924751 -9.9137324e-08 1 1.6292071e-07 0.23377727 0.06165552
-70.31571 -0.1433959 -32.232224 -1 -7.250324e-07 3.2584126e-07 0.9561014 0.6755541
-70.31571 10.976893 -28.655647 -1 -1.7909345e-07 3.2584134e-07 1.000411 0.7933448
-70.31571 10.976893 -32.232224 -1 -3.3881318e-21 3.2584137e-07 0.9561014 0.7933448
-60.55419 10.976894 -28.655651 1 -3.039813e-07 -3.2584143e-07 1.000411 0.7933448
-60.55419 -0.1433959 -32.23223 1 -1.2306225e-06 -3.2584157e-07 0.9561014 0.6755541
-60.55419 10.976894 -32.232224 1 3.3881318e-21 -3.2584137e-07 0.9561014 0.7933448
48.624474 9.323828 -32.241074 -1.1055199e-06 -1.4955247e-06 -1 0.627646 0.934163
48.624474 6.564578 -32.241074 -3.2584137e-07 1.1674163e-06 -1 0.697253 0.934163
47.360756 9.323828 -32.241066 -0.3015217 -0.3015349 -0.9045227 0.627646 0.985889
47.360756 6.564578 -32.241074 -0.30151367 0.3015118 -0.9045331 0.697253 0.985889
48.624474 3.1870418 -32.241074 1.933462e-06 1.6292068e-07 -1 0.548456 0.711588
48.624474 -0.10248518 -32.241074 -2.6813726e-07 1.6292068e-07 -1 0.548456 0.628389
47.367294 -0.1024847 -32.241074 -0.6823112 -0.0009654448 -0.7310612 0.585526 0.628389
48.624474 10.905693 -32.241074 -3.6842033e-07 -0.70710677 -0.70710677 0.265628 0.785391
48.624474 9.323828 -32.241074 -1.1055199e-06 -1.4955247e-06 -1 0.265628 0.738702
38.8524 10.905695 -32.241066 -2.5781137e-06 -0.70710915 -0.70710444 0.674963 0.785391
47.360756 9.323828 -32.241066 -0.3015217 -0.3015349 -0.9045227 0.318563 0.738702
38.8524 9.32383 -32.24106 -6.8899562e-06 -2.2485851e-06 -1 0.674963 0.738702
40.654037 9.32383 -32.241066 0.30150986 -0.30151188 -0.90453434 0.599496 0.738702
48.624474 4.481922 -32.241074 4.4249973e-06 1.6292068e-07 -1 0.546394 0.7439
47.360756 4.51962 -32.241074 -0.30151364 -0.3015303 -0.904527 0.588145 0.744955
48.624474 6.564578 -32.241074 -3.2584137e-07 1.1674163e-06 -1 0.546394 0.802197
47.360756 6.564578 -32.241074 -0.30151367 0.3015118 -0.9045331 0.588145 0.802197
48.624474 4.481922 -32.241074 4.4249973e-06 1.6292068e-07 -1 0.548456 0.744338
47.360756 4.51962 -32.241074 -0.30151364 -0.3015303 -0.904527 0.585719 0.745292
47.360756 4.51962 -31.951801 -0.5773508 -0.5773508 -0.57734925 0.036553 0.612306
47.360756 -0.08171463 -31.951797 -0.71483076 -0.0009731365 -0.6992969 0.036553 0.509304
40.654037 4.519623 -31.951794 0.57734287 -0.5773527 -0.57735515 0.247374 0.612306
40.654037 -0.08171272 -31.951794 0.72533196 0.00033397967 -0.6883991 0.247374 0.509304
47.360756 9.323828 -32.241066 -0.3015217 -0.3015349 -0.9045227 0.567195 0.267151
47.360756 6.564578 -32.241074 -0.30151367 0.3015118 -0.9045331 0.567195 0.501809
47.360756 9.323828 -31.951797 -0.57735455 -0.57734877 -0.5773475 0.613724 0.267151
47.360756 6.564578 -31.951797 -0.57735693 0.5773658 -0.57732815 0.613724 0.501809
47.360756 6.564578 -32.241074 -0.30151367 0.3015118 -0.9045331 0.633253 0.789044
47.360756 4.51962 -32.241074 -0.30151364 -0.3015303 -0.904527 0.633253 0.742845
40.654037 6.56458 -32.241066 0.30150986 0.30151966 -0.9045318 0.914186 0.789044
40.654037 4.519623 -32.241066 0.3015074 -0.30149898 -0.90453947 0.914186 0.742845
47.360756 6.564578 -32.241074 -0.30151367 0.3015118 -0.9045331 0.240469 0.003127
40.654037 6.56458 -32.241066 0.30150986 0.30151966 -0.9045318 0.635008 0.003127
47.360756 6.564578 -31.951797 -0.57735693 0.5773658 -0.57732815 0.240469 0.034414
40.654037 6.56458 -31.951794 0.57735366 0.5773483 -0.5773489 0.635008 0.034414
40.65625 -0.102482796 -32.241066 0.6931551 0.00033070645 -0.7207885 0.875073 0.597608
38.8524 3.1870444 -32.241066 -4.086185e-06 -2.0737514e-07 -1 0.931473 0.713278
40.654037 4.519623 -32.241066 0.3015074 -0.30149898 -0.90453947 0.875142 0.760136
38.8524 4.4819245 -32.241066 -4.392047e-06 1.970202e-06 -1 0.931473 0.75881
40.654037 6.56458 -32.241066 0.30150986 0.30151966 -0.9045318 0.714132 0.867926
40.654037 4.519623 -32.241066 0.3015074 -0.30149898 -0.90453947 0.786038 0.867926
38.8524 6.5645795 -32.24106 -2.9378434e-06 1.0051119e-06 -1 0.714132 0.943393
38.8524 4.4819245 -32.241066 -4.392047e-06 1.970202e-06 -1 0.787364 0.943393
40.654037 9.32383 -32.241066 0.30150986 -0.30151188 -0.90453434 0.875203 0.930329
40.654037 6.56458 -32.241066 0.30150986 0.30151966 -0.9045318 0.875203 0.858119
38.8524 9.32383 -32.24106 -6.8899562e-06 -2.2485851e-06 -1 0.934075 0.930329
38.8524 6.5645795 -32.24106 -2.9378434e-06 1.0051119e-06 -1 0.934075 0.858119
47.360756 9.323828 -31.951797 -0.57735455 -0.57734877 -0.5773475 0.998953 0.183198
47.360756 6.564578 -31.951797 -0.57735693 0.5773658 -0.57732815 0.998953 0.272405
40.654037 9.32383 -31.95179 0.5773557 -0.5773663 -0.5773289 0.716252 0.183198
40.654037 6.56458 -31.951794 0.57735366 0.5773483 -0.5773489 0.716252 0.272405
47.367294 -0.1024847 -32.241074 -0.6823112 -0.0009654448 -0.7310612 0.567195 0.501809
47.360756 -0.08171463 -31.951797 -0.71483076 -0.0009731365 -0.6992969 0.613724 0.501809
47.360756 4.51962 -32.241074 -0.30151364 -0.3015303 -0.904527 0.567195 0.267151
47.360756 4.51962 -31.951801 -0.5773508 -0.5773508 -0.57734925 0.613724 0.267151
40.654037 6.56458 -32.241066 0.30150986 0.30151966 -0.9045318 0.567195 0.267151
40.654037 9.32383 -32.241066 0.30150986 -0.30151188 -0.90453434 0.567195 0.501809
40.654037 6.56458 -31.951794 0.57735366 0.5773483 -0.5773489 0.613724 0.267151
40.654037 9.32383 -31.95179 0.5773557 -0.5773663 -0.5773289 0.613724 0.501809
40.65625 -0.102482796 -32.241066 0.6931551 0.00033070645 -0.7207885 0.567195 0.267151
40.654037 4.519623 -32.241066 0.3015074 -0.30149898 -0.90453947 0.567195 0.501809
40.654037 -0.08171272 -31.951794 0.72533196 0.00033397967 -0.6883991 0.613724 0.267151
40.654037 4.519623 -31.951794 0.57734287 -0.5773527 -0.57735515 0.613724 0.501809
40.654037 9.32383 -32.241066 0.30150986 -0.30151188 -0.90453434 0.240469 0.003127
47.360756 9.323828 -32.241066 -0.3015217 -0.3015349 -0.9045227 0.635008 0.003127
40.654037 9.32383 -31.95179 0.5773557 -0.5773663 -0.5773289 0.240469 0.034414
47.360756 9.323828 -31.951797 -0.57735455 -0.57734877 -0.5773475 0.635008 0.034414
40.654037 4.519623 -32.241066 0.3015074 -0.30149898 -0.90453947 0.240469 0.003127
47.360756 4.51962 -32.241074 -0.30151364 -0.3015303 -0.904527 0.635008 0.003127
40.654037 4.519623 -31.951794 0.57734287 -0.5773527 -0.57735515 0.240469 0.034414
47.360756 4.51962 -31.951801 -0.5773508 -0.5773508 -0.57734925 0.635008 0.034414
38.8524 -0.10248232 -32.24106 -5.4688444e-06 -2.1563785e-06 -1 0.931473 0.597608
39.433823 10.905695 -31.786915 0.70710844 -1.152021e-07 0.70710516 0.989653 1.000684
48.275627 10.905693 -31.78693 -0.70710665 -1.152023e-07 0.7071069 0.580318 1.000684
39.433823 10.993153 -31.786915 0.30151564 0.9045308 0.30151653 0.989653 1.000684
48.275627 10.993151 -31.78693 -0.30151737 0.9045305 0.30151594 0.580318 1.000684
48.624474 10.905693 -32.241074 -3.6842033e-07 -0.70710677 -0.70710677 0.580318 1.000684
38.8524 10.905695 -32.241066 -2.5781137e-06 -0.70710915 -0.70710444 0.989653 1.000684
48.624474 10.905693 -32.35182 -1.9465258e-06 -0.7071085 -0.70710516 0.580318 1.000684
38.8524 10.905695 -32.351807 -1.1619506e-06 -0.70710635 -0.7071072 0.989653 1.000684
48.275627 10.905693 -31.78693 -0.70710665 -1.152023e-07 0.7071069 1.5e-05 0.01774
39.433823 10.905695 -31.786915 0.70710844 -1.152021e-07 0.70710516 0.999985 0.017739
48.275627 10.708302 -31.78693 -0.7071019 -1.1520308e-07 0.70711166 1.5e-05 0.040064
39.433823 10.708302 -31.786915 0.7071137 -1.1520123e-07 0.70709985 0.999985 0.040064
39.433823 10.905695 -31.786915 0.70710844 -1.152021e-07 0.70710516 1.3e-05 1.8e-05
39.43384 10.905695 -26.316883 1 5.112852e-13 -3.4640875e-06 0.86875 1.3e-05
39.433823 10.708302 -31.786915 0.7071137 -1.1520123e-07 0.70709985 1.3e-05 0.015758
39.43384 10.708302 -26.316883 1 5.112817e-13 -3.4640661e-06 0.86875 0.015758
48.27564 10.905693 -26.305523 -1 -3.6036254e-12 2.2444736e-05 0.894198 0.034377
48.27563 10.905693 -26.650448 -1 -1.8320454e-12 1.1570854e-05 0.477208 0.034377
48.27564 10.708301 -26.305523 -1 -3.6036207e-12 2.2444707e-05 0.894198 0.018632
48.27563 10.708301 -26.650448 -1 -1.8320796e-12 1.1571065e-05 0.477208 0.018632
48.275627 10.905693 -31.78693 -0.70710665 -1.152023e-07 0.7071069 0.067483 0.034378
48.275627 10.708302 -31.78693 -0.7071019 -1.1520308e-07 0.70711166 0.067483 0.018632
38.8524 10.993152 -32.241066 -6.291577e-08 1 -2.3877038e-07 0.229141 0.002363
38.85242 10.993152 -26.136456 -8.122385e-08 1 1.5207527e-07 0.936516 0.002363
39.433823 10.993153 -31.786915 0.30151564 0.9045308 0.30151653 0.257014 0.038047
39.43384 10.993152 -26.316883 0.6428462 0.76599526 -2.1020924e-06 0.925442 0.038047
38.8524 10.993152 -32.241066 -6.291577e-08 1 -2.3877038e-07 0.880112 0.002578
39.433823 10.993153 -31.786915 0.30151564 0.9045308 0.30151653 0.836445 0.036686
48.624474 10.99315 -32.241074 3.9752837e-07 1 1.3591051e-07 0.14619 0.002579
48.275627 10.993151 -31.78693 -0.30151737 0.9045305 0.30151594 0.17239 0.036686
48.624474 10.99315 -32.241074 3.9752837e-07 1 1.3591051e-07 1.262657 5.6e-05
48.275627 10.993151 -31.78693 -0.30151737 0.9045305 0.30151594 1.212261 0.038767
48.624485 10.99315 -26.805317 1.5942844e-10 1 4.5182077e-08 0.659446 5.5e-05
48.27563 10.99315 -26.650448 -0.7071035 0.70711017 8.302818e-06 0.64226 0.038767
48.624493 10.99315 -26.155796 1.1552516e-13 1 3.5454417e-07 0.045523 5.5e-05
48.27564 10.99315 -26.305523 -0.62222123 0.78284144 1.4410552e-05 0.062138 0.038767
48.275627 10.905693 -31.78693 -0.70710665 -1.152023e-07 0.7071069 0.529953 0.024696
48.27563 10.905693 -26.650448 -1 -1.8320454e-12 1.1570854e-05 0.819023 0.024696
48.275627 10.993151 -31.78693 -0.30151737 0.9045305 0.30151594 0.529953 0.024696
48.27563 10.99315 -26.650448 -0.7071035 0.70711017 8.302818e-06 0.819023 0.024696
48.27563 10.905693 -26.650448 -1 -1.8320454e-12 1.1570854e-05 0.486118 0.0313
48.27564 10.905693 -26.305523 -1 -3.6036254e-12 2.2444736e-05 0.780324 0.0313
48.27563 10.99315 -26.650448 -0.7071035 0.70711017 8.302818e-06 0.486118 0.0313
48.27564 10.99315 -26.305523 -0.62222123 0.78284144 1.4410552e-05 0.780324 0.0313
39.43384 10.905695 -26.316883 1 5.112852e-13 -3.4640875e-06 0.334226 0.009552
39.433823 10.905695 -31.786915 0.70710844 -1.152021e-07 0.70710516 0.754985 0.009552
39.43384 10.993152 -26.316883 0.6428462 0.76599526 -2.1020924e-06 0.334226 0.009552
39.433823 10.993153 -31.786915 0.30151564 0.9045308 0.30151653 0.754985 0.009552
48.624474 10.905693 -32.35182 -1.9465258e-06 -0.7071085 -0.70710516 1.087945 0.03857
38.8524 10.905695 -32.351807 -1.1619506e-06 -0.70710635 -0.7071072 0.088084 0.03857
48.624474 10.99315 -32.35182 -1.6660101e-06 0.70710593 -0.70710766 1.087833 0.02112
38.8524 10.993152 -32.351807 -8.814424e-07 0.7071092 -0.7071044 0.087972 0.02112
38.8524 10.993152 -32.351807 -8.814424e-07 0.7071092 -0.7071044 0.880112 0.002578
48.624474 10.99315 -32.35182 -1.6660101e-06 0.70710593 -0.70710766 0.14619 0.002579
38.94333 10.557922 -31.92474 -9.913725e-08 1 2.9468106e-07 0.4681462 0.06165552
48.563053 10.557922 -27.600819 -9.91373e-08 1 2.0589876e-07 0.23377727 0.09558034
48.56305 10.557923 -31.924747 -9.9137324e-08 1 1.5423824e-07 0.23377727 0.06165552
38.864105 -0.1433959 -32.232224 -1 -8.206029e-08 8.5913024e-07 0.9561014 0.6755541
38.86411 10.976893 -28.655643 -1 -2.027014e-08 8.591307e-07 1.000411 0.7933448
38.864105 10.976893 -32.232224 -1 -8.6883896e-14 8.5913086e-07 0.9561014 0.7933448
48.62563 10.976894 -28.655647 1 8.6883774e-14 -8.591301e-07 1.000411 0.7933448
48.625626 -0.1433959 -32.232224 1 8.688376e-14 -8.5913e-07 0.9561014 0.6755541
48.625626 10.976894 -32.232224 1 8.6883774e-14 -8.591301e-07 0.9561014 0.7933448
-70.337746 9.323828 32.93718 -1.5933718e-06 8.457118e-07 -1 0.627646 0.934163
-69.07403 9.323828 32.93718 -1.971904e-06 3.372306e-06 -1 0.627646 0.985889
-70.337746 6.564578 32.937183 -3.1707314e-06 -7.40587e-07 -1 0.697253 0.934163
-69.07403 6.564578 32.93718 -2.5803256e-06 -6.8930655e-07 -1 0.697253 0.985889
-70.337746 3.1870418 32.937187 -3.4105328e-06 1.6566405e-07 -1 0.548456 0.711588
-69.08057 -0.1024847 32.93718 -3.3618335e-06 1.6391627e-07 -1 0.585526 0.628389
-70.337746 -0.10248518 32.937187 -3.3403162e-06 1.6292068e-07 -1 0.548456 0.628389
-70.337746 10.905693 32.937187 -1.2975238e-06 2.5744328e-06 -1 0.265628 0.785391
-60.565674 10.905695 32.937172 -1.772217e-06 2.0207501e-06 -1 0.674963 0.785391
-70.337746 9.323828 32.93718 -1.5933718e-06 8.457118e-07 -1 0.265628 0.738702
-69.07403 9.323828 32.93718 -1.971904e-06 3.372306e-06 -1 0.318563 0.738702
-60.565674 9.32383 32.93717 -2.2298623e-06 8.9576463e-07 -1 0.674963 0.738702
-62.36731 9.32383 32.937172 -1.6377039e-06 6.3406685e-07 -1 0.599496 0.738702
-70.337746 4.481922 32.937187 -3.3066344e-06 -2.8630677e-07 -1 0.546394 0.7439
-70.337746 6.564578 32.937183 -3.1707314e-06 -7.40587e-07 -1 0.546394 0.802197
-69.07403 4.51962 32.937183 -2.5263944e-06 -4.6051917e-07 -1 0.588145 0.744955
-69.07403 6.564578 32.93718 -2.5803256e-06 -6.8930655e-07 -1 0.588145 0.802197
-70.337746 4.481922 32.937187 -3.3066344e-06 -2.8630677e-07 -1 0.548456 0.744338
-69.07403 4.51962 32.937183 -2.5263944e-06 -4.6051917e-07 -1 0.585719 0.745292
-69.07403 6.564578 32.93718 -2.5803256e-06 -6.8930655e-07 -1 0.633253 0.789044
-62.36731 6.56458 32.937176 -1.3392465e-06 -8.348715e-07 -1 0.914186 0.789044
-69.07403 4.51962 32.937183 -2.5263944e-06 -4.6051917e-07 -1 0.633253 0.742845
-62.36731 4.519623 32.937176 -1.2198909e-06 -4.5974667e-07 -1 0.914186 0.742845
-62.36731 9.32383 32.79428 -9.002479e-07 1.6292068e-07 -1 0.716252 0.183198
-62.36731 6.56458 32.79428 -9.1125526e-07 1.6292068e-07 -1 0.716252 0.272405
-69.07403 6.564578 32.79429 -8.779621e-07 1.6292068e-07 -1 0.998953 0.272405
-69.07403 9.323828 32.79429 -8.669548e-07 1.6292068e-07 -1 0.998953 0.183198
-62.369522 -0.102482796 32.937176 -1.3750744e-06 1.6308235e-07 -1 0.875073 0.597608
-62.36731 4.519623 32.937176 -1.2198909e-06 -4.5974667e-07 -1 0.875142 0.760136
-60.565674 3.1870444 32.937172 -1.3715293e-06 1.6319579e-07 -1 0.931473 0.713278
-60.565674 4.4819245 32.937172 -1.3843832e-06 -2.8889966e-07 -1 0.931473 0.75881
-62.36731 6.56458 32.937176 -1.3392465e-06 -8.348715e-07 -1 0.714132 0.867926
-60.565674 6.5645795 32.937172 -1.378149e-06 -9.908024e-07 -1 0.714132 0.943393
-62.36731 4.519623 32.937176 -1.2198909e-06 -4.5974667e-07 -1 0.786038 0.867926
-60.565674 4.4819245 32.937172 -1.3843832e-06 -2.8889966e-07 -1 0.787364 0.943393
-62.36731 9.32383 32.937172 -1.6377039e-06 6.3406685e-07 -1 0.875203 0.930329
-60.565674 9.32383 32.93717 -2.2298623e-06 8.9576463e-07 -1 0.934075 0.930329
-62.36731 6.56458 32.937176 -1.3392465e-06 -8.348715e-07 -1 0.875203 0.858119
-60.565674 6.5645795 32.937172 -1.378149e-06 -9.908024e-07 -1 0.934075 0.858119
-62.36731 4.519623 32.817368 -8.9311555e-07 1.6292068e-07 -1 0.247374 0.612306
-62.36731 -0.08171272 32.817368 -8.903625e-07 1.6292068e-07 -1 0.247374 0.509304
-69.07403 -0.08171463 32.81737 -8.94801e-07 1.6292068e-07 -1 0.036553 0.509304
-69.07403 4.51962 32.81737 -8.975542e-07 1.6292068e-07 -1 0.036553 0.612306
-60.565674 -0.10248232 32.937172 -1.3705138e-06 1.6292068e-07 -1 0.931473 0.597608
27.187523 10.55792 28.499212 9.9137075e-08 1 -3.8734177e-07 0.4681462 0.09558034
27.266747 -0.1433959 29.554049 1 3.3881318e-21 -3.2584137e-07 1.000411 0.6755541
17.505226 -0.1433959 29.554049 -1 -3.3881318e-21 3.2584137e-07 1.000411 0.6755541
-60.6566 10.557921 28.499212 9.9137175e-08 1 -2.0392108e-07 0.4681462 0.09558034
-60.577377 -0.1433959 29.554049 1 3.3881318e-21 -3.2584137e-07 1.000411 0.6755541
-70.3389 -0.1433959 29.554049 -1 -3.3881318e-21 3.2584137e-07 1.000411 0.6755541
-70.23649 10.557921 -27.600811 -9.91372e-08 1 3.463415e-07 0.4681462 0.09558034
-70.31571 -0.14339542 -28.655643 -1 -9.0412567e-07 3.2584123e-07 1.000411 0.6755541
-60.55419 -0.14339542 -28.655647 1 -1.5346036e-06 -3.2584163e-07 1.000411 0.6755541
38.943333 10.557921 -27.600807 -9.913724e-08 1 3.4634155e-07 0.4681462 0.09558034
38.86411 -0.14339542 -28.655643 -1 -1.02330326e-07 8.5913007e-07 1.000411 0.6755541
48.62563 -0.14339542 -28.655647 1 8.688376e-14 -8.5913e-07 1.000411 0.6755541
3 0 1 2
3 2 1 3
3 4 5 6
3 7 8 9
3 8 10 9
3 11 9 12
3 10 12 9
3 13 14 15
3 15 14 16
3 17 4 18
3 18 4 6
3 19 20 21
3 21 20 22
3 23 24 25
3 25 24 26
3 27 28 29
3 29 28 30
3 31 32 33
3 33 32 34
3 35 36 37
3 37 36 38
3 39 40 41
3 41 40 42
3 43 44 45
3 45 44 46
3 47 48 49
3 49 48 50
3 51 52 53
3 53 52 54
3 55 56 57
3 57 56 58
3 59 60 61
3 61 60 62
3 63 64 65
3 65 64 66
3 67 68 69
3 69 68 70
3 35 71 36
3 72 73 74
3 74 73 75
3 76 77 78
3 78 77 79
3 80 81 82
3 82 81 83
3 84 85 86
3 86 85 87
3 88 89 90
3 90 89 91
3 89 92 91
3 91 92 93
3 94 95 96
3 96 95 97
3 98 99 100
3 100 99 101
3 102 103 104
3 104 103 105
3 104 105 106
3 106 105 107
3 108 109 110
3 110 109 111
3 112 113 114
3 114 113 115
3 116 117 118
3 118 117 119
3 120 121 122
3 122 121 123
3 98 100 124
3 124 100 125
3 126 127 128
3 129 130 131
3 132 133 134
3 135 136 137
3 137 136 138
3 139 140 141
3 142 143 144
3 143 145 144
3 146 144 147
3 145 147 144
3 148 149 150
3 150 149 151
3 152 139 153
3 153 139 141
3 154 155 156
3 156 155 157
3 158 159 160
3 160 159 161
3 162 163 164
3 164 163 165
3 166 167 168
3 168 167 169
3 170 171 172
3 172 171 173
3 174 175 176
3 176 175 177
3 178 179 180
3 180 179 181
3 182 183 184
3 184 183 185
3 186 187 188
3 188 187 189
3 190 191 192
3 192 191 193
3 194 195 196
3 196 195 197
3 198 199 200
3 200 199 201
3 202 203 204
3 204 203 205
3 170 206 171
3 207 208 209
3 209 208 210
3 211 212 213
3 213 212 214
3 215 216 217
3 217 216 218
3 219 220 221
3 221 220 222
3 223 224 225
3 225 224 226
3 224 227 226
3 226 227 228
3 229 230 231
3 231 230 232
3 233 234 235
3 235 234 236
3 237 238 239
3 239 238 240
3 239 240 241
3 241 240 242
3 243 244 245
3 245 244 246
3 247 248 249
3 249 248 250
3 251 252 253
3 253 252 254
3 255 256 257
3 257 256 258
3 233 235 259
3 259 235 260
3 261 262 263
3 264 265 266
3 267 268 269
3 270 271 272
3 272 271 273
3 274 275 276
3 277 278 279
3 278 280 279
3 281 279 282
3 280 282 279
3 283 284 285
3 285 284 286
3 287 274 288
3 288 274 276
3 289 290 291
3 291 290 292
3 293 294 295
3 295 294 296
3 297 298 299
3 299 298 300
3 301 302 303
3 303 302 304
3 305 306 307
3 307 306 308
3 309 310 311
3 311 310 312
3 313 314 315
3 315 314 316
3 317 318 319
3 319 318 320
3 321 322 323
3 323 322 324
3 325 326 327
3 327 326 328
3 329 330 331
3 331 330 332
3 333 334 335
3 335 334 336
3 337 338 339
3 339 338 340
3 305 341 306
3 342 343 344
3 344 343 345
3 346 347 348
3 348 347 349
3 350 351 352
3 352 351 353
3 354 355 356
3 356 355 357
3 358 359 360
3 360 359 361
3 359 362 361
3 361 362 363
3 364 365 366
3 366 365 367
3 368 369 370
3 370 369 371
3 372 373 374
3 374 373 375
3 374 375 376
3 376 375 377
3 378 379 380
3 380 379 381
3 382 383 384
3 384 383 385
3 386 387 388
3 388 387 389
3 390 391 392
3 392 391 393
3 368 370 394
3 394 370 395
3 396 397 398
3 399 400 401
3 402 403 404
3 405 406 407
3 407 406 408
3 409 410 411
3 412 413 414
3 413 415 414
3 416 414 417
3 415 417 414
3 418 419 420
3 420 419 421
3 422 409 423
3 423 409 411
3 424 425 426
3 426 425 427
3 428 429 430
3 430 429 431
3 432 433 434
3 434 433 435
3 436 437 438
3 438 437 439
3 440 441 442
3 442 441 443
3 444 445 446
3 446 445 447
3 448 449 450
3 450 449 451
3 452 453 454
3 454 453 455
3 456 457 458
3 458 457 459
3 460 461 462
3 462 461 463
3 464 465 466
3 466 465 467
3 468 469 470
3 470 469 471
3 472 473 474
3 474 473 475
3 440 476 441
3 477 478 479
3 479 478 480
3 481 482 483
3 483 482 484
3 485 486 487
3 487 486 488
3 489 490 491
3 491 490 492
3 493 494 495
3 495 494 496
3 494 497 496
3 496 497 498
3 499 500 501
3 501 500 502
3 503 504 505
3 505 504 506
3 507 508 509
3 509 508 510
3 509 510 511
3 511 510 512
3 513 514 515
3 515 514 516
3 517 518 519
3 519 518 520
3 521 522 523
3 523 522 524
3 525 526 527
3 527 526 528
3 503 505 529
3 529 505 530
3 531 532 533
3 534 535 536
3 537 538 539
3 540 541 542
3 541 543 542
3 544 545 546
3 547 548 549
3 549 548 550
3 551 552 548
3 550 548 552
3 553 554 555
3 554 556 555
3 557 558 544
3 558 545 544
3 559 560 561
3 560 562 561
3 563 564 565
3 566 563 565
3 567 568 569
3 568 570 569
3 571 572 573
3 572 574 573
3 575 576 577
3 576 578 577
3 579 580 581
3 582 579 581
3 567 569 583
3 126 584 127
3 129 585 130
3 132 586 133
3 261 587 262
3 264 588 265
3 267 589 268
3 396 590 397
3 399 591 400
3 402 592 403
3 531 593 532
3 534 594 535
3 537 595 538
